<?xml version="1.0" encoding="utf-8"?>
<!-- Generator: Adobe Illustrator 24.0.0, SVG Export Plug-In . SVG Version: 6.00 Build 0)  -->
<svg version="1.1" id="Livello_1" xmlns="http://www.w3.org/2000/svg" xmlns:xlink="http://www.w3.org/1999/xlink" x="0px" y="0px"
	 viewBox="0 0 200 200" style="enable-background:new 0 0 200 200;" xml:space="preserve">
<style type="text/css">
	.st0{fill:#FFFFFF;}
</style>
<title>wordpress</title>
<path class="st0" d="M28.2,100.4c0-10.7,2.2-20.6,6.3-29.6L69.2,166C44.9,154.3,28.2,129.3,28.2,100.4L28.2,100.4z M150.3,96.8
	c0,6.3-2.4,13.4-5.6,23.6l-7.3,24.3l-26.5-78.4c4.4-0.2,8.5-0.7,8.5-0.7c3.9-0.5,3.4-6.1-0.5-5.8c0,0-11.9,0.7-19.4,0.7
	c-7.3,0-19.2-0.7-19.2-0.7c-3.9-0.2-4.4,5.6-0.5,5.8c0,0,3.6,0.5,7.5,0.7l11.4,31.1l-16,47.8L56.3,66.2c4.4-0.2,8.3-0.7,8.3-0.7
	c4.1-0.5,3.6-6.1-0.5-5.8c0,0-11.7,0.7-19.4,0.7H40C53.2,40.7,75.5,27.5,101,27.5c18.9,0,36.2,7.3,49.3,19.2c-0.5-0.2-0.7-0.2-1-0.2
	c-7.3,0-12.4,6.3-12.4,13.1c0,5.8,3.6,10.9,7.3,17C146.9,81.5,150.3,87.8,150.3,96.8L150.3,96.8z M80.4,170.3l21.9-63.6l22.6,61.4
	c0,0.5,0.2,0.7,0.5,1c-7.5,2.7-15.8,4.1-24.3,4.1C94,173.2,86.9,172.3,80.4,170.3L80.4,170.3z M164.9,65.4c5.8,10.4,9,22.3,9,35
	c0,27-14.6,50.3-36.2,63.1L160,98.9c4.1-10.2,5.3-18.7,5.3-26C165.3,70.3,165.3,67.9,164.9,65.4L164.9,65.4z M101,15.4
	c46.9,0,85,38.1,85,85s-38.1,85-85,85s-85-38.1-85-85S54.1,15.4,101,15.4z M101,181.5c44.7,0,81.1-36.4,81.1-81.1
	S145.7,19.3,101,19.3s-81.1,36.4-81.1,81.1S56.3,181.5,101,181.5z"/>
</svg>
