<?xml version="1.0" encoding="utf-8"?>
<!-- Generator: Adobe Illustrator 24.0.0, SVG Export Plug-In . SVG Version: 6.00 Build 0)  -->
<svg version="1.1" id="Livello_1" xmlns="http://www.w3.org/2000/svg" xmlns:xlink="http://www.w3.org/1999/xlink" x="0px" y="0px"
	 viewBox="0 0 200 200" style="enable-background:new 0 0 200 200;" xml:space="preserve">
<style type="text/css">
	.st0{fill-rule:evenodd;clip-rule:evenodd;fill:#FFFFFF;}
</style>
<path class="st0" d="M48.6,32.2c-10,0-17.5,8.8-17.1,18.3c0.3,9.2-0.1,21-3.1,30.7c-3,9.7-8.1,15.8-16.3,16.6v8.9
	c8.3,0.8,13.3,6.9,16.3,16.6c3,9.7,3.4,21.5,3.1,30.7c-0.3,9.5,7.1,18.3,17.1,18.3h102.9c10,0,17.5-8.8,17.1-18.3
	c-0.3-9.2,0.1-21,3.1-30.7c3-9.7,8-15.8,16.3-16.6v-8.9c-8.3-0.8-13.3-6.9-16.3-16.6c-3-9.7-3.4-21.5-3.1-30.7
	c0.3-9.5-7.1-18.3-17.1-18.3H48.6L48.6,32.2z M131.3,118.5c0,13.1-9.8,21.1-26,21.1H77.6c-0.8,0-1.5-0.3-2.1-0.9
	c-0.6-0.6-0.9-1.3-0.9-2.1V68c0-0.8,0.3-1.5,0.9-2.1c0.6-0.6,1.3-0.9,2.1-0.9h27.5c13.5,0,22.4,7.3,22.4,18.6c0,7.9-6,15-13.6,16.2
	v0.4C124.3,101.4,131.3,108.6,131.3,118.5z M102.3,74.4H86.5v22.3h13.3c10.3,0,15.9-4.1,15.9-11.5C115.7,78.3,110.8,74.4,102.3,74.4
	z M86.5,105.6v24.5h16.4c10.7,0,16.4-4.3,16.4-12.4c0-8.1-5.8-12.2-17-12.2L86.5,105.6L86.5,105.6z"/>
</svg>
