<?xml version="1.0" encoding="utf-8"?>
<!-- Generator: Adobe Illustrator 24.0.0, SVG Export Plug-In . SVG Version: 6.00 Build 0)  -->
<svg version="1.1" id="Livello_1" xmlns="http://www.w3.org/2000/svg" xmlns:xlink="http://www.w3.org/1999/xlink" x="0px" y="0px"
	 viewBox="0 0 200 200" style="enable-background:new 0 0 200 200;" xml:space="preserve">
<style type="text/css">
	.st0{fill:#FFFFFF;}
</style>
<path class="st0" d="M175.3,93L107,24.7c-3.9-3.9-10.3-3.9-14.3,0L78.5,38.9l18,18c4.2-1.4,9-0.5,12.3,2.9c3.4,3.4,4.3,8.2,2.8,12.4
	L129,89.5c4.2-1.4,9-0.5,12.4,2.8c4.7,4.7,4.7,12.3,0,17c-4.7,4.7-12.3,4.7-17,0c-3.5-3.5-4.4-8.7-2.6-13.1l-16.2-16.2l0,42.6
	c1.2,0.6,2.2,1.3,3.2,2.3c4.7,4.7,4.7,12.3,0,17c-4.7,4.7-12.3,4.7-17,0c-4.7-4.7-4.7-12.3,0-17c1.1-1.1,2.5-2,3.9-2.6v-43
	c-1.5-0.6-2.8-1.5-3.9-2.6c-3.6-3.5-4.4-8.8-2.6-13.1L71.5,45.8L24.7,92.7c-3.9,3.9-3.9,10.3,0,14.3L93,175.3
	c3.9,3.9,10.3,3.9,14.3,0l68-68C179.3,103.4,179.3,97,175.3,93"/>
</svg>
