<?xml version="1.0" encoding="utf-8"?>
<!-- Generator: Adobe Illustrator 24.0.0, SVG Export Plug-In . SVG Version: 6.00 Build 0)  -->
<svg version="1.1" id="Livello_1" xmlns="http://www.w3.org/2000/svg" xmlns:xlink="http://www.w3.org/1999/xlink" x="0px" y="0px"
	 viewBox="0 0 200 200" style="enable-background:new 0 0 200 200;" xml:space="preserve">
<style type="text/css">
	.st0{fill:#FFFFFF;}
</style>
<g>
	<path class="st0" d="M95.6,18c-0.4,0-1.5,0.1-2.5,0.2c-23.3,2.1-45.1,14.7-58.9,34C26.5,63,21.6,75.2,19.7,88.1
		C19.1,92.6,19,93.9,19,100c0,6.1,0.1,7.4,0.7,11.9c4.5,30.8,26.4,56.7,56.1,66.2c5.3,1.7,10.9,2.9,17.3,3.6
		c2.5,0.3,13.2,0.3,15.7,0c11-1.2,20.3-3.9,29.5-8.6c1.4-0.7,1.7-0.9,1.5-1.1c-0.1-0.1-6.1-8.2-13.4-17.9l-13.1-17.7L97,112.1
		c-9-13.4-16.5-24.3-16.5-24.3c-0.1,0-0.1,10.8-0.2,24c0,23.1-0.1,24-0.4,24.6c-0.4,0.8-0.7,1.1-1.4,1.5c-0.5,0.3-1,0.3-3.4,0.3
		h-2.8l-0.7-0.5c-0.5-0.3-0.8-0.7-1.1-1.2l-0.3-0.7l0-32.1l0-32.2l0.5-0.6c0.3-0.3,0.8-0.8,1.2-1c0.7-0.3,0.9-0.4,3.7-0.4
		c3.3,0,3.8,0.1,4.7,1.1c0.2,0.3,9.1,13.7,19.8,29.8s25.2,38.2,32.4,49l13,19.7l0.7-0.4c5.8-3.8,12-9.2,16.8-14.8
		c10.4-11.9,17.1-26.4,19.3-41.9c0.7-4.5,0.7-5.8,0.7-11.9c0-6.1-0.1-7.4-0.7-11.9c-4.5-30.8-26.4-56.7-56.1-66.2
		c-5.2-1.7-10.8-2.9-17.1-3.6C107.6,18.1,97,17.9,95.6,18L95.6,18z M129.2,67.6c0.8,0.4,1.4,1.1,1.6,1.9c0.1,0.4,0.2,9.3,0.1,29.4
		l0,28.8l-5.1-7.8l-5.1-7.8V91.2c0-13.5,0.1-21.2,0.2-21.5c0.3-0.9,0.8-1.6,1.6-2c0.7-0.3,0.9-0.4,3.4-0.4
		C128.3,67.3,128.7,67.3,129.2,67.6z"/>
</g>
</svg>
