<?xml version="1.0" encoding="utf-8"?>
<!-- Generator: Adobe Illustrator 24.0.0, SVG Export Plug-In . SVG Version: 6.00 Build 0)  -->
<svg version="1.1" id="Livello_1" xmlns="http://www.w3.org/2000/svg" xmlns:xlink="http://www.w3.org/1999/xlink" x="0px" y="0px"
	 viewBox="0 0 200 200" style="enable-background:new 0 0 200 200;" xml:space="preserve">
<style type="text/css">
	.st0{fill:#FFFFFF;}
</style>
<title>Tailwind CSS icon</title>
<path class="st0" d="M100.5,47.2c-23.1,0-37.5,11.5-43.2,34.6c8.6-11.5,18.7-15.9,30.3-13c6.6,1.6,11.3,6.4,16.5,11.7
	c8.5,8.6,18.3,18.6,39.7,18.6c23.1,0,37.5-11.5,43.2-34.6c-8.6,11.5-18.7,15.9-30.3,13c-6.6-1.6-11.3-6.4-16.5-11.7
	C131.8,57.2,122,47.2,100.5,47.2z M57.3,99.1c-23.1,0-37.5,11.5-43.2,34.6c8.6-11.5,18.7-15.9,30.3-13c6.6,1.6,11.3,6.4,16.5,11.7
	c8.5,8.6,18.3,18.6,39.7,18.6c23.1,0,37.5-11.5,43.2-34.6c-8.6,11.5-18.7,15.9-30.3,13c-6.6-1.6-11.3-6.4-16.5-11.7
	C88.5,109.1,78.7,99.1,57.3,99.1z"/>
</svg>
