<?xml version="1.0" encoding="utf-8"?>
<!-- Generator: Adobe Illustrator 24.0.0, SVG Export Plug-In . SVG Version: 6.00 Build 0)  -->
<svg version="1.1" id="Livello_1" xmlns="http://www.w3.org/2000/svg" xmlns:xlink="http://www.w3.org/1999/xlink" x="0px" y="0px"
	 viewBox="0 0 150 100" style="enable-background:new 0 0 150 100;" xml:space="preserve">
<style type="text/css">
	.st0{fill:none;stroke:#000000;stroke-width:0.3241;}
</style>
<path class="st0" d="M114.3,51.2c0,21.7-17.6,39.3-39.3,39.3S35.7,72.9,35.7,51.2C35.8,29.4,53.3,11.8,75,11.8
	S114.3,29.4,114.3,51.2z"/>
<g>
	<g>
		<path d="M52.3,65.9L52.3,65.9l0.1,0.3v0.1v0.1v0.2v0.1v0.2V67v0.2v0.5l0.1,0.2l0.2,0.1l0.2,0.1l0.1,0.2v0.1v0.1l-0.1,0.2l-0.2,0.1
			h-0.1h-0.2h-0.1h-0.1L52,68.4v-0.1l-0.2-0.1h-0.2l-0.1,0.1h-0.1l-0.1,0.1l-0.1,0.1h-0.1h-0.2H51l-0.1-0.1l-0.1-0.1l-0.1-0.1
			l-0.1-0.3v-0.1v-0.1v-0.1v-0.4V67v-0.2v-0.2v-0.1v-0.1l0.1-0.2l-0.2,0.2l-0.1,0.1h-0.1l-0.2,0.1L50,66.7l-0.1,0.1H50l-0.1,0.1
			L49.8,67l-0.1,0.2v0.2v0.1v0.1v0.1l0.1,0.1l0.1,0.2l0.1,0.1l0.1,0.3l0.1,0.1v0.2l0.1,0.2v0.2v0.1v0.1v0.1v0.2l-0.1,0.2L50,70h-0.1
			l-0.1,0h-0.2v0.1l0,0l-0.2,0.2h-0.2l-0.1,0.1H49l-0.2,0.1l-0.1,0.1h-0.1h-0.1l-0.2,0.2v0.1L48.1,71H48v0.2l-0.1,0.1H48h-0.2
			l-0.2-0.1V71l-0.1-0.1l-0.2-0.1l-0.1-0.1l-0.1-0.2l-0.1,0l-0.2-0.1l-0.1-0.2h-0.2l-0.1-0.1l-0.2-0.2h-0.1h-0.2l-0.2,0.2h-0.1
			l-0.2,0.1h-0.2l0-0.2h-0.1v-0.1L45,69.5v-0.2v-0.2V69v-0.2v-0.1v-0.2v-0.1v-0.1v-0.1V68v0l-0.2-0.2l-0.2-0.1h-0.2h-0.1l-0.2,0.2
			V68l0,0v0.2l0.1,0.1l0.1,0.1h0.1l0.1,0.1v0.2v0.1v0.1V69l-0.2,0.1h-0.1h-0.1h-0.2H44l-0.2-0.2l-0.1-0.1l-0.2-0.2v-0.1v-0.1
			l-0.1-0.1v-0.1V68l0.1-0.3v-0.1l0.1-0.1l0.2-0.2l0.1-0.1L44,67l0.2-0.1l0.1-0.1l0.2-0.1l0.2-0.1h0.1h0.1H45l0,0l0.1,0.1l0.2,0.1
			l0.2,0.1l0.2,0.1h0.1H46h0.2h0.1l0.1-0.1h0.2l0.2,0.1l0.1,0.1l0.2,0.2v0.2v0.2V68v0.2v0.1v0.2l0.1,0.1L47,68.7v0.4l0.1,0.2
			l0.1,0.2l0.1,0.1h0.1h0.1l0.1-0.3l0.2-0.2l0.1-0.1l0.1-0.1l0.3-0.2l0.2-0.2v-0.1v-0.2v-0.1V68v0l-0.1-0.1v-0.1l-0.2-0.3L48,67.4
			v-0.2L47.9,67l0,0v-0.1v-0.3l0.1-0.2l0.1-0.2l0.1-0.1l0.2-0.2l0.2-0.1l0.2-0.1l0.2-0.1l0.2-0.1h0.1h0.1l0.1-0.1h0.1v-0.1l0.1-0.1
			h0.2l0.1-0.1l0.2-0.2v-0.2l0.1-0.1l0.2-0.1h0.1l0.1,0.1l0.1,0.1v0.1V65l0.1,0.1l0.1,0.1l0.2,0.2l0.1,0.2l0.1,0.1l0.1,0.1l0.2,0.2
			l0.1,0.1l0.1,0.2l0.1,0.1l0.1,0.1l0.1,0.1h0.1h0.1l0.1-0.1h0.1h0.1l0.2,0.1l0.1,0.1L52.3,65.9z"/>
	</g>
	<g>
		<path d="M55.4,70.1L55.4,70.1v0.3l-0.1,0.1l-0.2,0.1L55,70.7v0.2v0V71v0.1l0.1,0.2l0.1,0.3l0.1,0.1l0.1,0.1l0.2,0.3l0.3,0.3v0.1
			l0.2,0.2v0.2V73L56,73.1l-0.1,0.1h-0.1h-0.1h-0.1l-0.2,0.1l-0.2,0.2l-0.1,0.1L55,73.5l-0.3,0.3h-0.1h-0.1V74h-0.2v0.2l-0.1,0.1
			L54,74.5l0,0v0.1l-0.1,0.1l-0.2,0.2l-0.1,0.2l-0.3,0.2l-0.3,0l-0.3,0.4v0.1l-0.1,0.1l-0.2,0.3v0.1v0.1l0.1,0.1v0.1v0.1l-0.1,0.1
			l-0.1,0.1h-0.1h-0.1L52,76.8l-0.4-0.1h-0.1h-0.1h-0.1l-0.4-0.2h-0.2h-0.1h-0.2l-0.2-0.1H50l-0.2-0.1l0.2-0.1V76h-0.1l-0.1-0.2
			v-0.2l0.1-0.1l0.2-0.2h0.1h0.2l0.1-0.1l0.1-0.1V75v-0.1l-0.1-0.3l-0.1-0.1l-0.1-0.1h-0.2l-0.2,0.1l-0.1-0.1l-0.1,0.1l-0.1,0.1
			l-0.1,0.1l-0.1,0.1l0,0.2l-0.2,0.1l-0.1,0.1L49,75.3l-0.2,0.2v0.1l-0.1,0.1L48.4,76v0.2l-0.1,0.1v0.2v0.2v0.2L48.2,77l-0.1,0
			l-0.2-0.1h-0.1l-0.2-0.1l-0.1-0.1l-0.1-0.2l-0.1-0.1v-0.2V76v-0.1V76l0.1-0.4l-0.1-0.2h-0.1L47,75.5h0l-0.4,0.2h-0.3h-0.1h-0.1H46
			h-0.1l-0.2-0.2h-0.1l-0.1-0.2v-0.1l-0.1-0.1V75v-0.2l0.2-0.2l0.2-0.1H46h0.1h0.1h0.2l0.2,0.1h0.2l0.2-0.1l0.3-0.2l0.2-0.1l0.3-0.2
			l0.2,0l0.3-0.2l0.1-0.1l0.1-0.1h0.1l0.1-0.1l0.2-0.1l0.1-0.1l0.1-0.1H49l0.1-0.1l0.2-0.2l0.1-0.1l0.2-0.2l0.1-0.1l0.1-0.1l0.1-0.1
			H50l0.2-0.2l0.1-0.1l0.2-0.2l0.1-0.1l0.1,0.1v-0.1l0.1-0.2l0.2-0.1h0h0.1l0.2-0.2l0.1-0.1l0.2-0.2h0.1l0.1-0.1l0.1-0.1l0.1-0.1
			l0.2-0.2l0.2-0.2l0.1-0.1l0.2-0.2l0.2-0.2v-0.1v-0.1v-0.1v-0.2L53,69l0.1-0.1h0.2h0.1l0.2,0.2l0.2,0.2l0.2,0.2l0.3,0.1l0.2,0.1
			h0.1h0.2h0.1l0.2,0.1h0.2l0.2,0.1h0.1l0.1,0.1l0.1,0.1L55.4,70.1z M54.6,71.6L54.6,71.6l-0.2-0.2l-0.1-0.1h-0.1l-0.1-0.1H54l0,0
			l-0.1-0.1L53.8,71h-0.1l0,0l-0.1-0.1l-0.1,0.2h-0.1l-0.6,0.7l-0.2,0.1L52.5,72v0.1l-0.1,0.1h-0.1l-0.1,0.1v0.1l-0.1,0.1L52,72.6v0
			v0.1l0,0l-0.1,0.1l-0.1,0.1l-0.5,0.5l-0.1,0.1L51,73.6l-0.2,0.1l-0.1,0.1h-0.1h-0.1V74l0.2,0.2l0.1,0.1h0.1l0.2,0.1l0.1,0.1
			l0.1,0.1l0.1,0.1l0.1,0.1h0.1l0.1,0.2v0.1V75l0.1,0.1h0.1L52,75l0.1-0.2v-0.1l0.1-0.2l0.1-0.1H52v-0.1l0.1-0.1l0.3-0.2l0,0h0.1
			v-0.2v-0.1l0.2-0.2v-0.1l0.4-0.4l0.2-0.2l0.1-0.1l0.1-0.1l0.1-0.1l0.1-0.1l0.6-0.5l0.2-0.1l0.1-0.1L54.6,71.6L54.6,71.6z"/>
	</g>
	<g>
		<path d="M58.2,72.7L58.2,72.7l0.2,0.2V73l0.1,0.1l0.1,0.2v0.2v0.1v0.1v0.1l0.1,0.2v0v0.2v0.1l0.1,0.1l0.1,0.1l0.1,0.1l0.1,0.2V75
			l0,0l-0.3,0l-0.2,0.1h-0.1h-0.1l-0.2,0.1L58,75.4l0,0v0l-0.2,0.2l-0.2,0.2L57.5,76l-0.1,0.1l-0.1,0.2l-0.1,0.1l-0.1,0.1H57
			l-0.2,0.2l-0.1,0.1V77v0.1V77l-0.2,0.2l-0.2,0.1h-0.2l0.1,0.2l-0.1,0.1L56,77.7l-0.1,0.1l-0.3,0.5l-0.1,0.2v0.1v0.1l0.1,0.1
			l0.1,0.1l0.1,0.1v0.1v0.1l0.2-0.1l-0.1,0.1l-0.2,0.1h-0.2h-0.2h-0.2l-0.2,0.1h-0.1l-0.1,0.1v0.2v0.1l-0.1,0.1L54.5,80h-0.2
			l-0.2-0.2L54,79.5l-0.1-0.1v-0.1l-0.1-0.2v-0.2l-0.1-0.1l-0.1-0.3l-0.1-0.2L53.4,78l-0.1-0.1l-0.1-0.1v-0.1v-0.1v-0.1v-0.1
			l0.2-0.2h0.2h0.2H54l0.1-0.1l0.2-0.1h0.1l0.1-0.1l0.1-0.1l0.2-0.1l0.1-0.2l0.2-0.1l0.2-0.2l0.2-0.2l0.1-0.1l0.1-0.1l0.1-0.1
			l0.1-0.2l0.2-0.2l0.1-0.1v-0.1l0.1-0.2l0.1-0.1l0.1-0.1l0.2-0.2l0.1-0.1v-0.1l0.1-0.2L57,74l0.2-0.2v-0.2v-0.1V74h-0.8l-0.1-0.1
			v-0.1v-0.1l0.1-0.1l0.2-0.2h0.2H57l0,0h0.2h0.2l0.1-0.1h0.1h0.1l0.1-0.1l0.1-0.2l0.1-0.2l0.1-0.1H58L58.2,72.7L58.2,72.7z
			 M60.1,70.8l0.2,0.1l0.1,0.1v0.2v0.1v0.1v0.2v0.2v0.1V72h0.1l0.1,0.2v0.1v0.2v0.2l-0.2,0.2H60l0.1-0.2H60h-0.1l-0.1,0.1h-0.1
			l-0.1,0.1l-0.1,0.2L59.4,73h-0.1l-0.1,0.1L59,73v-0.1l-0.1-0.2l-0.1-0.2v-0.2v-0.2V72v-0.1l0.1-0.1v-0.1l-0.2-0.2v-0.1v-0.1v-0.2
			l0.1-0.2l0.2-0.1h0.2h0.2h0.2l0.2-0.3h0.3V70.8z"/>
	</g>
	<g>
		<path d="M63.6,72.4l0.3,0.2v0.1H64v0.1v0.1V73l-0.1,0.1l-0.1,0.2v0.1h-0.1l-0.2,0.1h-0.1l-0.2,0.1h-0.1L63,73.8L62.9,74v0.2v0.2
			v0.2l0.1,0.2v0.1l0.1,0.1l0.1,0.2V75v0.2v0.1l-0.1,0.1l0.1,0.2v0.1l0.1,0.2l0.1,0.1l0.1,0.1v0.1v0.2l0.1,0.2v0.2V77v0.1l0.1,0.2
			V77v0.1v0.1l0.1,0.2v0.1v0.2v0.1l-0.1,0.1L63.5,78l-0.1,0.1h-0.1L63,78.5v0.2L62.8,79v0.1v0.1l-0.1,0.2v-0.1l-0.2,0.2l-0.1,0.1
			h-0.1l0.1,0.1l-0.1,0.2V80v0.1l-0.1,0.2l-0.1,0.1v0.1v0.1v0.1L61.9,81l0.1-0.2l-0.1,0.1L61.8,81v0.2l-0.2,0.2l-0.1,0.2l-0.1,0.2
			v0.3v0.2l-0.2,0.1h-0.1l-0.2-0.1l-0.2-0.1l-0.2-0.1l0.1-0.1l-0.1-0.1h-0.2l-0.1-0.1h-0.1H60h0h-0.2h-0.1h-0.2h-0.2h-0.1H59l0,0
			v0.5l-0.1,0.1l-0.1,0.1l-0.2,0.1h-0.1h-0.1h-0.1l-0.1-0.1v-0.2l-0.1-0.1L58,82.1l0,0L57.9,82l-0.1-0.2v-0.1l-0.2-0.3v-0.1v-0.1
			l-0.1-0.1L57.4,81l-0.1,0l-0.1-0.1l-0.1-0.2L57,80.6l-0.2-0.1l-0.1-0.1l-0.1-0.2v-0.1v-0.2V80l0.2-0.1l0.1-0.1l0.2-0.1l0.1-0.2
			l0.2-0.5l0.1-0.1l0.1-0.2l0.2-0.2l0.1-0.2v-0.2V78l0.1-0.1l0.1-0.1l0.2-0.2l0.1-0.2l0.2-0.3l0.2-0.4l0.1-0.1l0.2-0.3v-0.1v-0.1V76
			H59v-0.1v-0.1l0.1-0.1v-0.1l0.1-0.2v-0.1l0.1,0.2v-0.2l0.1-0.2l0.2-0.1h0.1l0.1,0.1h0.1l0.2,0.1l0.1,0.1h0.1h0.2l0.1,0.1h0.1h0.1
			H61h0.1H61h0.2h0.2h0.1h0.2l0.1,0.1V76l-0.1,0.1l-0.2,0.2l-0.2,0.2l-0.1,0.1l-0.1,0.1L60.8,77l-0.1,0.1v0.2l-0.1,0.2l-0.1,0.2
			l-0.1,0.2l0,0.1v0.1v0.1l-0.2,0.1l-0.1,0.1v0.1L60,78.7l-0.1,0.2l-0.2,0.2l-0.1,0.1v0.1l-0.2,0.3l-0.1,0.2L59.1,80H59h0h-0.2
			l-0.1,0v0.1l0.1,0.1l0.1,0.1l0.1,0.2l0.1,0.1l0.1,0.1l0.1,0.1l0.1,0.1l0.3,0.3l0.1,0.1h0.1H60h0.1L60,81l0,0l-0.1-0.2v-0.2v-0.1
			v-0.1l0.1-0.1l0.4-0.8l0.1-0.2v-0.1l0.1-0.2l0.2-0.2h0.1l0.1-0.1v-0.1l0.1-0.2l0.1-0.1l0.2-0.2l0.1-0.1l0.2-0.2l0.1-0.1v-0.2
			l0.1-0.1l0.1-0.1l0.2-0.2H62h0.1V77l-0.2,0l-0.2-0.2v-0.1v-0.1l-0.1-0.2v-0.2l-0.1-0.4v-0.1v-0.2v-0.1v-0.2l0.1-0.1L61.5,75
			l0.1-0.2l-0.2-0.1v-0.1v-0.2v-0.2v-0.1L61.3,74l0,0l-0.1-0.1l-0.1-0.1L61,73.7h-0.2h-0.1h-0.1l-0.1-0.1l-0.2-0.2v-0.1l0.2-0.2
			l0.1-0.1h0.1l0.1-0.1H61h0.1l0.2,0.1h0.1h0.2l0.2,0.1h0.1l0.2,0.1l0.2,0.2l0.1,0.1l0.1,0.2v0.1l0.2,0.1l0.1-0.7V73v-0.1l0.2-0.3
			l0.2-0.2l0.1-0.1l0.2-0.2h0.1h0.2h0.1L63.6,72.4z"/>
	</g>
	<g>
		<path d="M67.6,77.6l0.2,0.1l0.1,0.2V78l0.1,0.3l0.1,0.2v0.2l0.1,0.2V79v0.1v0.1v0.2v0.1v0.1l0.1,0.2l0.1,0.2v0.1v0.2v0.2v0.2v0.2
			l0.2,0.2V81l-0.1,0.1l-0.2,0.1l-0.1,0.1l-0.4,0.1l-0.2,0.2h-0.2h-0.1l-0.1,0.1H67h-0.2l-0.2,0.1h-0.1l-0.3,0.1h-0.1L66,81.8l0,0
			L65.7,82l-0.1,0.1v0.1v0.1l-0.2-0.1l-0.2,0.1L65,82.2v0.2l-0.1,0.1l0.1,0l-0.1,0.1l-0.1,0.1l-0.1,0.1V83v0h0.1l0.1,0.1H65l0.2,0.1
			l0.1,0.1l0.2,0.1l0.2,0.1h0.1h0.1l0.2,0.1l0.2,0.1h0.2h0.1l0.1-0.1l0.1-0.1v-0.1v-0.1v-0.1v-0.1v-0.2l0.1-0.2l0.1-0.1l0.1-0.1h0.2
			h0.1H67l0.1,0.1l0.1,0.1l0.1,0.2v0.2l-0.1,0.4l-0.1,0.1v0.2L67,84h-0.1h-0.1l-0.1,0.1l-0.1,0.1l-0.2,0.1l-0.2,0.1l-0.7,0.3
			l-0.1,0.1L65.3,85v0v0.2l-0.1,0.1l-0.1,0.1H65h0l-0.1-0.1l-0.2-0.1l-0.1-0.1l0-0.1l-0.1-0.1l-0.1-0.1l-0.1-0.1l-0.1-0.1L64,84.5
			l-0.2-0.2h-0.1l-0.1-0.1L63.5,84l0.1,0l-0.2-0.2l-0.2-0.2l-0.2,0v-0.1l-0.2-0.1l-0.1-0.1l-0.1-0.2V83l0,0l0.1-0.1l0.1-0.1l0.2-0.1
			l0.2-0.1l0.1-0.1l0.1-0.1l0.1-0.2v-0.1v-0.2v-0.1V82v-0.2h0.1v-0.1l0.1-0.2v-0.1v-0.2l0.1-0.1V81v-0.1l0.1-0.2v-0.1l0.2-0.5V80
			l0.1-0.2l0.1-0.2l0.1-0.2v-0.2l0.1-0.1V79v-0.1l0.1-0.2v-0.2l0.1-0.1v-0.2v-0.1l-0.1-0.2v-0.1v-0.1l0.1-0.2l0.2-0.1h0.2l0.3,0.1
			h0.2h0.1h0.1H66h0.1h0.1h0.1l0.1-0.1l0.1,0.1h0.2l0.1-0.1l0.2-0.1h0l0.3-0.2l0.1-0.1L67.6,77.6L67.6,77.6L67.6,77.6z M66.2,78.8
			L66.2,78.8L66.1,79l0,0v0.1v0.2v0.1v0.1L66,79.7v0.1v0.1v0.2v0v0.2v0.1l-0.1,0.1l-0.1,0.2v0.1v0.1L65.7,81v0l0,0v0.1l-0.1,0.2v0.1
			l0.2-0.2H66l0.1-0.1h0.1h0.1h0.1l0.2-0.2l0.1-0.1v-0.1v-0.2v-0.1v-0.1v-0.2v-0.6l-0.1-0.1l-0.1-0.3V79L66.2,78.8L66.2,78.8z"/>
	</g>
	<g>
		<path d="M70,78.3h0.2h0.1h0.1h0.1h0.1l0.2,0.1l0.2,0.1l0.2,0.1l0.1,0.1l0.2,0.2V79l0.2,0.3l0.1,0.1l0.1,0.1H72h0.2l0.2-0.1
			l0.2-0.2l0.1-0.2v0v-0.1l0.1-0.1l0.2-0.2l0.1-0.1h0.1h0.1l0.2,0.1H73l0.1,0.1l0.1,0.1l0.1,0.1l0.1,0.2h0.1l0.2,0.2h0.1l0.1,0.1H74
			l0.2,0.2l0.1,0.2v0.1V80v0.1l-0.3,0l-0.1,0.1l-0.3,0.2l-0.1,0.1l-0.2,0.2l-0.1,0.1L73,81l0,0v0.1v0.1v0.1v0.2l-0.2,0.2h-0.1h-0.1
			h-0.1h-0.2l-0.2-0.1L72,81.4V81v0.1V81l-0.1-0.2v-0.1l0.1-0.2l-0.2-0.1h-0.1h-0.1l-0.1,0.1l-0.1,0.1v0.1v0.1l-0.1,0.4v0.1v0.1v0.1
			v0.2v0.2l0.1,0.2l-0.1,0.1l-0.1,0.1v0.1v0.1v0.1v0.1v0.1l0.1,0.1L71.2,83v0.1l-0.1,0.2l0.1,0.2l-0.1,0.1L71,83.7l-0.1,0.2V84h-0.1
			l0,0v0.1l-0.1,0.1l-0.1,0.2l0.1,0.1h0.1l0.1,0.1H71l0,0l0.2,0.1h0.1l0.1,0.1l0.2,0.1l0.2,0.1l0.2,0.1l0.1,0.2v0.1l-0.2,0.2
			l-0.2,0.1l-0.5,0.1H71h-0.1l-0.1,0.1L70.7,86v0.1V86v0.2v0.1v0.1l-0.2,0.1l-0.2,0.2h-0.2L70,86.4l-0.1-0.1l-0.1-0.1l-0.1-0.1
			L69.6,86h-0.1v-0.2l-0.1-0.1h-0.1h-0.2l-0.2-0.2l-0.2-0.1l-0.1-0.1h-0.1l-0.2-0.1l-0.2-0.1L68,85v0l0.1-0.1l0.2-0.2h0.2l0.1-0.1
			l0.1-0.1l0.1-0.1v-0.2v-0.1V84v-0.2l0.1-0.1v-0.1l0.1-0.3v-0.2v-0.2v-0.2v-0.1l0.1-0.2l0.1-0.2V82l0.1-0.1l0.1-0.1v-0.2v-0.2
			l0.2-0.1l-0.1-0.1v-0.1l0,0v-0.2v-0.1l0.1-0.2v-0.1v-0.2v-0.1l-0.1-0.1L69.4,80l-0.1-0.1h-0.1L69,79.8v0.3L68.9,80v-0.2v-0.1v-0.1
			l0.1-0.1l0.1-0.1l0.2-0.1l0.1-0.1l0.1-0.1l0.1-0.1l0.1-0.1l0.1-0.1l0.1-0.2v-0.2v-0.1v-0.1v-0.1L70,78.3L70,78.3z"/>
	</g>
	<g>
		<path d="M76,75.5h0.3l0.1,0.1h0.1l0.1,0.1l0.1,0.1l0.1,0.2v0.2v0.2v0.2l-0.1,0.1l-0.1,0.1h-0.1L76.3,77v0.1V77l0.1,0.2l0.1,0.2
			l0.1,0.1l0.1,0.1l0.1,0.1l0.1,0.1l0.1,0.1l0,0.1l0.1,0.1l0.1,0.2v0.1v0.1l0.2,0.2l0.1,0.1l0.2,0.1l0.1,0.1H78l0.1,0.1L78,79
			l0.2,0.1l0.1,0.1l0.1,0.1l0.1,0.1l0.2,0.1l0.1,0.1h0.1l0.1,0.1l0.2,0.1l0.1,0.1l0.1,0.2V80v0.1l-0.1,0.2v0.1v0.1L79,81v0.2v0.3
			v0.1v0.1v0.2v-0.1V82v0.2h-0.1l0.1,0.1v0.2l0.1,0.1v0.1v0.2L79,83.1v0.1v0.1l0.1,0.1v0.3v0.1v0.1V84v0.2v0.2v0.2l0.1,0.2l0.2,0.2
			l0.1,0.2l-0.1,0.2h-0.1l-0.2,0.1h-0.2h-0.2h-0.2h-0.2l-0.2,0.1H78h-0.1l-0.3,0.1h-0.1l-0.2,0.1l-0.1,0.1L77.1,86l-0.2,0.1L77,86
			h-0.2l-0.1,0.1l0.1,0.3v0.2v0.1l-0.2,0.2h-0.1h-0.1h-0.1h-0.1h-0.1l-0.2-0.1h-0.1l-0.2-0.1h-0.1l-0.2-0.1l-0.1-0.1l-0.3-0.2h-0.1
			l-0.1-0.1H75l-0.1-0.1L74.7,86v0l-0.2-0.1h-0.1h-0.2h-0.1L74,85.8l0,0l-0.1-0.2v-0.1l0.1-0.2l0.1-0.1l0.2-0.2v-0.2v-0.6V84l-0.1,0
			l0.1-0.2l-0.1-0.2l-0.1-0.2v-0.1v-0.1v-0.1l0.1-0.2v-0.2v-0.4V82v-0.1v-0.3v-0.1v-0.1v-0.1l0.1-0.1v-0.1V81v0l0,0l-0.1-0.2
			L74,80.7h-0.1l-0.1-0.2v-0.2l0.1-0.1l0.1-0.1h0.1h0.1h0.2h0.1h0.1l0.1-0.1h0.1h0.1H75l0.2-0.1h0.1l0.2-0.2l0.2-0.1l0.2-0.1H76h0.2
			l0.1,0.1l0.1,0.1V80v0.2L76,80.4v0.1v0.2v0.6v0.2l0.1,0.2L76,81.6v0.2V82v0.2v0.1v0.1v0.2l-0.1,0.2v0.1v0.2v0.2v0.3v0.2v0.1v0.3
			v0.2l-0.1,0.2l-0.1,0.1l-0.1,0.1l-0.1,0.1l-0.1,0.2V85h0.1h0.1l0.2,0.2l0.1,0.1l0.1,0.1h0.2h0.1l0.5,0.1h0.1H77l0.1-0.1v-0.1v-0.1
			v-0.1l-0.2-0.2l0.2-0.6v-0.1v-0.1V84L77,83.1V83v-0.1v-0.2v-0.2h0.1v-0.1L77,82.3v-0.2V82v-0.3v-0.1l0.1-0.2v-0.1L77,81.1V81l0,0
			l0.1-0.2l0.1-0.1l0.1-0.1v-0.1l-0.2-0.1l-0.2-0.1l-0.1-0.1l-0.1-0.1l-0.2-0.2l-0.1-0.2L76,79.6l-0.1-0.1l-0.1-0.2v-0.1L75.6,79v0
			l-0.2-0.1v-0.2h-0.2v-0.2L75,78.3v0l0,0l-0.2-0.1l-0.1-0.1h-0.1h-0.1h-0.2l-0.2,0.1L74,78.3l-0.1,0.1h-0.2L73.6,78v-0.1v-0.3v-0.1
			h0.1l0.1-0.1l0.2-0.1v-0.1l0.2-0.1h0.1l0.2-0.1h0.2h0.1H75l0.2,0.1l0.1,0.1l0.2,0.1l0.1,0.1h0.2l-0.2-0.6v-0.1v-0.1v-0.3l0.1-0.2
			l0.1-0.1l0.1-0.2l0.1-0.1l0.1-0.1h0.1L76,75.5z"/>
	</g>
	<g>
		<path d="M82.1,78.1l0.2-0.1l0.2,0.1l0.1,0.1l0.2,0.2l0.2,0.2l0.1,0.2l0.2,0.2l0.1,0.2l0.1,0.1v0.1v0.1l0.1,0.1l0.1,0.1l0.2,0.1
			l0.2,0.1l0.1,0.1L84,80l0.1,0.2l0.1,0.1l0.1,0.2l0.2,0.1l0.1,0.2V81l-0.1,0v0.1l-0.3,0.2l-0.4,0.2l-0.2,0.1l-0.1,0.1l-0.1,0.1
			l-0.1,0.1L83.1,82l0,0L83,82.1l-0.2,0.2h-0.1l-0.1,0.1h-0.1v0.3l-0.1,0.2V83v0v0.1l-0.1,0.1h-0.2l0.1,0.2v0.1v0.1v0.2l-0.1,0.1V84
			l0.1,0.2l0.1,0.1h0.1h0.1h0.1h0.2H83h0.2h0.2h0.1h0.1h0.2H84l0.2-0.1l0.1-0.1V84v-0.1v-0.1v-0.1l-0.1-0.1l-0.1-0.1L84,83.3v-0.2
			V83v-0.1l0.2-0.1H84l0,0h0.2h0.1l0.2,0.1l0.1,0.1l0.1,0.4v0.1v0.2v0.2V84h-0.2v0.1v0.1l-0.1,0.2l-0.1,0.2l-0.5,0.7v0.1v0.2
			l0.1,0.1l0.1,0.2V86v-0.1h-0.1L83.6,86h-0.1h-0.2h-0.1H83h-0.1H83h-0.1l-0.2-0.1h-0.2l-0.2-0.1h-0.1L82,85.7l-0.2-0.1h-0.2
			l-0.2-0.1h-0.2L81,85.4l0,0l-0.2,0.1h-0.1l-0.2-0.1l-0.1-0.1v-0.1v-0.1l0.1-0.1l0.2-0.2l0.1-0.2v-0.2v-0.1v-0.2V84l-0.1-0.2V84
			h-0.1l-0.1-0.2l0.1-0.1l-0.1-0.1v-0.2v-0.1l-0.1-0.2l0.1-0.1v-0.1v-0.1l-0.1-0.2v-0.1L80.3,82v-0.1V82l-0.2-0.2v-0.2v-0.1v-0.1
			v-0.1L80,81.4v-0.3L79.9,81v-0.1l-0.1-0.2l-0.1-0.1l-0.2-0.1l-0.1-0.1v-0.1v-0.2l0.1-0.2l0.2-0.1l0.3-0.1l0.2-0.1h0.1h0.1l0.6-0.3
			l0.1-0.1h0.1v-0.1l0.1-0.1h0.1l0.2-0.1l0.1-0.1l0.2-0.2H82l0.2-0.3v-0.1L82.1,78.1L82.1,78.1L82.1,78.1z M81.4,79.7v0.2V80
			l0.1,0.1l0.1,0.1l0.1,0.2v0.1v0.1l0.1,0.3V81l0.1,0.1l0.1,0.2v0.1l0.1,0.2v0.1v0.1V82v0.1v0.1V82v0.1v0.1v0.1v0.2l0.1,0.1l0.2-0.3
			l0.2-0.1V82h0.1l0.1-0.1l0.1-0.1l0.1-0.2v-0.1l-0.1-0.1l-0.1-0.3L82.5,81h-0.1l-0.2-0.2l-0.3-0.5h-0.1l-0.1-0.2l0-0.1L81.4,79.7
			L81.4,79.7z"/>
	</g>
	<g>
		<path d="M86.2,76.6L86.2,76.6h0.3h0.1h0.1H87l0,0h0.2h0.1h0.2l0.5,0.1l0.2-0.1l0.2-0.2l0.2-0.2l0.2-0.1h0.1H89l0.2,0.1l0.1,0.2
			v0.1L89,76.8L88.8,77l-0.1,0.1l-0.1,0.1l-0.1,0.2l-0.1,0.2l-0.1,0.1v0.1v0.1V78l0.1,0.1l0.1,0.1v0.2v0.1l-0.1,0.1l-0.2,0.1h-0.1
			h-0.3l-0.1-0.1h-0.1h-0.1l-0.4-0.1L87,78.3h-0.2h-0.2l-0.1-0.1h-0.1l-0.2-0.1l0.2,0.2l0.1,0.2v0.1l0.1,0.2v0.1V79l0.1,0.2v0.1
			l0.1,0.2l0.1,0.1l0.2,0.1h0.1h0.1h0.1l0.1-0.1h0.2h0.1l0.3-0.1l0.1-0.1h0.2h0.2h0.2h0.1H89h0h0.2l0.2,0.2l0.2,0.2v0.1l0.1,0.1v0.2
			l0.1,0.2v0.1l0.1,0.2v0.2L90,81v0.1l0.1,0.2V81l0,0v0.1l0.1,0.2l0.1,0.1l0.1,0.2l0.1,0.1h0.2l0.1,0.1v0.1V82l-0.1,0.2h-0.1
			l-0.2,0.1l0.1,0.1l-0.1,0.1l-0.4,0l-0.2,0.2l-0.1,0.2h-0.2V83l-0.1,0.1l-0.2,0.2l-0.1,0.1L89,83.6l0.2,0.2v0.1V84l-0.1,0.2
			L89,84.4h0l-0.1,0.1h-0.4l-0.2-0.1h-0.2H88h-0.2h-0.1l-0.2-0.1h-0.1h-0.1h-0.1H87l0,0l-0.2,0.1l-0.2,0.1v0.2v0.1l0.1,0.2l0.1,0.1
			h0.1H87h0.1l0.1-0.1v-0.1l0.2-0.1h0.2l0.1,0.1h0.1h0.1l0.1,0.2v0.1V85v0.2l-0.1,0.2l-0.2,0.2l-0.1,0.1l-0.2,0.1h-0.1h-0.1H87l0,0
			h-0.2l-0.2-0.2h-0.1l-0.1-0.1l-0.2-0.2v-0.1L86.1,85L86,84.9v-0.1v-0.2v-0.2v-0.1v-0.1V84l0,0l0.1-0.1l0.1-0.2l0.2-0.2l0.1-0.2
			v-0.1V83v-0.2v-0.1l-0.1-0.1v-0.2l0.1-0.2l0.2-0.1L87,82l0,0h0.2h0.2l0.2,0.1h0.1h0.2L88,82l0.2,0.1l0.4,0.1h0.2l0.2-0.1l0.1,0.2
			v-0.1v-0.1L88.8,82l-0.2-0.2v-0.1l-0.1-0.1l-0.1-0.3L88.3,81h-0.1H88h-0.1h-0.1h-0.1h-0.2h-0.2L87,81.1l0,0h-0.2h-0.3h-0.1h-0.1
			H86V81l-0.2-0.2l-0.1-0.1l-0.2-0.2l-0.1-0.2l-0.1-0.2l-0.1-0.2v-0.2v-0.1v-0.1l-0.1-0.1v-0.1L85,79.5v-0.1v-0.2l-0.1-0.1L84.8,79
			l-0.2-0.1l-0.1-0.1l-0.1-0.2v-0.1l0.1-0.1l0.1-0.1h0.1h0.1l0.2-0.1l0,0l0.2-0.2h0.2l0.1-0.1l0.1-0.1l0.2-0.1l0.1-0.1l0.2-0.1
			l0.1-0.1h0.1l0.1-0.1v-0.1v-0.1l-0.1-0.2v-0.1v-0.1l0.1-0.2l0.1-0.1L86.2,76.6z"/>
	</g>
	<g>
		<path d="M88.3,72.6l0.2-0.1h0.1h0.2h0.1H89h0.2l0.2,0.1l0.1,0.1h0.1h0.1h0.2H90l0.2,0.1l0.2,0.1l0.1,0.2l-0.2,0.3H90v0.1v0.1v0.1
			v0.1v0.1l0.2,0.2v0.1v0.1v0.2l-0.1,0.2l-0.2,0.1h-0.2h-0.1h-0.2l-0.2-0.1l-0.1-0.1H89v-0.1l-0.1-0.1l-0.2,0.1h-0.1h-0.1l-0.2-0.1
			l-0.2-0.2V74l0.1-0.2l0.2-0.2l0.1-0.2L88.3,73v-0.2V72.6z M89.5,75.2l0.2-0.1l0.1-0.1h0.1H90h0.2l0.2,0.1h0.1h0.1h0.1h0.2h0.2
			l0.2,0.1h0.2h0.1l0.2-0.1h0.1h0.2l0.2,0.1l0,0v0.2v0.2l-0.1,0.1L92,75.9V76l0.1,0.2l0,0l0.1,0.1l0.1,0.2l0.2,0.3l0.1,0.2l0.1,0.1
			l0.1,0.2l0.1,0.1l0.1,0.2v0.1l0.1,0.2l0.1,0.1l0.2,0.1h0.1l0.1,0.1l0.1,0.2l0.1,0.2l-0.1,0.2h0.2l0.1,0.1l0.1,0.1l0.1,0.1l0.3,0.5
			l0.2,0.2l0.1,0.1h0.1h0.2h0.1h0.1h0.1h0.1V80v0.1V80l-0.1,0.2l-0.1,0.2l-0.1,0.2v0.3V81l0,0l0.1,0.1l0.1,0.1l0.1,0.1v0.1l-0.1,0.2
			l-0.2,0.1H95h-1h-0.1h-0.2l-0.1-0.1h-0.1l-0.3-0.1H93l-0.2,0.1h-0.1h-0.1h-0.1l-0.1,0.1h-0.1l-0.1-0.1l-0.1-0.2l0.1-0.2l0.1-0.2
			v-0.2v-0.1v-0.2v-0.1v-0.1l-0.1-0.1L92.1,80l-0.2-0.2l-0.1-0.2l-0.2-0.2l-0.1-0.2L91.4,79v-0.1v-0.1l0,0.2l-0.2-0.2l-0.1-0.2
			L91,78.5l0-0.1v-0.1v-0.1L90.8,78l-0.1-0.2l-0.1-0.1l-0.2-0.2v-0.1l-0.2-0.2L90,77l-0.1-0.1H90L89.9,77h-0.1h-0.1h-0.1l-0.1-0.1
			l0,0.1v-0.2v-0.2v-0.1l0.1-0.2v-0.2V76v-0.1V76v-0.1l-0.1-0.2l-0.2-0.2v-0.1v-0.1L89.5,75.2L89.5,75.2z"/>
	</g>
	<g>
		<path d="M93.6,72.2L93.6,72.2l0.3-0.2H94h0.7h0.1h0.1H95h0.1h0.1l0.1-0.1l0.1-0.1h0.2l0.2-0.1l0.1-0.1l0.1-0.1h0.2h0.1l0,0
			l0.1,0.3V72v0.1l0.1,0.2l0.1,0.2l0.2,0.2l0.1,0.2L97,73l0.1,0.1l0.2,0.2l0.1,0.1l0.1,0.2l0.2,0.2v0.1l0.1,0.1h0.1l0.2,0.2V74
			l0.1,0.1l0.2,0.1v0.1l0.1,0.2l0.1,0.2l0.1,0.1l0.2,0.2l0.1,0.2l0.2,0.1l0.2,0.2h0.1l0.2,0.2h0.2l0.4,0.1l0.4,0.1H100l0.2,0.2
			l0.1,0.1l0.1,0.1l0.1,0.2l0.1,0.1l0.1,0.1l0.2,0.2h-0.1V77l0.2,0.6v0.2V78l-0.1,0.1v0.1v0.2l-0.1,0.2V78l0,0l-0.2,0.2l-0.2,0.2
			l-0.1,0.1v0.1l-0.2,0.2v0.1H100V79l-0.1,0.1l-0.1,0.1l-0.1,0.2l-0.1,0.1l-0.1,0.1v0.1v0.1l0.1,0.2l0.2,0.1L100,80l0.1,0.2v0.2
			l-0.1,0.1l-0.1,0.2l-0.1,0.1l-0.2,0.1L99.4,81l-0.1,0H99h-0.2h-0.1h-0.2h-0.2h-0.1H98h-0.2h-0.1h-0.2h-0.2h-0.1h-0.1H97h-0.1H97
			h-0.1h-0.1l-0.1,0.1h-0.1l0.2,0.4l-0.1,0.1l-0.2,0.1l-0.1,0.2v0.2l0.1,0.1h0.1l0.1-0.1l0.1-0.1v0v-0.1l0.1-0.1l0.2-0.1h0.1h0.2
			l0.1,0.1l0.1,0.1l0.1,0.1v0.1v0.1v0.1v0.1l-0.1,0.1l-0.1,0.1l-0.2,0.2L97,83h-0.1h-0.1h-0.2L96,82.7l0.1-0.2L96,82.6l-0.2-0.2
			l-0.1-0.1v-0.1l0-0.2v-0.1v-0.2v-0.2v-0.2l0.1-0.2l0.1-0.1l0.1-0.2l0.1-0.1l0.2-0.2l0.1-0.1l0.2-0.1l0.1-0.1l0.2-0.1l0.1-0.2
			L96.7,80v-0.2v-0.1v-0.1l0.1-0.1l0.1-0.1l0.1-0.1l0.1-0.1l0.2-0.1h0.1l0.1-0.1l0.1-0.1h0.1h0.2H98h0.1h0.1H98h0.2l0.1-0.1h0.3h0.2
			h0.1H99l0.1-0.1l0.2-0.1l0.1-0.1l0.1-0.1l0.2-0.2l0.2-0.3l0.1-0.1V78v-0.1v-0.1v-0.2l-0.1-0.2l-0.1-0.2h-0.1h-0.1v-0.1V77
			l-0.1-0.1L99,76.7h-0.2h-0.1h-0.1h-0.1h-0.1l-0.3,0.1L98,76.9V77l0.2,0.5v0.1L98,77.8V78l0,0l0.1,0.2h0.1l0.2,0.1l0.1,0.1l0.1,0.1
			l-0.1,0.2l-0.2,0.2h-0.1l-0.2,0h-0.3h-0.2h-0.2h-0.2l0,0.1h-0.2h-0.1h-0.1h-0.1l-0.2,0.1l-0.1,0.1h-0.2H96l-0.1-0.1h-0.1l-0.1-0.2
			v-0.2v-0.1l-0.1-0.1l-0.1-0.2l0,0l-0.1-0.1l-0.1-0.1L95.2,78v0L95,77.8h-0.1l0.1-0.1l-0.1-0.1v-0.1v-0.1v-0.1l-0.2-0.2V77l0,0
			l-0.1-0.1l-0.1-0.1l-0.1-0.1v-0.1l-0.1-0.1l-0.2,0.1L94,76.5v-0.1l0,0l0,0v-0.1l-0.2-0.2L93.7,76l-0.2-0.2l-0.1-0.1l-0.1-0.1
			l-0.1-0.1L93,75.3l-0.2-0.2h-0.1h-0.2L92.4,75l-0.1-0.2v-0.2l0.1-0.1v-0.1l0.1-0.1v-0.1l0.1-0.1l0.1-0.1h0.1l0.1-0.1l0.2-0.2V74
			l0.1-0.1l0.1-0.1l0.1-0.2v-0.1v-0.1l0.1-0.1h0.1l0.1-0.1L93.6,73v-0.1v-0.2v-0.1v-0.1v-0.1L93.6,72.2
			C93.6,72.2,93.6,72.2,93.6,72.2z M94,73.7L94,73.7v0.2V74l0,0l0.2,0.1l0.1,0.1l0.1,0.1l0.2,0.1l0.1,0.2l0.2,0.2l0.1,0.1l0.2,0.2
			H95l0.1,0.1l0.2,0.2l0.1,0.1l0.2,0.1l0.1,0.1l0.1,0.2l0.2-0.1l0.1,0.2l0.1,0.1l0.1,0.2l0.2,0.2l0.1,0.1v0.1l0.1,0.1l0.1,0.2v0.1
			l0.2,0.2v0.3l0.2-0.1L97,77l0.1-0.1l0.1-0.1l0.2-0.1l0.2-0.1l0.1-0.1h0.1l0.1-0.1l0.1-0.1l0.1-0.1V76L98,75.9l-0.2-0.1L97.5,76
			l-0.1-0.1l-0.1-0.1L97.2,76l-0.3-0.4l-0.1-0.1l-0.1-0.1l-0.1-0.1v-0.2L96.5,75l-0.2-0.1l-0.2-0.2L96,74.5l-0.1-0.2l0.1,0.1
			l-0.2-0.1l-0.1-0.2h-0.2h0.1V74v0l-0.2-0.5l-0.1-0.2v-0.1l-0.2,0.1L95,73.5h-0.2h-0.1h-0.2h-0.1h-0.2h-0.1H94L94,73.7z"/>
	</g>
	<g>
		<path d="M97.5,68.3l0.2-0.2l0.2-0.2H98l0.1-0.1l0.1-0.1h0.2l0.1-0.1h0.1h0.2H99l0.2-0.1l0.2-0.2l0.3-0.3l0.1-0.1h0.1l0.2-0.1
			L100,67l0.2,0.1l0.1,0.2l0.2,0.2l0.1,0.2l0.1,0.1l0.1,0.1L101,68l0.1,0.1l0.2,0.2l0.1,0.1l0.2,0.2l0.1,0.1l0.2,0.2h0.1l0.1,0.1
			h0.1h0.1h0.1l0.2,0.2h0.1l0.2,0.2l0.3,0.2l0.2,0.1l0.1,0.1l0.2,0.1h0.1l0.1,0.1l0.1,0.1l0.1,0.1l0.2,0.1h0.1h0.2H104h0.1l0.4-0.2
			l0.2,0.1l0.1,0.1v0.2v0.2v0.2V71l-0.6,0.4l0.1,0.2l0.1,0.2l0.1,0.1h0.1l0.1,0.1h0.1l0.2,0.1l0.1,0.1v0.2l-0.1,0.2l-0.1,0.2
			l-0.1,0.1l-0.2,0.1l-0.1,0.1h-0.1h-0.2h-0.1h-0.2l-0.2,0.1V73h-0.2h-0.1h-0.1h-0.1l-0.1,0.1H103l-0.2,0.2h-0.2l-0.1-0.1V73v-0.1
			l0.1-0.9l-0.1-0.1l-0.1-0.2l-0.1-0.1h-0.1h-0.1l-0.1-0.1l0,0l-0.2-0.2l-0.2-0.2h-0.1l-0.2-0.1h-0.1h-0.1v-0.1H101v-0.1v-0.1
			l-0.1-0.1v-0.1l-0.1,0.1l-0.2-0.2l-0.1-0.1l-0.1-0.1l-0.1-0.1l-0.1-0.1l0,0l0,0l-0.1-0.1l-0.2-0.2l-0.1-0.1l-0.1-0.1l-0.2-0.2
			l-0.1-0.1v-0.1l-0.2,0.1L99,69.3h0h-0.2h-0.1v0.1l-0.2,0.1l-0.2,0.1l-0.2,0.1L98,69.8v0.1l0.1,0.1h0.1h0.2h0.1l0.1,0.1l0.1,0.1
			l0.2,0.1l0.3,0.2l0,0h0.1l0.1,0.1l0.1,0.1l0.2,0.2l0.1,0.1v0.1V71h0.1h0.1l0.2,0.2l0.2,0.1l0.1,0.1l0.1,0.1l0.1,0.1l0.1,0.1h0.1
			l0.1,0.1v0.1l0.2,0.2l0.1,0.1l0.2,0.2l0.2,0.2l0.1,0.2v0.1l0.1,0.1l0.1,0.1h0.1l0.1-0.1l0.2-0.1l0.1-0.1l0.1-0.1l0.2-0.1l0.2,0.2
			l0.1,0.1V73l0.1,0.2v0.3v0.1v0.1l0.1,0.2v0.2h0.2h0.1h0.1l0.2,0.2v0.2l-0.2,0.2l-0.1,0.1l-0.2,0.1h-0.1h-0.2l-0.2,0.1h-0.2h-0.2
			h-0.1l-0.1,0.1h-0.2l-0.1,0.1l-0.1,0.1l-0.2,0.1h-0.1h-0.1H101l0,0l-0.2-0.1l-0.1-0.1V75v-0.1l-0.2-0.3l0-0.6l-0.1-0.1l-0.2-0.2
			v-0.1l-0.1-0.1H100l0,0l-0.1-0.1h-0.1v-0.1h-0.2l-0.2-0.1L99.3,73l-0.2-0.2L99,72.7l-0.1-0.1l0.1,0h-0.1l-0.1-0.1l-0.3-0.2
			l-0.2-0.2h-0.1L98.1,72l0,0H98l0,0h-0.1v-0.1v-0.1l-0.1-0.1l-0.1-0.1l-0.2-0.1l-0.2,0.2l-0.1,0.1L96.9,72l-0.2-0.1l-0.1-0.2v-0.2
			v-0.1v-0.2V71v-0.2v-0.2h-0.1v-0.1v-0.1l-0.2,0.1h-0.1h-0.1l-0.2-0.1l0.1,0.1l-0.1-0.2v-0.1H96l0.2-0.2h0.1l0.1-0.1l0.1-0.1
			l0.2-0.2l0.1-0.1l0.2-0.1h0h0.2h0.2h0.1h0.2l0.1-0.1l0.1-0.2V69l-0.1-0.2v-0.1l-0.2-0.1v-0.2L97.5,68.3L97.5,68.3z"/>
	</g>
	<g>
		<path d="M104.4,67.7L104.4,67.7l0.1-0.2l0.2-0.1h0.1h0.2h0.2l0.1-0.1h0.1h0.1h0.2l0.2-0.1h0.1l0.1-0.1H106h0.2l0.1,0.1l0.1,0.2
			v0.2l0.1,0.2V68v0.1l0.1,0.1h0.1l0.1,0.1l0.1,0.1l0.1,0.2v0.2v0.1l-0.1,0.1l-0.2,0l-0.4,0.2h-0.2l-0.3,0.2l-0.1,0.1h-0.2l-0.1,0.1
			h-0.2l-0.2-0.1l0-0.2v-0.1l-0.1-0.2l0,0v-0.2v-0.2l-0.1-0.2l-0.2-0.2v-0.1V68l-0.1,0v-0.1L104.4,67.7z"/>
	</g>
	<g>
		<path d="M98.6,61l0.1-0.2v-0.1l0.2-0.1H99v-0.1l0.2-0.1l0.2-0.1h0.1h0.1v-0.1l0.2-0.1l0.1-0.1l0.2-0.1l0.2-0.1l0.2,0.2l0.1,0.4
			l-0.2,0.1v0.1h0.1h0.1v0.1l0.1,0.1l0.2,0.1L101,61v0.1l0.1,0.1v0.2l-0.1,0.2l-0.2,0.1l-0.1,0.1l-0.2,0.1h-0.2h-0.1l0.1,0.2h-0.1
			h-0.1l-0.2,0.2h-0.1l-0.1,0.1l-0.2,0.1l-0.2-0.1l-0.2-0.2L99,62v-0.2v-0.2l-0.3-0.2l-0.2-0.1V61H98.6z M101,62.4l0.1-0.2l0.1-0.1
			h0.1V62l0.1-0.1l0.2-0.1l0.1-0.1l0.1-0.1h0.1l0.2-0.2l0.2-0.1l0.2-0.1l0.1-0.1l0.1-0.1l0.1-0.2l0.1-0.1l0.1-0.1l0.2-0.1l0,0
			L103,61l0.2,0.2v0.1v0.1l0.1,0.1l0.2,0.2l0,0h0.1l0.2,0.1l0.3,0.2l0.2,0.1h0.1l0.2,0.1l0.1,0.1l0.2,0.1v0.1l0.2,0.2H105h0.2
			l0.1-0.1h0.2l0.2,0.1l0.2,0.1V63l0.2-0.1l0.1,0.1l0.1,0.1h0.1l0.6,0.2l0.2,0.1H107h0.1l0.1-0.1l0.1-0.1l0.1-0.1l0.1-0.1h0.1
			l0.1,0.1l0.1,0.1l0.2,0.2v0.2l0.1,0.2l0.1,0.2l0.2,0.2l0.1,0.1l0.1,0.1h0.2h0.1l0.1,0.1l0.1,0.1l0.1,0.2L109,65v0.2l-0.1,0.1
			l-0.1,0.1l-0.5-0.4l-0.3,0.1v0.1l-0.2,0.1l-0.2,0.2l-0.2,0.2l-0.1,0.1l-0.1,0.1l-0.1,0.1H107h-0.1h-0.1l-0.2-0.1v-0.2l-0.1-0.2
			l-0.1-0.2v-0.1l-0.2-0.2h0.1l-0.1-0.1h-0.1l-0.2-0.1h-0.2l-0.2-0.1l-0.2-0.1l-0.2-0.1H105v-0.2h-0.2l-0.2-0.1l-0.2-0.1l-0.2-0.1
			h-0.1h-0.2l0.1,0.1l-0.1-0.1l-0.2-0.1l-0.2-0.1h-0.1h-0.2l-0.1-0.1l-0.1-0.1h-0.2h-0.1h-0.1l-0.1,0.1l-0.1,0.1h-0.1h-0.1H102
			l0-0.1v-0.1l-0.1-0.2v-0.1l-0.1-0.2V63h-0.1l-0.1-0.1v-0.1h-0.1l-0.2-0.1h-0.2H101v-0.1V62.4L101,62.4z"/>
	</g>
	<g>
		<path d="M100.3,57.1l0.1-0.2v-0.1l0.3-0.2h0.3l0.2,0.2V57l0.2,0.4l0.2,0.2h0.2h0.1l0.1,0.1h0.1l0.2,0.1l0.5,0.2h0.1h0.1h0.2
			l0.1-0.2l0.1-0.2v-0.2v-0.2h-0.2L103,57l-0.2-0.2l-0.1-0.2v-0.2l0.1-0.2l0.2-0.1V56h0.2h0.1l0.2,0.1l0.1,0.1l0.1,0.1l0.1,0.1
			l0.2,0.2l0.1,0.1v0.1v0.1l0.1,0.2l0.2,0.1h0.1l0.2-0.1h0.2h0.1l0.1,0.1v0.1v0.2v0.1v0.1l-0.1,0.1l-0.2,0.1l-0.2,0.1l-0.1,0.2V58
			v0.2l0.1,0.1l0.2,0.1h0.1l0.1,0.1l0.7,0.1h0.2h0.2h0.1h0.2h0.1H106h0.1l0.3,0.1v0.1h0.1l0.5,0.1h0.1l0.7,0.2h0.1h0.1l0-0.1
			l0.1,0.2l0.1,0.1v0.1h0.1l0.1-0.1h0.1v-0.1l0.2-0.2l0.1-0.3l0.2-0.2v-0.1v-0.1v-0.1v-0.1l0.1-0.2l0.2-0.1l0.2,0.1l0.1,0.1l0.2,0.2
			l0.1,0.2l0.1,0.1v0.1l0.2,0.2l0.1,0.1l0.1,0.1h0.2l0.2-0.1h0.1h0.2l0.2,0.2v0.2v0.1v0.1l-0.1,0.2l-0.1,0.1l-0.2,0.7l-0.1,0.1
			l-0.1,0.1l-0.2,0.1h-0.1l-0.2,0.2l-0.1,0.2l-0.2,0.2h-0.1l-0.1,0.1l-0.5-0.5l-0.1,0.1l-0.1,0.1l-0.2,0.2v0.1l-0.1,0.1v0.1
			l-0.1,0.1l-0.5,0.1l-0.1-0.2v-0.1h-0.1h-0.1l-0.1-0.1l-0.2-0.1l0.1-0.2h-0.2l-0.1-0.1h-0.1l-0.3-0.1h-0.1v-0.1h-0.1h-0.2h-0.2
			l-0.1-0.1H106l0,0l-0.2-0.1h-0.1h-0.1l-0.2-0.2h-0.2l0.1-0.1h-0.1l-0.1,0.1l-0.4-0.2h-0.2h-0.1l-0.1-0.1h-0.2l-0.2-0.1h-0.2
			l-0.1-0.1h-0.2l-0.1,0.2l-0.1,0.3v0.2l-0.2,0.1h-0.1h-0.1h0.2l-0.1-0.1h-0.1h-0.1l-0.2-0.1l-0.1-0.1v-0.1l0.1-0.2l0.1-0.1v-0.2V60
			l-0.3-0.1h-0.2H102h0h-0.2h-0.3h-0.2l-0.2-0.3l-0.1,0h-0.2l-0.2-0.1v-0.2l0.1-0.2V59l0.2-0.2l0.2-0.1l0.2-0.2l0.1-0.1l0.2-0.1
			h-0.2v0.2l-0.4-0.3l-0.2-0.2h-0.1l-0.2-0.2l-0.1-0.2v-0.2v-0.1L100.3,57.1L100.3,57.1L100.3,57.1z"/>
	</g>
</g>
<path d="M73,17.8c0,0,1.8,4.2,3.5,7.5c0,0,0.4,1.1,0.2,2.2c0,0,1.5,1.6,1.9,3.2c0,0-0.3-4.6-2-7.6c-1.6-3.1-2.4-5.7-2.4-5.7
	s-7.2-1.1-8.6-1.3l0.8,0.7C66.5,16.9,70.8,17.2,73,17.8 M105.6,39.3c-1.6-1.2-2-0.7-3.8-0.7c-2,0.1-8.1,0.7-9.4,0.6
	c-1.4-0.1-2.2-0.2-3.2,0.4c-1,0.7-3.3,2.5-4.3,3.9c-1,1.3-2.6,2.2-3.3,2.5c-0.5,0.2-1.5,0.2-2,0.1c0-0.1,0-0.1,0-0.2
	c0-0.2,0-0.5,0-0.7c0.5-0.2,1.4-0.6,2.4-1.4c1.7-1.4,4.9-6.4,5.5-6.5c0.5-0.1,1.7-0.6,2.7-1.5s2.6-2.5,2-2.9s-2.6-0.9-3.3-1.3
	l-0.3,0.2c0,0,1.5,0.8,2.2,1.1c0,0,0,0.4-0.2,0.8c-0.2,0.3-2.4,2.7-2.4,2.7s-1.1-0.2-2,1s-4.2,5-6.7,6.8c-0.1-0.2-0.2-0.5-0.2-0.7
	c0.4-0.7,1.2-2.4,1.6-4.9c0.6-3.3,0.9-4.2,0.9-4.2s1.2-0.2,1.3-0.4l-0.2-0.6c0,0-1.5,0.2-1.9,0.7c-0.3,0.5-0.6,1.3-0.8,2.1
	c-0.2,0.7-0.5,4.2-1.9,6.3c-0.8-0.7-1.6-0.5-1.6-0.5s2.3-3.8,2.3-7.2c-0.2-7.7-6.3-11.3-11.2-10.6c-4.9,1.1-8.8,5.5-8.8,11
	c0.7,4.6,3.3,6.4,3.3,6.4l2.3,1.6c-1.4-0.5-3.6-1.3-6.6-2.4c-2.5-1.4-5.5-3.4-8.8-6.4c-1.2-1.5-2.3-2.4-3-5.8H46
	c0,0,0.1,3.4,3.2,6.4c0,0-0.4,2,9.7,7.7c1.8,1,3.9,1.5,6.3,2.8c0,0-0.2,0.8-0.5,1.1c-0.2,0.3-2,1.1-3.3,3.3c0,0-2,3.3-2.8,3.7
	l0.1,0.3l0.7-0.3c0,0,2-3.1,2.4-3.6c0,0,0.8-0.5,2.4-1.5c1.6-1,2.4-2.2,2.4-2.2l1.3-0.2l0.1,0.1c1.1,1.5,3,2.5,4.5,3.1
	c-1.3,0.3-4,1-4.7,1.1c-1.1,0.4-1.4,0.8-1.9,1.4c-0.5,0.7-1.5,2-3,2.8s-2.5,1.2-4.1,2.6c-1.5,1.4-2.6,2.4-7.6,3.1l0.1,0.3
	c0,0,2.9-0.4,5.1-1.1c2.2-0.7,5.9-2.8,7.5-4.1c1.6-1.4,3.7-3.5,3.7-3.5s3.5-0.2,7-1.9c0,0,0.1,0.1,0.1,0.2c0.1,2,0.1,5.5-0.3,7.7
	c-0.3,2.1-0.3,3.3-0.1,5c0.3,1.8-0.2,9.1,0,11c0.1,0.7,0.2,1.5,0.2,2.2l0.2,0.6l0.2,0.2H75c0.2-2-0.2-4.7-0.2-6.8
	c-0.2-2.3,0.6-7.7,0.5-8.1c-0.1-0.4,0.2-3.1,0.5-4.6c0.2-1,0.6-3.7,0.7-5.8c0.3,0.1,0.7,0.1,1,0.1c0.2,0.6,0.4,1.6,0.5,1.8
	c0.1,0.3-0.7,2.1-0.7,2.1l0.1,0.3c0,0,1-1.9,1.1-2.4c0,0-0.2-1.1-0.4-1.9c0.2-0.1,0.4-0.2,0.7-0.2c0.7-0.5,1.1-1,1.3-1.5l0.5,0.3
	c0,0-0.6,1.1-0.7,1.4l0.2,0.2c0,0,0.8-1.5,1.1-1.8c0.2-0.2-0.4-0.5-0.7-0.7c0.1-0.4,0-0.9-0.1-1.3c0.5-0.1,1.2-0.2,2.4-0.3
	c2-0.9,7.6-6.8,7.6-6.8c3.2,0.2,8.7-0.5,10.8-0.8c2,0,3.8,0,4.2-0.1c1.5,0.4,4.5,3.3,4.5,3.3l0.3-0.1
	C109.9,43,107.3,40.5,105.6,39.3"/>
<g>
	<path d="M102.6,53.4c0.1-0.3,0.2-0.6,0.4-0.8c0.2-0.2,0.5-0.4,0.8-0.5s0.7-0.1,0.9,0c0.3,0.1,0.6,0.2,0.8,0.5
		c0.2,0.2,0.4,0.5,0.5,0.8s0.1,0.7,0,0.9c-0.1,0.3-0.2,0.6-0.5,0.8c-0.2,0.2-0.5,0.4-0.8,0.5s-0.7,0.1-0.9,0
		c-0.3-0.1-0.6-0.2-0.8-0.5c-0.2-0.2-0.4-0.5-0.5-0.8C102.5,53.9,102.5,53.6,102.6,53.4z M102.9,53.4c-0.1,0.2-0.1,0.5,0,0.7
		s0.2,0.5,0.4,0.7c0.2,0.2,0.4,0.3,0.7,0.4c0.2,0.1,0.5,0.1,0.7,0s0.5-0.2,0.7-0.4s0.3-0.4,0.4-0.7c0.1-0.2,0.1-0.5,0-0.7
		s-0.2-0.5-0.4-0.7c-0.2-0.2-0.4-0.3-0.7-0.4c-0.2-0.1-0.5-0.1-0.7,0s-0.5,0.2-0.7,0.4C103.1,53,103,53.2,102.9,53.4z M105.1,54.8
		l-1.9-0.5l0.2-0.7c0.1-0.2,0.1-0.4,0.2-0.5s0.2-0.2,0.2-0.2c0.1,0,0.2,0,0.3,0c0.2,0,0.2,0.1,0.3,0.2s0.1,0.2,0.1,0.4
		c0.1-0.1,0.1-0.1,0.2-0.2c0.1-0.1,0.2-0.1,0.4-0.2l0.4-0.2l-0.1,0.3l-0.3,0.1c-0.2,0.1-0.4,0.2-0.5,0.2c-0.1,0.1-0.1,0.1-0.2,0.2
		l-0.1,0.2l0.8,0.2V54.8z M104.1,54.3l0.1-0.4c0.1-0.2,0.1-0.3,0-0.4c0-0.1-0.1-0.2-0.2-0.2s-0.1,0-0.2,0s-0.1,0.1-0.2,0.1
		c0,0.1-0.1,0.2-0.1,0.3l0.1,0.3L104.1,54.3z"/>
</g>
</svg>
