<?xml version="1.0" encoding="utf-8"?>
<!-- Generator: Adobe Illustrator 24.0.0, SVG Export Plug-In . SVG Version: 6.00 Build 0)  -->
<svg version="1.1" id="Livello_1" xmlns="http://www.w3.org/2000/svg" xmlns:xlink="http://www.w3.org/1999/xlink" x="0px" y="0px"
	 viewBox="0 0 200 200" style="enable-background:new 0 0 200 200;" xml:space="preserve">
<style type="text/css">
	.st0{fill:#BE1622;}
	.st1{fill:#FFFFFF;}
</style>
<g>
	<g>
		<path class="st0" d="M33.1,80.2c0.4,0,0.7,0.1,0.8,0.3c0.1,0.2,0.2,0.5,0.2,0.9c-1.5,1.5-2.5,3.3-3.2,5.5c-0.7,2.2-1,4.7-1,7.6
			c0,0.1-0.1,0.2-0.2,0.3c-0.1,0.1-0.3,0.2-0.5,0.2c-0.2,0-0.3,0.1-0.5,0c-0.1,0-0.2-0.1-0.2-0.2c0-0.1,0-0.3,0-0.4
			c0-0.2,0-0.4,0-0.6c0-0.7-0.2-1.5-0.7-2.4c-0.5-0.9-1.1-1.7-1.9-2.6c-0.8-0.8-1.7-1.5-2.8-2.1c-1.1-0.6-2.2-0.8-3.5-0.8
			c-1.7,0-3.2,0.4-4.5,1.1c-1.3,0.8-2.4,1.8-3.3,3c-0.9,1.3-1.6,2.7-2,4.4c-0.5,1.7-0.7,3.4-0.7,5.3c0,2.1,0.3,4,0.8,5.8
			c0.6,1.8,1.3,3.4,2.3,4.8c1,1.4,2.2,2.5,3.6,3.3c1.4,0.8,3,1.2,4.7,1.2c1.1,0,2.2-0.2,3.1-0.6c0.9-0.4,1.7-0.9,2.3-1.6
			c0.6-0.7,1.1-1.5,1.5-2.4c0.3-0.9,0.5-1.9,0.5-3c0-0.9-0.1-1.7-0.4-2.6c-0.3-0.9-0.6-1.7-1.1-2.4c-0.5-0.7-1-1.3-1.6-1.7
			c-0.6-0.4-1.3-0.7-2-0.7c-0.4,0-0.9,0.1-1.3,0.2c-0.4,0.1-0.8,0.3-1.2,0.5c-0.3,0.2-0.6,0.5-0.8,0.8c-0.2,0.3-0.3,0.7-0.3,1.2
			c0,0.3,0.1,0.7,0.2,1c0.1,0.3,0.3,0.6,0.4,0.8c0.2,0.2,0.3,0.4,0.5,0.5c0.2,0.1,0.3,0.2,0.4,0.2c0.1,0,0.3,0,0.3,0.2
			c0.1,0.2,0.1,0.3,0,0.3c-0.1,0.2-0.6,0.4-1.5,0.6c-0.8,0.2-1.8,0.4-3,0.4c-1,0-1.8-0.3-2.4-1c-0.6-0.7-0.9-1.4-0.9-2.3
			c0-0.5,0.3-1.1,0.8-1.7c0.5-0.6,1.3-1.1,2.2-1.5c0.9-0.4,2.1-0.8,3.3-1.1c1.3-0.3,2.6-0.4,4.1-0.4c1.6,0,2.9,0.2,4.1,0.5
			c1.2,0.3,2.2,0.8,3.1,1.4c0.8,0.6,1.5,1.3,1.9,2.1c0.4,0.8,0.6,1.7,0.6,2.5c0,1.4-0.4,2.8-1.2,4.1c-0.8,1.4-1.9,2.6-3.2,3.7
			c-1.3,1.1-2.8,2-4.5,2.6c-1.7,0.7-3.5,1-5.3,1c-2.8,0-5.2-0.4-7.3-1.1s-3.9-1.8-5.3-3.1c-1.4-1.4-2.5-2.9-3.2-4.8
			c-0.7-1.8-1.1-3.9-1.1-6.1c0-2.4,0.5-4.6,1.5-6.7c1-2.1,2.3-3.9,4-5.5c1.7-1.6,3.7-2.8,6-3.7c2.3-0.9,4.8-1.4,7.5-1.4
			c2.1,0,3.8,0.2,5.1,0.6c1.4,0.4,2.4,0.7,3.3,1c0.1-0.3,0.3-0.7,0.5-1.2c0.2-0.5,0.5-1.1,0.7-1.6c0.3-0.5,0.6-1.1,0.9-1.5
			C32.5,80.7,32.8,80.4,33.1,80.2z"/>
		<path d="M41.4,115.6c-0.5,0-1.1,0-1.7,0c-0.6,0-1.2,0-1.9,0c-0.6,0-1.2,0-1.7,0.1c-0.5,0-0.9,0.1-1.2,0.1l-0.7,0.1
			c-0.1,0-0.3-0.1-0.4-0.2c-0.1-0.2-0.2-0.3-0.2-0.5c0-0.1,0.1-0.2,0.2-0.4c0.1-0.1,0.3-0.2,0.5-0.2c1.2,0,2.2-0.1,2.9-0.2
			c0.7-0.1,1.1-0.3,1.3-0.6c0.2-0.3,0.4-1.1,0.5-2.3c0.2-1.2,0.4-2.6,0.5-4.2c0.1-1.6,0.3-3.3,0.3-5c0.1-1.8,0.1-3.4,0.1-4.9
			c0-1.6,0-3,0-4.1c0-1.1,0-2,0-2.7c0-0.7,0-1.3,0-1.7c0-0.4,0-0.7,0-0.8c0-0.9-0.2-1.5-0.4-1.8c-0.2-0.3-0.6-0.5-1.2-0.5
			c-0.4-0.1-0.9-0.1-1.5,0c-0.6,0-1,0-1.2,0c-0.2,0-0.4-0.1-0.5-0.1c-0.1,0-0.2-0.2-0.2-0.5c0-0.3,0.1-0.5,0.2-0.6
			c0.1-0.1,0.3-0.2,0.5-0.2c0.2,0,1,0.1,2.2,0.2c1.2,0.1,3,0.2,5.4,0.2c1.5,0,2.8,0,3.9-0.1c1.1-0.1,1.8-0.1,2.2-0.2
			c0.2,0,0.4,0,0.6,0.1c0.2,0,0.3,0.2,0.3,0.4c0,0.5-0.3,0.8-1,0.8c-0.2,0-0.5,0-0.8,0c-0.3,0-0.6,0.1-0.8,0.1
			c-0.3,0-0.5,0.1-0.8,0.1c-0.2,0.1-0.4,0.1-0.5,0.1c-0.1,0.1-0.3,0.6-0.4,1.6c-0.1,1-0.2,2.2-0.3,3.7c-0.1,1.5-0.2,3-0.3,4.7
			c-0.1,1.7-0.1,3.3-0.2,4.7c0,1.1-0.1,2.4-0.1,3.8c0,1.5,0,2.8,0,4.2c0,1.3,0.1,2.5,0.2,3.5c0.1,1,0.2,1.5,0.4,1.7
			c0.1,0.1,0.3,0.2,0.6,0.2c0.3,0.1,0.7,0.1,1.1,0.2c0.4,0.1,0.9,0.1,1.3,0.2c0.4,0,0.9,0,1.2,0c0.3,0,0.5,0,0.6,0.1
			c0.1,0.1,0.1,0.2,0.1,0.4c0,0.3-0.1,0.4-0.3,0.6c-0.2,0.1-0.4,0.2-0.7,0.2c-0.2,0-0.4,0-0.8,0c-0.3,0-0.8-0.1-1.4-0.1
			c-0.6,0-1.4-0.1-2.3-0.1c-0.9,0-2.1,0-3.4,0H41.4z"/>
		<path d="M51.4,104.9c-0.1,0-0.1,0-0.2,0c-0.1,0-0.1-0.1-0.1-0.2c0,0,0-0.1,0.1-0.3c0.1-0.2,0.2-0.4,0.4-0.6
			c0.2-0.2,0.4-0.4,0.6-0.5c0.3-0.2,0.6-0.2,0.9-0.2c0.5,0,0.8,0.1,1.1,0.4c0.3,0.2,0.5,0.6,0.7,1c0.2,0.4,0.3,0.9,0.3,1.5
			c0.1,0.6,0.1,1.2,0.1,1.8c0.1,0.7,0.4,1.4,1,2.1c0.6,0.7,1.2,1.4,2.1,1.9c0.8,0.6,1.7,1,2.7,1.4c1,0.4,1.9,0.6,2.8,0.6
			c2.2,0.1,3.8-0.4,4.8-1.4c1-1,1.5-2.3,1.5-3.8c0-1.3-0.2-2.3-0.7-3.1c-0.5-0.8-1.1-1.5-2-1.9c-0.8-0.5-1.7-0.9-2.8-1.2
			c-1-0.3-2.1-0.6-3.2-0.8c-1.1-0.3-2.1-0.5-3.2-0.9c-1-0.3-2-0.7-2.8-1.3c-0.8-0.5-1.5-1.3-2-2.1c-0.5-0.9-0.7-2-0.7-3.4
			c0-1.3,0.3-2.6,0.9-3.8c0.6-1.2,1.4-2.2,2.5-3.1c1.1-0.9,2.4-1.6,4-2.2c1.6-0.5,3.3-0.8,5.3-0.8c1.9,0,3.5,0.2,4.9,0.6
			c1.4,0.4,2.4,0.7,3.1,0.9c0.1-0.2,0.3-0.5,0.5-0.8c0.2-0.3,0.4-0.6,0.6-0.8c0.2-0.3,0.5-0.5,0.7-0.7c0.3-0.2,0.6-0.3,0.9-0.3
			c0.3,0,0.5,0.1,0.6,0.2c0.2,0.2,0.2,0.3,0.2,0.5c-0.1,0.1-0.2,0.3-0.3,0.3c-0.2,0.1-0.3,0.2-0.5,0.3c-0.9,0.5-1.6,1.5-2.2,3.2
			c-0.6,1.7-0.9,3.7-1,6.2c0,0.1-0.1,0.1-0.2,0.1c-0.1,0-0.2,0-0.4,0c-0.2,0-0.4,0-0.5,0c-0.1-0.9-0.3-1.7-0.8-2.6
			c-0.4-0.9-1-1.7-1.8-2.4c-0.8-0.7-1.7-1.3-2.8-1.8c-1.1-0.5-2.4-0.7-3.8-0.7c-0.9,0-1.6,0.1-2.3,0.4c-0.7,0.2-1.3,0.6-1.7,1
			c-0.5,0.4-0.8,0.9-1.1,1.4c-0.2,0.5-0.4,1-0.4,1.6c0,1.2,0.5,2.3,1.5,3.3c1,1,2.5,1.7,4.4,2.2c1.2,0.3,2.5,0.7,3.9,1.1
			c1.3,0.4,2.5,0.9,3.6,1.6c1.1,0.7,2,1.5,2.7,2.5c0.7,1,1.1,2.3,1.1,3.8c0,1.5-0.4,3-1.1,4.4c-0.7,1.4-1.6,2.6-2.8,3.7
			c-1.1,1.1-2.5,1.9-3.9,2.5c-1.5,0.6-3,0.9-4.5,0.9c-1.2,0-2.3-0.1-3.4-0.2c-1.1-0.2-2.2-0.3-3.1-0.6c-0.9-0.2-1.8-0.4-2.5-0.7
			c-0.7-0.2-1.3-0.5-1.6-0.6c0.3-0.5,0.5-0.9,0.8-1.5c0.3-0.5,0.5-1.1,0.8-1.6c0.2-0.6,0.4-1.2,0.6-1.8c0.2-0.6,0.2-1.3,0.2-2
			c0-1-0.2-1.8-0.5-2.3c-0.3-0.5-0.7-0.8-1.1-0.8c-0.3,0-0.5,0.1-0.6,0.2c-0.1,0.1-0.3,0.3-0.4,0.5L51.4,104.9z"/>
		<path d="M92.9,116.2c-2.2,0-4.3-0.3-6.3-1c-1.9-0.7-3.6-1.6-5.1-2.9c-1.4-1.3-2.6-2.8-3.4-4.7c-0.8-1.8-1.2-3.9-1.2-6.3
			c0-2.6,0.5-4.9,1.5-7c1-2.1,2.3-3.9,3.9-5.4c1.6-1.5,3.4-2.7,5.5-3.5c2.1-0.8,4.2-1.2,6.4-1.2c2.1,0,4.1,0.3,6,0.9
			c1.9,0.6,3.6,1.5,5.1,2.7c1.5,1.2,2.6,2.7,3.5,4.4c0.9,1.8,1.3,3.8,1.3,6.1c0,2.2-0.4,4.3-1.3,6.4c-0.9,2.1-2.1,4-3.6,5.7
			c-1.5,1.7-3.3,3.1-5.4,4.1C97.7,115.7,95.4,116.2,92.9,116.2z M94.1,114.6c1.6,0,3-0.4,4.2-1.2c1.2-0.8,2.2-1.8,3-3.1
			c0.8-1.3,1.4-2.8,1.8-4.5c0.4-1.7,0.6-3.5,0.6-5.4c0-2.3-0.3-4.3-0.8-6.1c-0.5-1.8-1.3-3.4-2.2-4.6c-0.9-1.3-2-2.2-3.3-2.9
			c-1.3-0.7-2.6-1-3.9-1c-1.6,0-3,0.4-4.2,1.1c-1.3,0.7-2.3,1.7-3.2,2.9c-0.9,1.2-1.5,2.7-2,4.4c-0.5,1.7-0.7,3.6-0.7,5.6
			c0,2.6,0.3,4.8,0.9,6.7c0.6,1.9,1.4,3.4,2.4,4.7c1,1.2,2.1,2.1,3.4,2.7C91.4,114.3,92.7,114.6,94.1,114.6z"/>
		<path d="M112.4,114.7c0.3,0,0.6,0,1,0c0.3,0,0.6-0.1,0.8-0.1c0.2-0.1,0.4-0.2,0.5-0.3c0.1-0.2,0.3-0.4,0.4-0.9
			c0.1-0.4,0.2-1,0.3-1.8c0.1-0.8,0.2-1.8,0.2-3c0-1.3,0.1-2.8,0.1-4.7c0-1.9,0-4.1,0-6.8c0-2.2,0-4-0.1-5.4
			c-0.1-1.4-0.1-2.6-0.3-3.5c-0.1-0.9-0.3-1.5-0.5-1.9c-0.2-0.4-0.4-0.6-0.7-0.6c-0.1,0-0.3,0-0.6,0c-0.2,0-0.5,0-0.8,0
			s-0.5,0-0.7,0c-0.2,0-0.4,0-0.4,0c-0.1,0-0.1-0.1-0.1-0.2c0-0.1,0-0.2,0-0.3c0-0.1,0-0.3,0-0.4c0-0.2,0.1-0.3,0.3-0.3h3.8
			c1.2,0,2.3,0,3.1-0.1c0.8-0.1,1.6-0.2,2.3-0.3c0.4-0.1,0.6,0.1,0.6,0.4c0,0.2-0.1,0.5-0.1,0.9c0,0.4-0.1,0.8-0.1,1.3
			c0,0.5-0.1,0.9-0.1,1.3c0,0.4,0,0.7,0,0.9c0.3-0.4,0.9-0.9,1.7-1.5c0.8-0.6,1.7-1.1,2.8-1.6c1.1-0.5,2.2-1,3.5-1.3
			c1.3-0.4,2.5-0.6,3.8-0.6c1.7,0,3.3,0.2,4.8,0.7c1.5,0.4,2.7,1.1,3.8,2c1,0.9,1.9,2,2.5,3.3c0.6,1.3,0.9,2.9,0.9,4.7
			c0,1.2-0.1,2.4-0.3,3.6c-0.2,1.3-0.5,2.5-0.9,3.7c-0.3,1.2-0.7,2.4-1.1,3.6c-0.4,1.2-0.8,2.2-1.1,3.2c-0.3,1-0.6,1.9-0.9,2.7
			c-0.2,0.8-0.3,1.4-0.3,1.8c0,0.3,0.2,0.6,0.5,0.8c0.3,0.2,0.8,0.3,1.6,0.3c0.4,0,0.7,0,1,0c0.3,0,0.5-0.1,0.7-0.3
			c0.1-0.1,0.2,0,0.3,0.2c0.1,0.1,0.1,0.2,0.1,0.3c0,0.1-0.1,0.3-0.2,0.6c-0.2,0.3-0.3,0.4-0.5,0.4c-0.2,0-0.7,0-1.5,0
			c-0.8,0-1.6,0-2.5,0c-0.9,0-1.8,0-2.7,0c-0.9,0-1.5,0-2,0c-0.4,0-0.6-0.1-0.6-0.4c0-0.2,0-0.3,0-0.3c0,0,0.1-0.1,0.2-0.1
			c0.1,0,0.2,0,0.3-0.1c0.1,0,0.2-0.2,0.4-0.3c0.3-0.5,0.6-1.3,1-2.4c0.3-1.1,0.7-2.5,0.9-4c0.3-1.5,0.5-3.2,0.7-5
			c0.2-1.8,0.3-3.6,0.3-5.3c0-1.9-0.2-3.5-0.6-4.9c-0.4-1.4-1-2.6-1.8-3.5c-0.7-0.9-1.6-1.7-2.6-2.1c-1-0.5-2-0.7-3.1-0.7
			c-0.9,0-1.9,0.2-2.9,0.5c-1,0.4-1.9,0.8-2.7,1.5c-0.8,0.6-1.6,1.3-2.2,2.2c-0.6,0.8-1,1.7-1.2,2.6c-0.1,0.4-0.2,1.1-0.2,2.1
			c-0.1,1-0.1,2.2-0.1,3.5c0,1.3-0.1,2.7-0.1,4.2c0,1.5,0,2.9,0,4.2c0,0.8,0,1.6,0,2.4c0,0.8,0.1,1.5,0.1,2.1
			c0.1,0.6,0.1,1.1,0.2,1.6c0.1,0.4,0.1,0.7,0.2,0.8c0.1,0.3,0.2,0.4,0.4,0.5c0.1,0.1,0.5,0.2,1.2,0.2c0.3,0,0.5,0,0.7,0
			c0.2,0,0.4,0,0.6,0c0.2,0,0.3,0.1,0.4,0.2c0.1,0.2,0.1,0.3,0.1,0.4c0,0.1-0.1,0.1-0.2,0.3c-0.1,0.1-0.2,0.2-0.4,0.2
			c-0.2,0-0.5,0-0.9,0c-0.4,0-0.9,0-1.4,0c-0.5,0-1,0-1.5,0c-0.5,0-0.9,0-1.2,0c-0.7,0-1.5,0-2.3,0c-0.8,0-1.5,0-2.2,0
			c-0.7,0-1.3,0-1.8,0.1c-0.5,0-0.9,0.1-1.1,0.1c-0.2,0-0.3-0.1-0.3-0.3c0-0.1,0.1-0.3,0.2-0.5c0.1-0.2,0.2-0.3,0.4-0.3H112.4z"/>
		<path d="M147.4,114.7c0.3,0,0.6,0,1,0c0.3,0,0.6-0.1,0.8-0.1c0.2-0.1,0.4-0.2,0.5-0.3c0.1-0.2,0.3-0.4,0.4-0.9
			c0.1-0.4,0.2-1,0.3-1.8c0.1-0.8,0.2-1.8,0.2-3c0-1.3,0.1-2.8,0.1-4.7c0-1.9,0-4.1,0-6.8c0-2.2,0-4-0.1-5.4
			c-0.1-1.4-0.1-2.6-0.3-3.5c-0.1-0.9-0.3-1.5-0.5-1.9c-0.2-0.4-0.4-0.6-0.7-0.6c-0.1,0-0.3,0-0.6,0c-0.2,0-0.5,0-0.8,0
			s-0.5,0-0.7,0c-0.2,0-0.4,0-0.4,0c-0.1,0-0.1-0.1-0.1-0.2c0-0.1,0-0.2,0-0.3c0-0.1,0-0.3,0-0.4c0-0.2,0.1-0.3,0.3-0.3h3.8
			c1.2,0,2.3,0,3.1-0.1c0.8-0.1,1.6-0.2,2.3-0.3c0.4-0.1,0.6,0.1,0.6,0.4c0,0.2-0.1,0.5-0.1,0.9c0,0.4-0.1,0.8-0.1,1.3
			c0,0.5-0.1,0.9-0.1,1.3c0,0.4,0,0.7,0,0.9c0.3-0.4,0.9-0.9,1.7-1.5c0.8-0.6,1.7-1.1,2.8-1.6c1.1-0.5,2.2-1,3.5-1.3
			c1.3-0.4,2.5-0.6,3.8-0.6c1.7,0,3.3,0.2,4.8,0.7c1.5,0.4,2.7,1.1,3.8,2c1,0.9,1.9,2,2.5,3.3c0.6,1.3,0.9,2.9,0.9,4.7
			c0,1.2-0.1,2.4-0.3,3.6c-0.2,1.3-0.5,2.5-0.9,3.7c-0.3,1.2-0.7,2.4-1.1,3.6c-0.4,1.2-0.8,2.2-1.1,3.2c-0.3,1-0.6,1.9-0.9,2.7
			c-0.2,0.8-0.3,1.4-0.3,1.8c0,0.3,0.2,0.6,0.5,0.8c0.3,0.2,0.8,0.3,1.6,0.3c0.4,0,0.7,0,1,0c0.3,0,0.5-0.1,0.7-0.3
			c0.1-0.1,0.2,0,0.3,0.2c0.1,0.1,0.1,0.2,0.1,0.3c0,0.1-0.1,0.3-0.2,0.6c-0.2,0.3-0.3,0.4-0.5,0.4c-0.2,0-0.7,0-1.5,0
			c-0.8,0-1.6,0-2.5,0c-0.9,0-1.8,0-2.7,0c-0.9,0-1.5,0-2,0c-0.4,0-0.6-0.1-0.6-0.4c0-0.2,0-0.3,0-0.3c0,0,0.1-0.1,0.2-0.1
			c0.1,0,0.2,0,0.3-0.1c0.1,0,0.2-0.2,0.4-0.3c0.3-0.5,0.6-1.3,1-2.4c0.3-1.1,0.7-2.5,0.9-4c0.3-1.5,0.5-3.2,0.7-5
			c0.2-1.8,0.3-3.6,0.3-5.3c0-1.9-0.2-3.5-0.6-4.9c-0.4-1.4-1-2.6-1.8-3.5c-0.7-0.9-1.6-1.7-2.6-2.1c-1-0.5-2-0.7-3.1-0.7
			c-0.9,0-1.9,0.2-2.9,0.5c-1,0.4-1.9,0.8-2.7,1.5c-0.8,0.6-1.6,1.3-2.2,2.2c-0.6,0.8-1,1.7-1.2,2.6c-0.1,0.4-0.2,1.1-0.2,2.1
			c-0.1,1-0.1,2.2-0.1,3.5c0,1.3-0.1,2.7-0.1,4.2c0,1.5,0,2.9,0,4.2c0,0.8,0,1.6,0,2.4c0,0.8,0.1,1.5,0.1,2.1
			c0.1,0.6,0.1,1.1,0.2,1.6c0.1,0.4,0.1,0.7,0.2,0.8c0.1,0.3,0.2,0.4,0.4,0.5c0.1,0.1,0.5,0.2,1.2,0.2c0.3,0,0.5,0,0.7,0
			c0.2,0,0.4,0,0.6,0c0.2,0,0.3,0.1,0.4,0.2c0.1,0.2,0.1,0.3,0.1,0.4c0,0.1-0.1,0.1-0.2,0.3c-0.1,0.1-0.2,0.2-0.4,0.2
			c-0.2,0-0.5,0-0.9,0c-0.4,0-0.9,0-1.4,0c-0.5,0-1,0-1.5,0c-0.5,0-0.9,0-1.2,0c-0.7,0-1.5,0-2.3,0c-0.8,0-1.5,0-2.2,0
			c-0.7,0-1.3,0-1.8,0.1c-0.5,0-0.9,0.1-1.1,0.1c-0.2,0-0.3-0.1-0.3-0.3c0-0.1,0.1-0.3,0.2-0.5c0.1-0.2,0.2-0.3,0.4-0.3H147.4z"/>
		<path d="M188.7,115.6c-0.5,0-1.1,0-1.7,0c-0.6,0-1.2,0-1.9,0c-0.6,0-1.2,0-1.7,0.1c-0.5,0-0.9,0.1-1.2,0.1l-0.7,0.1
			c-0.1,0-0.3-0.1-0.4-0.2c-0.1-0.2-0.2-0.3-0.2-0.5c0-0.1,0.1-0.2,0.2-0.4c0.1-0.1,0.3-0.2,0.5-0.2c1.2,0,2.2-0.1,2.9-0.2
			c0.7-0.1,1.1-0.3,1.3-0.6c0.2-0.3,0.4-1.1,0.5-2.3c0.2-1.2,0.4-2.6,0.5-4.2c0.1-1.6,0.3-3.3,0.3-5c0.1-1.8,0.1-3.4,0.1-4.9
			c0-1.6,0-3,0-4.1c0-1.1,0-2,0-2.7c0-0.7,0-1.3,0-1.7c0-0.4,0-0.7,0-0.8c0-0.9-0.2-1.5-0.4-1.8c-0.2-0.3-0.6-0.5-1.2-0.5
			c-0.4-0.1-0.9-0.1-1.5,0c-0.6,0-1,0-1.2,0c-0.2,0-0.4-0.1-0.5-0.1c-0.1,0-0.2-0.2-0.2-0.5c0-0.3,0.1-0.5,0.2-0.6
			c0.1-0.1,0.3-0.2,0.5-0.2c0.2,0,1,0.1,2.2,0.2c1.2,0.1,3,0.2,5.4,0.2c1.5,0,2.8,0,3.9-0.1c1.1-0.1,1.8-0.1,2.2-0.2
			c0.2,0,0.4,0,0.6,0.1c0.2,0,0.3,0.2,0.3,0.4c0,0.5-0.3,0.8-1,0.8c-0.2,0-0.5,0-0.8,0c-0.3,0-0.6,0.1-0.8,0.1
			c-0.3,0-0.5,0.1-0.8,0.1c-0.2,0.1-0.4,0.1-0.5,0.1c-0.1,0.1-0.3,0.6-0.4,1.6c-0.1,1-0.2,2.2-0.3,3.7c-0.1,1.5-0.2,3-0.3,4.7
			c-0.1,1.7-0.1,3.3-0.2,4.7c0,1.1-0.1,2.4-0.1,3.8c0,1.5,0,2.8,0,4.2c0,1.3,0.1,2.5,0.2,3.5c0.1,1,0.2,1.5,0.4,1.7
			c0.1,0.1,0.3,0.2,0.6,0.2c0.3,0.1,0.7,0.1,1.1,0.2c0.4,0.1,0.9,0.1,1.3,0.2c0.4,0,0.9,0,1.2,0c0.3,0,0.5,0,0.6,0.1
			c0.1,0.1,0.1,0.2,0.1,0.4c0,0.3-0.1,0.4-0.3,0.6c-0.2,0.1-0.4,0.2-0.7,0.2c-0.2,0-0.4,0-0.8,0c-0.3,0-0.8-0.1-1.4-0.1
			c-0.6,0-1.4-0.1-2.3-0.1c-0.9,0-2.1,0-3.4,0H188.7z"/>
	</g>
	<rect x="54.9" y="70.5" width="90.8" height="0.4"/>
	<g>
		<rect x="57.1" y="132.7" width="86.3" height="12.5"/>
		<polygon points="54.7,141.3 42,141.3 45.7,135 42,128.8 54.7,128.8 		"/>
		<polygon points="145.8,141.3 158.5,141.3 154.8,135 158.5,128.8 145.8,128.8 		"/>
	</g>
	<g>
		<path class="st1" d="M64.5,136.6c0.4,0.4,0.6,0.8,0.6,1.3h-0.7c-0.1-0.4-0.2-0.6-0.5-0.8c-0.2-0.2-0.6-0.3-1-0.3
			c-0.5,0-1,0.2-1.3,0.6c-0.3,0.4-0.5,1-0.5,1.8c0,0.7,0.1,1.2,0.4,1.6c0.3,0.4,0.7,0.6,1.3,0.6c0.5,0,1-0.2,1.2-0.6
			c0.2-0.2,0.3-0.5,0.3-0.9h0.7c-0.1,0.6-0.3,1.1-0.6,1.5c-0.4,0.5-1,0.7-1.8,0.7c-0.6,0-1.2-0.2-1.6-0.6c-0.6-0.5-0.9-1.3-0.9-2.4
			c0-0.8,0.2-1.5,0.6-2c0.5-0.6,1.1-0.9,1.9-0.9C63.6,136,64.1,136.2,64.5,136.6z"/>
		<path class="st1" d="M69.3,136.2h0.8l2,5.5h-0.8l-0.6-1.7h-2.2l-0.6,1.7h-0.8L69.3,136.2z M70.6,139.4l-0.9-2.5l-0.9,2.5H70.6z"/>
		<path class="st1" d="M74.5,136.2H77c0.4,0,0.8,0.1,1,0.2c0.5,0.2,0.8,0.7,0.8,1.3c0,0.3-0.1,0.6-0.2,0.8c-0.1,0.2-0.3,0.4-0.6,0.5
			c0.2,0.1,0.4,0.2,0.5,0.3c0.1,0.1,0.2,0.4,0.2,0.7l0,0.7c0,0.2,0,0.4,0.1,0.5c0,0.2,0.1,0.3,0.2,0.3v0.1h-0.9c0,0,0-0.1-0.1-0.2
			c0-0.1,0-0.2,0-0.4l0-0.9c0-0.4-0.1-0.6-0.4-0.7c-0.1-0.1-0.4-0.1-0.7-0.1h-1.7v2.4h-0.8V136.2z M77,138.7c0.3,0,0.6-0.1,0.8-0.2
			c0.2-0.1,0.3-0.4,0.3-0.8c0-0.4-0.1-0.7-0.4-0.8c-0.1-0.1-0.3-0.1-0.6-0.1h-1.8v1.9H77z"/>
		<path class="st1" d="M81.6,136.2h0.9l2.8,4.5v-4.5h0.7v5.5h-0.8l-2.8-4.5v4.5h-0.7V136.2z"/>
		<path class="st1" d="M88.9,136.2h0.8v5.5h-0.8V136.2z"/>
		<path class="st1" d="M96.1,136.2h2.2c0.8,0,1.3,0.3,1.8,0.8c0.4,0.5,0.6,1.1,0.6,1.9c0,0.6-0.1,1.1-0.3,1.6c-0.4,0.8-1,1.3-2,1.3
			h-2.2V136.2z M98.2,141.1c0.2,0,0.5,0,0.6-0.1c0.3-0.1,0.5-0.3,0.7-0.6c0.1-0.2,0.2-0.5,0.3-0.9c0-0.2,0.1-0.4,0.1-0.6
			c0-0.7-0.1-1.2-0.4-1.6c-0.3-0.4-0.7-0.6-1.3-0.6h-1.3v4.3H98.2z"/>
		<path class="st1" d="M104.8,136.2h0.8l2,5.5h-0.8l-0.6-1.7h-2.2l-0.6,1.7h-0.8L104.8,136.2z M106.1,139.4l-0.9-2.5l-0.9,2.5H106.1
			z"/>
		<path class="st1" d="M109.9,136.2h0.8v4.9h2.8v0.7h-3.5V136.2z"/>
		<path class="st1" d="M119.3,137.9v-0.5c0.5,0,0.8-0.1,1-0.2c0.2-0.1,0.3-0.4,0.4-0.8h0.5v5.4h-0.7v-3.8H119.3z"/>
		<path class="st1" d="M125.5,140.4c0,0.4,0.2,0.6,0.4,0.8c0.1,0.1,0.3,0.1,0.5,0.1c0.3,0,0.6-0.1,0.8-0.4c0.2-0.3,0.4-0.8,0.5-1.6
			c-0.2,0.2-0.3,0.4-0.6,0.5c-0.2,0.1-0.5,0.1-0.7,0.1c-0.5,0-0.9-0.2-1.2-0.5c-0.3-0.3-0.5-0.7-0.5-1.3c0-0.5,0.1-0.9,0.4-1.3
			c0.3-0.4,0.7-0.6,1.3-0.6c0.8,0,1.3,0.4,1.6,1.1c0.2,0.4,0.2,0.9,0.2,1.5c0,0.7-0.1,1.2-0.3,1.8c-0.3,0.9-0.9,1.3-1.7,1.3
			c-0.5,0-0.9-0.1-1.2-0.4c-0.3-0.3-0.4-0.6-0.4-1H125.5z M127.2,139c0.2-0.2,0.3-0.5,0.3-0.9c0-0.4-0.1-0.7-0.3-0.9
			c-0.2-0.2-0.5-0.3-0.8-0.3c-0.3,0-0.6,0.1-0.8,0.3c-0.2,0.2-0.3,0.5-0.3,0.9c0,0.4,0.1,0.6,0.3,0.8c0.2,0.2,0.4,0.3,0.8,0.3
			C126.8,139.3,127,139.2,127.2,139z"/>
		<path class="st1" d="M131.3,140.4c0,0.4,0.2,0.6,0.4,0.8c0.1,0.1,0.3,0.1,0.5,0.1c0.3,0,0.6-0.1,0.8-0.4c0.2-0.3,0.4-0.8,0.5-1.6
			c-0.2,0.2-0.3,0.4-0.6,0.5c-0.2,0.1-0.5,0.1-0.7,0.1c-0.5,0-0.9-0.2-1.2-0.5c-0.3-0.3-0.5-0.7-0.5-1.3c0-0.5,0.1-0.9,0.4-1.3
			c0.3-0.4,0.7-0.6,1.3-0.6c0.8,0,1.3,0.4,1.6,1.1c0.2,0.4,0.2,0.9,0.2,1.5c0,0.7-0.1,1.2-0.3,1.8c-0.3,0.9-0.9,1.3-1.7,1.3
			c-0.5,0-0.9-0.1-1.2-0.4c-0.3-0.3-0.4-0.6-0.4-1H131.3z M133.1,139c0.2-0.2,0.3-0.5,0.3-0.9c0-0.4-0.1-0.7-0.3-0.9
			c-0.2-0.2-0.5-0.3-0.8-0.3c-0.3,0-0.6,0.1-0.8,0.3c-0.2,0.2-0.3,0.5-0.3,0.9c0,0.4,0.1,0.6,0.3,0.8c0.2,0.2,0.4,0.3,0.8,0.3
			C132.6,139.3,132.8,139.2,133.1,139z"/>
		<path class="st1" d="M140.2,136.4v0.6c-0.2,0.2-0.4,0.5-0.7,0.9c-0.3,0.4-0.5,0.9-0.8,1.4c-0.2,0.5-0.4,0.9-0.5,1.3
			c-0.1,0.2-0.2,0.7-0.3,1.2h-0.8c0.2-1,0.5-2.1,1.1-3.1c0.3-0.6,0.7-1.1,1.1-1.6h-3v-0.7H140.2z"/>
	</g>
	<g>
		<path d="M57.3,57.9h1.5l2.2,6.5l2.2-6.5h1.5v7.7h-1v-4.5c0-0.2,0-0.4,0-0.8c0-0.4,0-0.7,0-1.2l-2.2,6.5h-1l-2.2-6.5v0.2
			c0,0.2,0,0.5,0,0.9c0,0.4,0,0.7,0,0.8v4.5h-1V57.9z"/>
		<path d="M70.6,57.9h1.2l2.8,7.7h-1.1l-0.8-2.3h-3l-0.8,2.3h-1.1L70.6,57.9z M72.3,62.5l-1.2-3.4l-1.2,3.4H72.3z"/>
		<path d="M83,58.5c0.5,0.5,0.8,1.1,0.9,1.7h-1c-0.1-0.5-0.3-0.9-0.7-1.2c-0.3-0.3-0.8-0.4-1.4-0.4c-0.7,0-1.3,0.3-1.8,0.8
			c-0.5,0.5-0.7,1.3-0.7,2.4c0,0.9,0.2,1.6,0.6,2.2c0.4,0.6,1,0.8,1.8,0.8c0.8,0,1.3-0.3,1.7-0.9c0.2-0.3,0.4-0.7,0.5-1.2h1
			c-0.1,0.8-0.4,1.5-0.9,2c-0.6,0.7-1.4,1-2.4,1c-0.9,0-1.6-0.3-2.2-0.8c-0.8-0.7-1.2-1.8-1.2-3.3c0-1.1,0.3-2.1,0.9-2.8
			c0.6-0.8,1.5-1.2,2.6-1.2C81.7,57.7,82.5,58,83,58.5z"/>
		<path d="M87.5,57.9h5.6v0.9h-4.5v2.3h4.2v0.9h-4.2v2.6h4.6v0.9h-5.6V57.9z"/>
		<path d="M96.7,57.9h1v6.7h3.8v0.9h-4.9V57.9z"/>
		<path d="M104.8,57.9h1v6.7h3.8v0.9h-4.9V57.9z"/>
		<path d="M112.9,57.9h5.6v0.9h-4.5v2.3h4.2v0.9h-4.2v2.6h4.6v0.9h-5.6V57.9z"/>
		<path d="M122.2,57.9h3.5c0.6,0,1,0.1,1.4,0.3c0.7,0.3,1.1,0.9,1.1,1.8c0,0.5-0.1,0.8-0.3,1.1c-0.2,0.3-0.5,0.5-0.8,0.7
			c0.3,0.1,0.5,0.3,0.7,0.5c0.2,0.2,0.2,0.5,0.3,1l0,1c0,0.3,0,0.5,0.1,0.7c0.1,0.2,0.2,0.4,0.3,0.5v0.2h-1.3c0-0.1-0.1-0.2-0.1-0.3
			c0-0.1,0-0.3-0.1-0.6l-0.1-1.3c0-0.5-0.2-0.8-0.5-1c-0.2-0.1-0.5-0.1-0.9-0.1h-2.3v3.3h-1V57.9z M125.6,61.4
			c0.5,0,0.8-0.1,1.1-0.3s0.4-0.5,0.4-1.1c0-0.5-0.2-0.9-0.6-1.1c-0.2-0.1-0.5-0.2-0.8-0.2h-2.5v2.6H125.6z"/>
		<path d="M132.2,57.9h1v7.7h-1V57.9z"/>
		<path d="M139.3,57.9h1.2l2.8,7.7h-1.1l-0.8-2.3h-3l-0.8,2.3h-1.1L139.3,57.9z M141,62.5l-1.2-3.4l-1.2,3.4H141z"/>
	</g>
	<g>
		<polygon points="81.2,39.7 83.1,41.1 85.3,40.3 84.6,42.6 86,44.4 83.7,44.5 82.3,46.4 81.6,44.2 79.3,43.5 81.2,42.1 		"/>
		<polygon points="90.6,36 92.1,37.8 94.5,37.6 93.2,39.6 94.2,41.8 91.9,41.2 90.1,42.8 89.9,40.4 87.9,39.2 90.1,38.3 		"/>
		<polygon points="100.2,34.8 101.3,36.9 103.6,37.2 101.9,38.9 102.3,41.2 100.2,40.1 98.1,41.2 98.5,38.9 96.8,37.2 99.2,36.9 		
			"/>
		<polygon points="109.9,36 110.4,38.3 112.6,39.2 110.5,40.4 110.4,42.8 108.6,41.2 106.3,41.8 107.2,39.6 106,37.6 108.4,37.8 		
			"/>
		<polygon points="119.4,39.8 119.3,42.1 121.2,43.6 118.9,44.2 118.1,46.4 116.8,44.5 114.5,44.4 115.9,42.6 115.2,40.3 
			117.4,41.1 		"/>
	</g>
	<g>
		<path class="st0" d="M146.9,36.6c-13.6-10.1-29.7-15.4-46.6-15.4s-33.1,5.3-46.6,15.4c-12.8,9.5-22.2,22.3-27.4,37.2h1.4
			c5.1-14.5,14.3-27,26.8-36.2c13.3-9.9,29.2-15.1,45.8-15.1c16.7,0,32.5,5.2,45.8,15.1c12.4,9.2,21.7,21.7,26.8,36.2h1.4
			C169.1,58.9,159.6,46.1,146.9,36.6z"/>
		<path class="st0" d="M53.6,162.5c13.6,10.1,29.7,15.4,46.6,15.4s33.1-5.3,46.6-15.4c12.8-9.5,22.2-22.3,27.4-37.2h-1.4
			c-5.1,14.5-14.3,27-26.8,36.2c-13.3,9.9-29.2,15.1-45.8,15.1c-16.7,0-32.5-5.2-45.8-15.1c-12.4-9.2-21.7-21.7-26.8-36.2h-1.4
			C31.4,140.2,40.9,153.1,53.6,162.5z"/>
		<path class="st0" d="M51.9,34.3C66,23.9,82.7,18.4,100.2,18.4s34.3,5.5,48.3,15.9c13.5,10,23.4,23.7,28.7,39.5h2.7
			c-5.4-16.7-15.7-31.1-29.9-41.6c-14.5-10.8-31.7-16.4-49.9-16.4s-35.3,5.7-49.9,16.4C36.2,42.7,25.9,57.1,20.5,73.8h2.7
			C28.5,58,38.4,44.3,51.9,34.3z"/>
		<path class="st0" d="M148.6,164.8c-14.1,10.4-30.8,15.9-48.3,15.9c-17.6,0-34.3-5.5-48.3-15.9c-13.5-10-23.4-23.7-28.7-39.5h-2.7
			c5.4,16.7,15.7,31.1,29.9,41.6c14.5,10.8,31.7,16.4,49.9,16.4s35.3-5.7,49.9-16.4c14.2-10.5,24.5-24.9,29.9-41.6h-2.7
			C172,141.2,162.1,154.8,148.6,164.8z"/>
	</g>
</g>
</svg>
