<?xml version="1.0" encoding="utf-8"?>
<!-- Generator: Adobe Illustrator 24.0.0, SVG Export Plug-In . SVG Version: 6.00 Build 0)  -->
<svg version="1.1" id="Livello_1" xmlns="http://www.w3.org/2000/svg" xmlns:xlink="http://www.w3.org/1999/xlink" x="0px" y="0px"
	 viewBox="0 0 200 90" style="enable-background:new 0 0 200 90;" xml:space="preserve">
<style type="text/css">
	.st0{fill:#FFFFFF;}
	.st1{fill-rule:evenodd;clip-rule:evenodd;fill:#FFFFFF;}
	.st2{display:none;}
	.st3{display:inline;fill:#1D1D1B;}
	.st4{display:inline;fill:#FFFFFF;}
</style>
<g id="Livello_1_1_">
	<g>
		<path class="st0" d="M9.3,24c5-5.1,11.1-7.7,18.1-7.8c0.2,0,0.5,0,0.7,0s0.5,0,0.7,0c0.3,0,0.5,0,0.8,0c0.2,0,0.5,0,0.7,0l-0.1,52
			c-0.2,0-0.5,0-0.7,0s-0.5,0-0.8,0c-0.2,0-0.5,0-0.7,0s-0.5,0-0.7,0c-7.1-0.1-13.1-2.8-18.1-7.8c-5-5.1-7.5-11.1-7.5-18.2
			C1.8,35.2,4.3,29.1,9.3,24 M12.4,55.4c3.2,3.8,7.3,6.1,12.2,6.9V22.2c-4.9,0.8-9,3.1-12.2,6.9s-4.8,8.2-4.8,13.2
			C7.5,47.2,9.1,51.6,12.4,55.4z"/>
		<path class="st0" d="M54.2,60.4c-5,5.1-11,7.7-18.1,7.8h-0.7h-0.7h-0.8h-0.7v-52h0.7h0.8h0.7H36c7.1,0.1,13.1,2.7,18.1,7.8
			s7.5,11.1,7.5,18.2C61.7,49.3,59.2,55.4,54.2,60.4 M51.1,29.1c-3.2-3.8-7.3-6.1-12.2-6.9v40.1c4.9-0.8,9-3.1,12.2-6.9
			c3.2-3.8,4.8-8.2,4.8-13.2C55.9,37.3,54.3,32.9,51.1,29.1z"/>
		<path class="st0" d="M107.5,60.6c-5.1,5.1-11.2,7.6-18.3,7.6c-7.1,0-13.3-2.5-18.3-7.6c-5.1-5.1-7.6-11.2-7.6-18.4
			c0-7.1,2.5-13.3,7.6-18.3c5.1-5.1,11.2-7.6,18.3-7.6c7.1,0,13.3,2.5,18.3,7.6c5.1,5.1,7.6,11.2,7.6,18.3
			C115.1,49.4,112.6,55.5,107.5,60.6 M103.5,27.9c-4-4-8.8-5.9-14.4-5.9s-10.4,2-14.3,5.9c-4,4-6,8.7-6,14.3s2,10.4,6,14.3
			c4,4,8.8,6,14.3,6c5.6,0,10.4-2,14.4-6s5.9-8.8,5.9-14.3C109.5,36.6,107.5,31.8,103.5,27.9z"/>
		<rect x="152.2" y="16.2" class="st0" width="5.7" height="52"/>
		<path class="st0" d="M192.7,68.2l-3.9-12.6h-18l-3.9,12.6h-6l4-12.6h-3v-5.9h4.8l10.4-33.2h5.4l16.2,51.8L192.7,68.2L192.7,68.2z
			 M179.8,26.8l-7.1,22.8h14.2L179.8,26.8z"/>
		<polygon class="st0" points="133.2,34.9 137.1,31.6 133.2,27.7 129.2,31.2 		"/>
		<polygon class="st0" points="122.1,62.4 128.9,68.4 116.7,68.3 116.7,14.7 133.2,27.7 129.2,31.2 122.3,26.3 		"/>
		<polygon class="st0" points="133.2,27.7 137.1,31.6 144.2,26.3 143.9,62.5 137.1,68.2 149.7,68.3 149.8,14.7 		"/>
		<path class="st0" d="M197,75.6h1.5V85H197V75.6z M191.8,75.6h4.6v1.3h-1.5v8h-1.5v-8h-1.5v-1.3H191.8z M189.3,82h1.4l-0.7-4.7
			L189.3,82z M192.6,85h-1.5l-0.3-1.7H189l-0.3,1.7h-1.4l1.5-9.4h2.2L192.6,85z M185.3,75.6h1.5V85h-1.5V75.6z M184.4,81.5v1.2
			c0,0.8-0.2,1.3-0.6,1.7c-0.4,0.4-0.9,0.6-1.6,0.6c-0.7,0-1.3-0.2-1.6-0.6c-0.4-0.4-0.6-1-0.6-1.7v-4.9c0-0.8,0.2-1.3,0.6-1.7
			c0.4-0.4,0.9-0.6,1.6-0.6c0.7,0,1.3,0.2,1.6,0.6c0.4,0.4,0.6,1,0.6,1.7v0.9H183v-1c0-0.3-0.1-0.6-0.2-0.7
			c-0.1-0.1-0.3-0.2-0.6-0.2c-0.2,0-0.4,0.1-0.6,0.2c-0.1,0.1-0.2,0.4-0.2,0.7v5.1c0,0.3,0.1,0.6,0.2,0.7c0.1,0.1,0.3,0.2,0.6,0.2
			c0.2,0,0.4-0.1,0.6-0.2c0.1-0.1,0.2-0.4,0.2-0.7v-1.3C183,81.5,184.4,81.5,184.4,81.5z M174.6,77.8c0-0.8,0.2-1.3,0.6-1.7
			c0.4-0.4,0.9-0.6,1.7-0.6c0.7,0,1.3,0.2,1.7,0.6s0.6,1,0.6,1.7v4.9c0,0.8-0.2,1.3-0.6,1.7c-0.4,0.4-0.9,0.6-1.7,0.6
			c-0.7,0-1.3-0.2-1.7-0.6s-0.6-1-0.6-1.7V77.8z M176.1,82.8c0,0.3,0.1,0.6,0.2,0.7c0.1,0.1,0.3,0.2,0.6,0.2c0.2,0,0.4-0.1,0.6-0.2
			c0.1-0.1,0.2-0.4,0.2-0.7v-5.1c0-0.3-0.1-0.6-0.2-0.7c-0.1-0.1-0.3-0.2-0.6-0.2c-0.2,0-0.4,0.1-0.6,0.2c-0.1,0.1-0.2,0.4-0.2,0.7
			V82.8z M169.5,77.8c0-0.8,0.2-1.3,0.5-1.7c0.4-0.4,0.9-0.6,1.6-0.6c0.7,0,1.3,0.2,1.6,0.6c0.4,0.4,0.5,1,0.5,1.7v0.3h-1.4v-0.4
			c0-0.3-0.1-0.6-0.2-0.7c-0.1-0.1-0.3-0.2-0.5-0.2s-0.4,0.1-0.5,0.2s-0.2,0.4-0.2,0.7c0,0.3,0.1,0.6,0.2,0.8
			c0.1,0.2,0.3,0.5,0.5,0.7s0.4,0.4,0.7,0.7c0.2,0.2,0.5,0.5,0.7,0.7c0.2,0.3,0.4,0.6,0.5,0.9s0.2,0.7,0.2,1.2
			c0,0.8-0.2,1.3-0.6,1.7c-0.4,0.4-0.9,0.6-1.6,0.6c-0.7,0-1.3-0.2-1.6-0.6c-0.4-0.4-0.6-1-0.6-1.7v-0.6h1.4v0.7
			c0,0.3,0.1,0.6,0.2,0.7c0.1,0.1,0.3,0.2,0.6,0.2c0.2,0,0.4-0.1,0.6-0.2c0.1-0.1,0.2-0.4,0.2-0.7c0-0.3-0.1-0.6-0.2-0.8
			c-0.1-0.2-0.3-0.5-0.5-0.7s-0.4-0.4-0.7-0.7c-0.2-0.2-0.5-0.5-0.7-0.7c-0.2-0.3-0.4-0.6-0.5-0.9C169.6,78.7,169.5,78.3,169.5,77.8
			z M164.5,77.8c0-0.8,0.2-1.3,0.5-1.7c0.4-0.4,0.9-0.6,1.6-0.6c0.7,0,1.3,0.2,1.6,0.6c0.4,0.4,0.5,1,0.5,1.7v0.3h-1.4v-0.4
			c0-0.3-0.1-0.6-0.2-0.7c-0.1-0.1-0.3-0.2-0.5-0.2s-0.4,0.1-0.5,0.2s-0.2,0.4-0.2,0.7c0,0.3,0.1,0.6,0.2,0.8s0.3,0.5,0.5,0.7
			s0.4,0.4,0.7,0.7c0.2,0.2,0.5,0.5,0.7,0.7c0.2,0.3,0.4,0.6,0.5,0.9s0.2,0.7,0.2,1.2c0,0.8-0.2,1.3-0.6,1.7
			c-0.4,0.4-0.9,0.6-1.6,0.6c-0.7,0-1.3-0.2-1.6-0.6c-0.4-0.4-0.6-1-0.6-1.7v-0.6h1.4v0.7c0,0.3,0.1,0.6,0.2,0.7
			c0.1,0.1,0.3,0.2,0.6,0.2c0.2,0,0.4-0.1,0.6-0.2c0.1-0.1,0.2-0.4,0.2-0.7c0-0.3-0.1-0.6-0.2-0.8c-0.1-0.2-0.3-0.5-0.5-0.7
			s-0.4-0.4-0.7-0.7c-0.2-0.2-0.5-0.5-0.7-0.7c-0.2-0.3-0.4-0.6-0.5-0.9C164.6,78.7,164.5,78.3,164.5,77.8z M160.6,82h1.4l-0.7-4.7
			L160.6,82z M164,85h-1.5l-0.3-1.7h-1.8l-0.3,1.7h-1.4l1.5-9.4h2.2L164,85z M154.6,75.6h1.5V85h-1.5V75.6z M150.2,78.2V85h-1.3
			v-9.4h1.9l1.5,5.6v-5.6h1.3V85H152L150.2,78.2z M144.8,82h1.4l-0.7-4.7L144.8,82z M148.2,85h-1.5l-0.3-1.7h-1.8l-0.3,1.7H143
			l1.5-9.4h2.2L148.2,85z M140.8,75.6h1.5V85h-1.5V75.6z M136.3,75.6h1.5v8h2.4V85h-3.9V75.6z M132.2,82h1.4l-0.7-4.7L132.2,82z
			 M135.6,85h-1.5l-0.3-1.7H132l-0.3,1.7h-1.4l1.5-9.4h2.2L135.6,85z M126.5,75.6h4.6v1.3h-1.5v8h-1.5v-8h-1.5v-1.3H126.5z
			 M124.4,75.6h1.5V85h-1.5V75.6z M116.9,77.8c0-0.8,0.2-1.3,0.6-1.7c0.4-0.4,0.9-0.6,1.7-0.6c0.7,0,1.3,0.2,1.7,0.6
			c0.4,0.4,0.6,1,0.6,1.7v4.9c0,0.8-0.2,1.3-0.6,1.7c-0.4,0.4-0.9,0.6-1.7,0.6c-0.7,0-1.3-0.2-1.7-0.6c-0.4-0.4-0.6-1-0.6-1.7V77.8z
			 M118.3,82.8c0,0.3,0.1,0.6,0.2,0.7s0.3,0.2,0.6,0.2c0.2,0,0.4-0.1,0.6-0.2c0.1-0.1,0.2-0.4,0.2-0.7v-5.1c0-0.3-0.1-0.6-0.2-0.7
			s-0.3-0.2-0.6-0.2c-0.2,0-0.4,0.1-0.6,0.2c-0.1,0.1-0.2,0.4-0.2,0.7V82.8z M116.3,81.5v1.2c0,0.8-0.2,1.3-0.6,1.7
			c-0.4,0.4-0.9,0.6-1.6,0.6s-1.3-0.2-1.6-0.6c-0.4-0.4-0.6-1-0.6-1.7v-4.9c0-0.8,0.2-1.3,0.6-1.7c0.4-0.4,0.9-0.6,1.6-0.6
			s1.3,0.2,1.6,0.6c0.4,0.4,0.6,1,0.6,1.7v0.9h-1.4v-1c0-0.3-0.1-0.6-0.2-0.7s-0.3-0.2-0.6-0.2c-0.2,0-0.4,0.1-0.6,0.2
			c-0.1,0.1-0.2,0.4-0.2,0.7v5.1c0,0.3,0.1,0.6,0.2,0.7s0.3,0.2,0.6,0.2c0.2,0,0.4-0.1,0.6-0.2c0.1-0.1,0.2-0.4,0.2-0.7v-1.3
			C114.9,81.5,116.3,81.5,116.3,81.5z M109.5,75.6h1.5V85h-1.5V75.6z M104.3,75.6h4.6v1.3h-1.5v8h-1.5v-8h-1.5L104.3,75.6
			L104.3,75.6z M99.5,77.8c0-0.8,0.2-1.3,0.5-1.7c0.4-0.4,0.9-0.6,1.6-0.6s1.3,0.2,1.6,0.6c0.4,0.4,0.5,1,0.5,1.7v0.3h-1.4v-0.4
			c0-0.3-0.1-0.6-0.2-0.7s-0.3-0.2-0.5-0.2s-0.4,0.1-0.5,0.2s-0.2,0.4-0.2,0.7c0,0.3,0.1,0.6,0.2,0.8s0.3,0.5,0.5,0.7
			s0.4,0.4,0.7,0.7c0.2,0.2,0.5,0.5,0.7,0.7c0.2,0.3,0.4,0.6,0.5,0.9s0.2,0.7,0.2,1.2c0,0.8-0.2,1.3-0.6,1.7
			c-0.4,0.4-0.9,0.6-1.6,0.6s-1.3-0.2-1.6-0.6c-0.4-0.4-0.6-1-0.6-1.7v-0.6h1.4v0.7c0,0.3,0.1,0.6,0.2,0.7s0.3,0.2,0.6,0.2
			c0.2,0,0.4-0.1,0.6-0.2c0.1-0.1,0.2-0.4,0.2-0.7c0-0.3-0.1-0.6-0.2-0.8c-0.1-0.2-0.3-0.5-0.5-0.7s-0.4-0.4-0.7-0.7
			c-0.2-0.2-0.5-0.5-0.7-0.7c-0.2-0.3-0.4-0.6-0.5-0.9S99.5,78.3,99.5,77.8z M96.2,79.5h2v1.3h-2v2.7h2.6V85h-4v-9.4h4v1.3h-2.6
			V79.5z M90.6,82.2l1-6.7h2.1V85h-1.4v-6.7l-1,6.7h-1.4l-1.1-6.6V85h-1.3v-9.4h2.1L90.6,82.2z M82,77.8c0-0.8,0.2-1.3,0.6-1.7
			c0.4-0.4,0.9-0.6,1.7-0.6c0.7,0,1.3,0.2,1.7,0.6c0.4,0.4,0.6,1,0.6,1.7v4.9c0,0.8-0.2,1.3-0.6,1.7c-0.4,0.4-0.9,0.6-1.7,0.6
			c-0.7,0-1.3-0.2-1.7-0.6c-0.4-0.4-0.6-1-0.6-1.7V77.8z M83.5,82.8c0,0.3,0.1,0.6,0.2,0.7s0.3,0.2,0.6,0.2c0.2,0,0.4-0.1,0.6-0.2
			c0.1-0.1,0.2-0.4,0.2-0.7v-5.1c0-0.3-0.1-0.6-0.2-0.7s-0.3-0.2-0.6-0.2c-0.2,0-0.4,0.1-0.6,0.2c-0.1,0.1-0.2,0.4-0.2,0.7V82.8z
			 M78.1,76.9v6.7H79c0.2,0,0.4-0.1,0.6-0.2c0.1-0.1,0.2-0.4,0.2-0.7v-4.9c0-0.3-0.1-0.6-0.2-0.7s-0.3-0.2-0.6-0.2
			C79,76.9,78.1,76.9,78.1,76.9z M76.6,75.6H79c0.7,0,1.3,0.2,1.7,0.6c0.4,0.4,0.5,1,0.5,1.7v4.7c0,0.8-0.2,1.3-0.5,1.7
			c-0.4,0.5-1,0.7-1.7,0.7h-2.3L76.6,75.6L76.6,75.6z M69.1,77.8c0-0.8,0.2-1.3,0.6-1.7c0.4-0.4,0.9-0.6,1.7-0.6
			c0.7,0,1.3,0.2,1.7,0.6c0.4,0.4,0.6,1,0.6,1.7v4.9c0,0.8-0.2,1.3-0.6,1.7c-0.4,0.4-0.9,0.6-1.7,0.6c-0.7,0-1.3-0.2-1.7-0.6
			c-0.4-0.4-0.6-1-0.6-1.7V77.8z M70.6,82.8c0,0.3,0.1,0.6,0.2,0.7s0.3,0.2,0.6,0.2c0.2,0,0.4-0.1,0.6-0.2c0.1-0.1,0.2-0.4,0.2-0.7
			v-5.1c0-0.3-0.1-0.6-0.2-0.7s-0.3-0.2-0.6-0.2c-0.2,0-0.4,0.1-0.6,0.2c-0.1,0.1-0.2,0.4-0.2,0.7V82.8z M65.3,76.9v2.9h0.6
			c0.3,0,0.5-0.1,0.7-0.2s0.2-0.4,0.2-0.8v-0.9c0-0.3-0.1-0.6-0.2-0.7C66.5,77,66.3,77,66,77h-0.7V76.9z M66.9,85
			c0-0.1,0-0.1-0.1-0.2c0-0.1,0-0.1,0-0.2s0-0.2,0-0.3c0-0.1,0-0.3,0-0.5v-1.5c0-0.4-0.1-0.7-0.2-0.9c-0.2-0.2-0.4-0.3-0.7-0.3h-0.5
			V85h-1.5v-9.4h2.2c0.8,0,1.3,0.2,1.7,0.5c0.3,0.4,0.5,0.9,0.5,1.6v0.7c0,1-0.3,1.6-1,1.9c0.4,0.2,0.6,0.4,0.8,0.7
			c0.1,0.3,0.2,0.8,0.2,1.3v1.4c0,0.2,0,0.4,0,0.6s0.1,0.4,0.1,0.5h-1.5V85z M58.4,77.8c0-0.8,0.2-1.3,0.6-1.7
			c0.4-0.4,0.9-0.6,1.7-0.6c0.7,0,1.3,0.2,1.7,0.6s0.6,1,0.6,1.7v4.9c0,0.8-0.2,1.3-0.6,1.7C62,84.8,61.5,85,60.7,85
			c-0.7,0-1.3-0.2-1.7-0.6s-0.6-1-0.6-1.7V77.8z M59.9,82.8c0,0.3,0.1,0.6,0.2,0.7c0.1,0.1,0.3,0.2,0.6,0.2c0.2,0,0.4-0.1,0.6-0.2
			c0.1-0.1,0.2-0.4,0.2-0.7v-5.1c0-0.3-0.1-0.6-0.2-0.7c-0.1-0.1-0.3-0.2-0.6-0.2c-0.2,0-0.4,0.1-0.6,0.2c-0.1,0.1-0.2,0.4-0.2,0.7
			V82.8z M55.3,83.2l1.1-7.6h1.4L56.4,85h-2.2l-1.5-9.4h1.5L55.3,83.2z M49.7,82h1.4l-0.7-4.7L49.7,82z M53.1,85h-1.5l-0.3-1.7h-1.8
			L49.3,85h-1.4l1.5-9.4h2.2L53.1,85z M43.7,75.6h1.5v8h2.4V85h-3.9V75.6z M39.1,75.6h1.5V85h-1.5V75.6z M35.1,76.9v6.7h0.8
			c0.2,0,0.4-0.1,0.6-0.2c0.1-0.1,0.2-0.4,0.2-0.7v-4.9c0-0.3-0.1-0.6-0.2-0.7c-0.1-0.1-0.3-0.2-0.6-0.2
			C35.9,76.9,35.1,76.9,35.1,76.9z M33.6,75.6h2.3c0.7,0,1.3,0.2,1.7,0.6s0.5,1,0.5,1.7v4.7c0,0.8-0.2,1.3-0.5,1.7
			c-0.4,0.4-0.9,0.6-1.7,0.6h-2.3V75.6z M29,75.6h1.5V85H29V75.6z M25,76.9v2.9h0.6c0.3,0,0.5-0.1,0.7-0.2s0.2-0.4,0.2-0.8v-0.9
			c0-0.3-0.1-0.6-0.2-0.7C26.2,77,26,77,25.7,77H25V76.9z M26.6,85c0-0.1,0-0.1-0.1-0.2c0-0.1,0-0.1,0-0.2s0-0.2,0-0.3
			c0-0.1,0-0.3,0-0.5v-1.5c0-0.4-0.1-0.7-0.2-0.9c-0.2-0.2-0.4-0.3-0.7-0.3H25V85h-1.5v-9.4h2.2c0.8,0,1.3,0.2,1.7,0.5
			c0.3,0.4,0.5,0.9,0.5,1.6v0.7c0,1-0.3,1.6-1,1.9c0.4,0.2,0.6,0.4,0.8,0.7c0.1,0.3,0.2,0.8,0.2,1.3v1.4c0,0.2,0,0.4,0,0.6
			s0.1,0.4,0.1,0.5h-1.4V85z M18.1,77.8c0-0.8,0.2-1.3,0.6-1.7c0.4-0.4,0.9-0.6,1.7-0.6c0.7,0,1.3,0.2,1.7,0.6
			c0.4,0.4,0.6,1,0.6,1.7v4.9c0,0.8-0.2,1.3-0.6,1.7c-0.4,0.4-0.9,0.6-1.7,0.6c-0.7,0-1.3-0.2-1.7-0.6c-0.4-0.4-0.6-1-0.6-1.7V77.8z
			 M19.6,82.8c0,0.3,0.1,0.6,0.2,0.7s0.3,0.2,0.6,0.2c0.2,0,0.4-0.1,0.6-0.2c0.1-0.1,0.2-0.4,0.2-0.7v-5.1c0-0.3-0.1-0.6-0.2-0.7
			s-0.3-0.2-0.6-0.2c-0.2,0-0.4,0.1-0.6,0.2c-0.1,0.1-0.2,0.4-0.2,0.7V82.8z M13.4,75.6H18v1.3h-1.5v8H15v-8h-1.5v-1.3H13.4z
			 M10.9,82h1.4l-0.7-4.7L10.9,82z M14.2,85h-1.5l-0.3-1.7h-1.8L10.4,85H9.1l1.5-9.4h2.2L14.2,85z M5.6,76.9v6.7h0.8
			c0.2,0,0.4-0.1,0.6-0.2c0.1-0.1,0.2-0.4,0.2-0.7v-4.9c0-0.3-0.1-0.6-0.2-0.7s-0.3-0.2-0.6-0.2C6.4,76.9,5.6,76.9,5.6,76.9z
			 M4.1,75.6h2.3c0.7,0,1.3,0.2,1.7,0.6s0.5,1,0.5,1.7v4.7c0,0.8-0.2,1.3-0.5,1.7C7.7,84.8,7.2,85,6.4,85H4.1V75.6z"/>
		<path class="st0" d="M151.6,9.2c0,2.9-2.4,5.3-5.3,5.3c-2.9,0-5.3-2.4-5.3-5.3s2.4-5.3,5.3-5.3C149.2,4,151.6,6.3,151.6,9.2"/>
		<path class="st0" d="M126.3,9.1c0,3.1-2.5,5.5-5.5,5.5c-3.1,0-5.5-2.5-5.5-5.5c0-3.1,2.5-5.5,5.5-5.5C123.8,3.6,126.3,6,126.3,9.1
			"/>
		<path class="st1" d="M189.3,17.3v1.5h0.5c0.6,0,1,0,1.2-0.1c0.1,0,0.3-0.1,0.3-0.3c0.1-0.1,0.1-0.3,0.1-0.4c0-0.2-0.1-0.4-0.2-0.5
			c-0.2-0.1-0.5-0.2-1.2-0.2H189.3z M188.8,16.9h1.7c0.6,0,1,0.1,1.3,0.3c0.3,0.2,0.4,0.5,0.4,0.8s-0.1,0.6-0.4,0.9
			c-0.2,0.2-0.5,0.3-0.9,0.3c0.2,0.1,0.3,0.2,0.4,0.2c0.1,0.1,0.2,0.2,0.3,0.4c0.1,0.2,0.3,0.4,0.3,0.5l0.4,0.8h-0.7l-0.4-0.7
			c-0.3-0.5-0.6-0.9-0.7-1c-0.2-0.1-0.4-0.2-0.8-0.2h-0.4v1.9h-0.6L188.8,16.9L188.8,16.9z M193.8,19.1c0-1-0.3-1.8-1-2.5
			c-0.7-0.7-1.5-1-2.5-1s-1.8,0.3-2.5,1c-0.7,0.7-1,1.5-1,2.5s0.3,1.8,1,2.5s1.5,1,2.5,1s1.8-0.3,2.5-1
			C193.4,21,193.8,20.1,193.8,19.1z M194.2,19.1c0,1.1-0.4,2-1.2,2.8s-1.7,1.2-2.8,1.2s-2-0.4-2.8-1.2c-0.8-0.8-1.2-1.7-1.2-2.8
			c0-1.1,0.4-2,1.2-2.8c0.8-0.8,1.7-1.2,2.8-1.2s2,0.4,2.8,1.2C193.8,17.1,194.2,18,194.2,19.1z"/>
	</g>
</g>
<g id="Livello_3" class="st2">
	<polygon class="st3" points="233.8,253 247.8,241.1 233.8,227 219.2,239.9 	"/>
	<polygon class="st3" points="233.8,227 247.8,241.1 273.3,222 272.3,352.9 247.8,373.3 293.1,373.7 293.7,180.1 	"/>
	<path class="st3" d="M300.1,160.4c0,10.5-8.5,19.1-19.1,19.1c-10.5,0-19.1-8.5-19.1-19.1c0-10.5,8.5-19.1,19.1-19.1
		C291.6,141.3,300.1,149.8,300.1,160.4"/>
</g>
<g id="Livello_2_1_" class="st2">
	<path class="st4" d="M47.1,232.1c18.1-18.3,39.9-27.7,65.5-28.1c0.8,0,1.7,0,2.5,0s1.7,0,2.5,0c1,0,1.9,0,2.7,0c0.8,0,1.7,0,2.5,0
		l-0.2,187.9c-0.8,0-1.7,0-2.5,0s-1.7,0-2.7,0c-0.8,0-1.7,0-2.5,0s-1.7,0-2.5,0C86.8,391.4,65,382,47,363.6
		c-18-18.3-27-40.2-27-65.7C20,272.3,29,250.4,47.1,232.1 M58.1,345.4c11.6,13.8,26.4,22.2,44.2,25l0.1-145
		c-17.8,2.8-32.5,11.1-44.2,24.9C46.5,264.1,40.7,280,40.7,298C40.6,315.8,46.5,331.6,58.1,345.4z"/>
	<path class="st4" d="M209.1,363.7c-18.1,18.3-39.9,27.7-65.5,28.2h-2.5h-2.5h-2.7h-2.5v-188h2.5h2.7h2.5h2.5
		c25.6,0.5,47.5,9.9,65.5,28.2c18.1,18.3,27.1,40.2,27.1,65.6C236.2,323.4,227.2,345.4,209.1,363.7 M198,250.3
		c-11.7-13.8-26.4-22.1-44.2-25v145c17.8-2.8,32.5-11.1,44.2-25c11.6-13.8,17.5-29.7,17.5-47.7C215.5,280,209.7,264.2,198,250.3z"/>
</g>
</svg>
