<?xml version="1.0" encoding="utf-8"?>
<!-- Generator: Adobe Illustrator 24.0.0, SVG Export Plug-In . SVG Version: 6.00 Build 0)  -->
<svg version="1.1" id="Livello_1" xmlns="http://www.w3.org/2000/svg" xmlns:xlink="http://www.w3.org/1999/xlink" x="0px" y="0px"
	 viewBox="0 0 440 200" style="enable-background:new 0 0 440 200;" xml:space="preserve">
<style type="text/css">
	.st0{fill:#84B120;}
	.st1{fill:#0F4E7C;}
	.st2{fill:#DBD4E8;}
	.st3{fill:#84B120;stroke:#84B120;stroke-width:0.75;stroke-miterlimit:10;}
</style>
<g>
	<g>
		<rect x="16.2" y="15.8" class="st0" width="27.4" height="27.5"/>
		<rect x="47.4" y="15.8" class="st0" width="27.4" height="27.5"/>
		<rect x="16.2" y="47.1" class="st0" width="27.4" height="27.5"/>
		<rect x="47.4" y="47.1" class="st0" width="27.4" height="27.5"/>
	</g>
	<rect x="90.9" y="90.9" class="st0" width="27.4" height="27.5"/>
	<rect x="122" y="90.9" class="st0" width="27.4" height="27.5"/>
	<rect x="90.9" y="122.2" class="st0" width="27.4" height="27.5"/>
	<rect x="122" y="122.2" class="st0" width="27.4" height="27.5"/>
	<rect x="90.9" y="30.6" class="st1" width="20.6" height="20.6"/>
	<rect x="114.2" y="30.6" class="st1" width="20.6" height="20.6"/>
	<rect x="90.9" y="54" class="st1" width="20.6" height="20.6"/>
	<rect x="114.2" y="54" class="st1" width="20.6" height="20.6"/>
	<g>
		<rect x="30.9" y="90.9" class="st1" width="20.6" height="20.6"/>
		<rect x="54.2" y="90.9" class="st1" width="20.6" height="20.6"/>
		<rect x="30.9" y="114.4" class="st1" width="20.6" height="20.6"/>
		<rect x="54.2" y="114.4" class="st1" width="20.6" height="20.6"/>
	</g>
	<rect x="80.4" y="15.5" class="st2" width="4.9" height="134.4"/>
	<rect x="15.9" y="80.2" class="st2" width="403" height="5"/>
</g>
<g>
	<path class="st1" d="M190.4,56.4v4.5h-21.6V63h16.7c0.3,0,0.6,0,1,0.1c0.7,0.1,1.3,0.3,1.9,0.6c0.6,0.3,1.1,0.6,1.6,1
		c0.7,0.6,1.2,1.3,1.5,2.1c0.3,0.8,0.4,1.6,0.3,2.4c-0.1,0.8-0.3,1.6-0.7,2.3c-0.4,0.7-1,1.4-1.8,1.8c-0.3,0.2-0.5,0.3-0.8,0.5
		c-0.3,0.1-0.6,0.2-0.9,0.3c-0.6,0.2-1.2,0.3-1.8,0.3H165v-4.5h22v-2.2h-17c-1.3,0-2.5-0.3-3.6-1c-0.8-0.5-1.5-1.2-1.9-1.9
		c-0.4-0.7-0.7-1.5-0.7-2.3s0.1-1.6,0.5-2.4s0.9-1.4,1.6-2c0.3-0.2,0.5-0.4,0.8-0.5c0.3-0.2,0.6-0.3,0.9-0.5
		c0.5-0.2,0.9-0.3,1.4-0.4c0.5-0.1,1-0.1,1.5-0.1h19.9V56.4z"/>
	<path class="st1" d="M193.8,62.1c0-0.1,0-0.2,0-0.2c0-0.1,0-0.2,0-0.3c0-0.7,0.2-1.3,0.4-1.8s0.6-1,1-1.5c0.1-0.1,0.2-0.2,0.4-0.3
		c0.1-0.1,0.3-0.2,0.4-0.3c0.5-0.4,1-0.7,1.6-0.9c0.5-0.2,1.2-0.3,2.1-0.3h0.5h19V61h-20.8v2h20.8v4.6h-20.8v2.1h20.8v4.5h-19.1
		c-1,0-1.9-0.1-2.6-0.4c-0.7-0.3-1.3-0.7-1.9-1.2c-0.7-0.7-1.2-1.4-1.5-2s-0.4-1.3-0.4-2.1v-6.4H193.8z"/>
	<path class="st1" d="M241.5,56.4c0.9,0,1.8,0.2,2.5,0.6c0.7,0.4,1.4,1,2,1.9c1,1.4,1.2,2.9,0.8,4.5c-0.1,0.2-0.2,0.5-0.3,0.7
		c-0.1,0.2-0.2,0.5-0.4,0.7L246,65l-0.1,0.1l0.2,0.2l0.1,0.2c0.1,0.1,0.1,0.2,0.2,0.2c0,0.1,0.1,0.2,0.1,0.3
		c0.4,0.8,0.6,1.5,0.6,2.1v6.1h-4.6v-6.8h-16.2v6.8h-4.6V56.4H241.5z M242.5,60.8h-16.1V63h16.1V60.8z"/>
	<path class="st1" d="M269.5,56.4c0.9,0,1.8,0.2,2.5,0.6c0.7,0.4,1.4,1,2,1.9c1,1.4,1.2,2.9,0.8,4.5c-0.1,0.2-0.2,0.5-0.3,0.7
		c-0.1,0.2-0.2,0.5-0.4,0.7L274,65l-0.1,0.1l0.2,0.2l0.1,0.2c0.1,0.1,0.1,0.2,0.2,0.2c0,0.1,0.1,0.2,0.1,0.3
		c0.4,0.8,0.6,1.5,0.6,2.1v6.1h-4.6v-6.8h-16.2v6.8h-4.6V56.4H269.5z M270.5,60.8h-16.1V63h16.1V60.8z"/>
	<path class="st1" d="M284,60.7l0.7-1.4c0.1-0.1,0.1-0.2,0.2-0.2c0-0.1,0.1-0.2,0.1-0.2c0.6-0.9,1.1-1.5,1.7-1.9
		c0.5-0.4,1.1-0.7,1.7-0.8c0.9-0.2,1.8,0,2.5,0.4s1.5,1.2,2.2,2.3c0.1,0.1,0.1,0.2,0.2,0.3s0.1,0.2,0.2,0.3l0.7,1.4l7.5,13.5h-5.3
		l-2.6-4.9h-9.4l-2.6,4.9h-5.3L284,60.7z M289.1,60.9l-2.2,3.9h4.3L289.1,60.9z"/>
	<path class="st1" d="M303,60.5c0-0.8,0.2-1.6,0.6-2.3s0.9-1.2,1.7-1.6c0.4-0.2,0.8-0.4,1.3-0.5C307,56,307.5,56,308,56
		c0.7,0,1.3,0.2,1.9,0.5c0.5,0.3,1.1,0.8,1.6,1.5c0.4,0.5,0.8,1.1,1.1,1.9l4.1,10.2l4.5-10.7c0.1-0.4,0.3-0.7,0.4-0.9
		s0.3-0.5,0.5-0.7c0.4-0.5,0.9-0.9,1.4-1.2s1-0.5,1.6-0.6c0.7-0.1,1.4-0.1,2.1,0.1c0.7,0.2,1.2,0.5,1.7,1c0.5,0.4,0.9,1,1.2,1.7
		c0.3,0.7,0.4,1.4,0.4,2.2v13.2h-4.6V60.8l-4.4,9.6l-0.3,0.6l-0.3,0.6c-0.5,0.9-0.9,1.6-1.4,2s-1,0.7-1.5,0.9
		c-1.1,0.3-2.1,0.2-3-0.3s-1.8-1.5-2.6-3.1c-0.1-0.1-0.1-0.2-0.2-0.4c-0.1-0.1-0.1-0.2-0.2-0.4l-4.3-9.4v13.2H303V60.5z"/>
	<path class="st1" d="M332.8,62.1c0-0.1,0-0.2,0-0.2c0-0.1,0-0.2,0-0.3c0-0.7,0.2-1.3,0.4-1.8c0.2-0.5,0.6-1,1-1.5
		c0.1-0.1,0.2-0.2,0.4-0.3c0.1-0.1,0.3-0.2,0.4-0.3c0.5-0.4,1-0.7,1.6-0.9c0.5-0.2,1.2-0.3,2.1-0.3h0.5h19V61h-20.8v2h20.8v4.6
		h-20.8v2.1h20.8v4.5h-19.1c-1,0-1.9-0.1-2.6-0.4s-1.3-0.7-1.9-1.2c-0.7-0.7-1.2-1.4-1.5-2s-0.4-1.3-0.4-2.1v-6.4H332.8z"/>
	<path class="st1" d="M360.7,60.1c0-0.8,0.2-1.5,0.7-2.2s1.1-1.2,2-1.6c1-0.4,1.9-0.5,2.9-0.3s1.9,0.8,2.8,1.7l12.3,12.1V56.4h4.6
		v13.2c0,1.2-0.2,2.1-0.6,2.8c-0.4,0.7-1,1.3-1.8,1.7c-0.9,0.5-1.9,0.7-2.9,0.5s-2-0.7-3-1.7l-12.4-12.1v13.4h-4.6V60.1z"/>
	<path class="st1" d="M387.4,56.4h25.4v4.5h-10.4v13.4h-4.6V60.8h-10.4V56.4z"/>
	<path class="st1" d="M414.1,56.4h4.6v17.9h-4.6V56.4z"/>
</g>
<g>
	<path class="st3" d="M91.7,169.7H99c3,0,4.9,1.7,4.9,4.7s-1.9,4.7-4.9,4.7h-5.7v7.1h-1.6C91.7,186.2,91.7,169.7,91.7,169.7z
		 M93.3,177.8h5.4c2.2,0,3.7-1.1,3.7-3.4c0-2.3-1.5-3.4-3.7-3.4h-5.4C93.3,171,93.3,177.8,93.3,177.8z"/>
	<path class="st3" d="M113.2,169.4c5.2,0,7.8,4.1,7.8,8.6s-2.6,8.6-7.8,8.6s-7.8-4.1-7.8-8.6C105.4,173.4,108,169.4,113.2,169.4z
		 M113.2,185.2c4.3,0,6.2-3.6,6.2-7.2c0-3.6-1.8-7.2-6.2-7.2s-6.2,3.6-6.2,7.2C107,181.5,108.8,185.2,113.2,185.2z"/>
	<path class="st3" d="M123.4,169.7h7.5c2.7,0,5,1.3,5,4.3c0,2.1-1.1,3.8-3.2,4.2l0,0c2.1,0.3,2.8,1.8,2.9,3.7
		c0.1,1.1,0.1,3.4,0.8,4.2h-1.7c-0.4-0.6-0.4-1.9-0.4-2.6c-0.1-2.3-0.3-4.9-3.3-4.8h-6v7.3h-1.6V169.7z M124.9,177.5h5.9
		c1.9,0,3.6-1.2,3.6-3.2s-1.2-3.3-3.6-3.3h-5.9V177.5z"/>
	<path class="st3" d="M137,169.7h13.1v1.3h-5.7v15.1h-1.6V171H137V169.7z"/>
	<path class="st3" d="M151.6,169.7H163v1.3h-9.8v6h9.2v1.3h-9.2v6.5h9.9v1.3h-11.5L151.6,169.7L151.6,169.7z"/>
	<path class="st3" d="M171.7,169.7h11.4v1.3h-9.8v6h9.2v1.3h-9.2v6.5h9.9v1.3h-11.5L171.7,169.7L171.7,169.7z"/>
	<path class="st3" d="M191.8,169.7h10.5v1.3h-8.9v6h7.9v1.3h-7.9v7.8h-1.6V169.7z"/>
	<path class="st3" d="M204.4,169.7h1.6v16.5h-1.6V169.7z"/>
	<path class="st3" d="M209.3,169.7h1.8l9.6,13.9l0,0v-13.9h1.6v16.5h-1.8l-9.6-13.9l0,0v13.9h-1.6V169.7z"/>
	<path class="st3" d="M225.6,169.7H237v1.3h-9.8v6h9.2v1.3h-9.2v6.5h9.9v1.3h-11.5V169.7z"/>
	<path class="st3" d="M240.1,180.8c-0.1,3.4,2.4,4.4,5.4,4.4c1.7,0,4.4-0.9,4.4-3.3c0-1.9-1.9-2.6-3.4-3l-3.7-0.9
		c-1.9-0.5-3.7-1.4-3.7-4c0-1.6,1-4.6,5.7-4.6c3.3,0,6.1,1.8,6.1,5.1h-1.6c-0.1-2.5-2.2-3.8-4.5-3.8c-2.1,0-4.1,0.8-4.1,3.3
		c0,1.5,1.2,2.2,2.5,2.5l4,1c2.3,0.6,4.3,1.6,4.3,4.3c0,1.1-0.5,4.7-6.3,4.7c-3.9,0-6.8-1.8-6.6-5.8h1.5V180.8z"/>
	<path class="st3" d="M252.1,169.7h13.1v1.3h-5.7v15.1h-1.6V171h-5.7L252.1,169.7L252.1,169.7z"/>
	<path class="st3" d="M266.7,169.7h7.5c2.7,0,5,1.3,5,4.3c0,2.1-1.1,3.8-3.2,4.2l0,0c2.1,0.3,2.8,1.8,2.9,3.7
		c0.1,1.1,0.1,3.4,0.8,4.2H278c-0.4-0.6-0.4-1.9-0.4-2.6c-0.1-2.3-0.3-4.9-3.3-4.8h-6v7.3h-1.6V169.7z M268.3,177.5h5.9
		c1.9,0,3.6-1.2,3.6-3.2s-1.2-3.3-3.6-3.3h-5.9V177.5z"/>
	<path class="st3" d="M282.1,169.7h11.4v1.3h-9.8v6h9.2v1.3h-9.2v6.5h9.9v1.3h-11.5V169.7z"/>
	<path class="st3" d="M302.2,169.7h5.7c5,0.1,7.6,2.8,7.6,8.2s-2.6,8.1-7.6,8.2h-5.7V169.7z M303.8,184.8h3.3c4.7,0,6.8-2,6.8-6.9
		s-2.1-6.9-6.8-6.9h-3.3V184.8z"/>
	<path class="st3" d="M318.1,169.7h1.6v16.5h-1.6V169.7z"/>
	<path class="st3" d="M343.3,187.2l-2.6-1.9c-1.1,0.8-2.6,1.2-4.3,1.2c-5.2,0-7.8-4.1-7.8-8.6s2.6-8.6,7.8-8.6
		c5.2,0,7.8,4.1,7.8,8.6c0,2.5-0.8,4.9-2.5,6.5l2.4,1.8L343.3,187.2z M340.6,183.6c1.5-1.4,2.1-3.5,2.1-5.6c0-3.6-1.8-7.2-6.2-7.2
		c-4.4,0-6.2,3.6-6.2,7.2c0,3.6,1.8,7.2,6.2,7.2c1.2,0,2.2-0.3,3-0.8l-2.2-1.6l0.8-1L340.6,183.6z"/>
	<path class="st3" d="M346.5,169.7h1.6v10.2c0,3.8,1.8,5.3,4.8,5.3s4.9-1.5,4.8-5.3v-10.2h1.6v10.5c0,3.4-1.8,6.3-6.4,6.3
		s-6.4-2.9-6.4-6.3V169.7z"/>
	<path class="st3" d="M367.3,169.7h1.8l6.5,16.5h-1.7l-2-5.1h-7.5l-2,5.1h-1.7L367.3,169.7z M364.8,179.7h6.5l-3.2-8.5L364.8,179.7z
		"/>
	<path class="st3" d="M377.1,169.7h1.6v15.1h9.2v1.3h-10.8L377.1,169.7L377.1,169.7z"/>
	<path class="st3" d="M389.6,169.7h1.6v16.5h-1.6V169.7z"/>
	<path class="st3" d="M392.8,169.7h13.1v1.3h-5.7v15.1h-1.6V171h-5.7L392.8,169.7L392.8,169.7z"/>
	<path class="st3" d="M412.2,169.7h1.8l6.5,16.5h-1.7l-2-5.1h-7.5l-2,5.1h-1.7L412.2,169.7z M409.8,179.7h6.5l-3.2-8.5L409.8,179.7z
		 M410.2,165.1h1.8l2.4,3.3h-1.2L410.2,165.1z"/>
</g>
<g>
	<path class="st1" d="M163.7,91H227c0.3,0,0.6,0,1,0c0.3,0,0.6,0,0.9,0.1c2.7,0.2,5.1,0.6,7,1.4s3.7,2,5.3,3.7
		c2.2,2.1,3.7,4.2,4.6,6.3c0.9,2.1,1.4,4.3,1.4,6.8V131c0,2.4-0.4,4.6-1.2,6.5c-0.8,1.9-2.2,3.8-4.1,5.8c-2,2.1-4.2,3.7-6.5,4.6
		c-2.4,1-5.2,1.4-8.5,1.4h-63.1L163.7,91L163.7,91z M231.9,105.5h-53.1v29.2h53.1V105.5z"/>
	<path class="st1" d="M254.4,107c0-0.7,0.1-1.5,0.4-2.5c0.3-0.9,0.8-2,1.5-3.3c0.3-0.3,0.5-0.6,0.6-1c0.2-0.3,0.4-0.6,0.6-1
		c1.7-2.4,3.7-4.2,5.9-5.5c2.2-1.3,5-2.1,8.4-2.6c0.6-0.1,1.2-0.2,1.8-0.2c0.6,0,1.4,0,2.4,0h62.5v14.6h-69v29.2h53.8v-7.4h-26.5
		v-14.6h41.7v18.2c0,2.5-0.5,4.8-1.4,7c-1,2.2-2.6,4.3-4.9,6.4c-0.9,0.9-1.8,1.6-2.7,2.2c-0.9,0.6-1.9,1.1-3,1.5s-2.4,0.7-3.7,0.9
		c-1.3,0.2-2.9,0.3-4.6,0.4H316h-39.8c-2.2,0-4.1-0.1-5.8-0.4c-1.7-0.3-3.3-0.7-4.6-1.3c-1.4-0.6-2.7-1.4-3.9-2.4
		c-1.2-1-2.4-2.2-3.5-3.6c-1.4-1.7-2.4-3.5-3-5.3s-1-3.7-1-5.9L254.4,107L254.4,107z"/>
	<path class="st1" d="M365.3,105l2.4-4.7c0.2-0.3,0.4-0.5,0.5-0.8c0.2-0.3,0.3-0.5,0.5-0.8c1.9-2.9,3.7-5,5.5-6.3s3.6-2.1,5.6-2.6
		c3-0.5,5.8-0.1,8.2,1.3c2.4,1.3,4.8,3.9,7.1,7.6c0.2,0.4,0.4,0.7,0.6,1s0.4,0.6,0.6,1l2.4,4.6l24.3,44h-17.1l-8.6-16h-30.6l-8.5,16
		h-17.3L365.3,105z M381.9,105.8l-7.1,12.7h14L381.9,105.8z"/>
</g>
</svg>
