<?xml version="1.0" encoding="utf-8"?>
<!-- Generator: Adobe Illustrator 24.0.0, SVG Export Plug-In . SVG Version: 6.00 Build 0)  -->
<svg version="1.1" id="Layer_1" xmlns="http://www.w3.org/2000/svg" xmlns:xlink="http://www.w3.org/1999/xlink" x="0px" y="0px"
	 viewBox="0 0 300 195" style="enable-background:new 0 0 300 195;" xml:space="preserve">
<style type="text/css">
	.st0{opacity:0.13;}
	.st1{fill:#066766;}
</style>
<g class="st0">
	<path class="st1" d="M184.2,184.4H11.4V11.6h172.8V184.4z M12,183.8h171.5V12.2H12V183.8z"/>
</g>
<g class="st0">
	<path class="st1" d="M290.6,184.4H11.4V11.6h279.2V184.4z M12,183.8H290V12.2H12V183.8z"/>
</g>
<g class="st0">
	<path class="st1" d="M290.6,118.6H183.6V11.6h107.1V118.6z M184.2,118H290V12.2H184.2V118z"/>
</g>
<g class="st0">
	<path class="st1" d="M290.6,184.4h-66.4V118h66.4V184.4z M224.8,183.8H290v-65.1h-65.1V183.8z"/>
</g>
<g class="st0">
	<path class="st1" d="M224.8,184.4h-41.3v-41.3h41.3V184.4z M184.2,183.8h40v-40h-40V183.8z"/>
</g>
<g class="st0">
	<path class="st1" d="M209.4,143.8h-25.8V118h25.8V143.8z M184.2,143.1h24.5v-24.5h-24.5V143.1z"/>
</g>
<g class="st0">
	<path class="st1" d="M224.8,134.1h-16.2V118h16.2V134.1z M209.4,133.5h14.8v-14.8h-14.8V133.5z"/>
</g>
<g class="st0">
	<path class="st1" d="M224.8,143.8h-10.3v-10.3h10.3V143.8z M215.2,143.1h9v-9h-9V143.1z"/>
</g>
<g class="st0">
	<path class="st1" d="M12,184.1h-0.7c0-23.3,4.6-45.9,13.6-67.1c8.7-20.5,21.1-39,37-54.8c15.8-15.8,34.3-28.3,54.8-37
		c21.3-9,43.9-13.6,67.1-13.6v0.7C89.1,12.2,12,89.3,12,184.1z"/>
</g>
<g class="st0">
	<path class="st1" d="M290.6,118.3H290c0-58.5-47.6-106.1-106.1-106.1v-0.7c28.5,0,55.3,11.1,75.5,31.3
		C279.5,63,290.6,89.8,290.6,118.3z"/>
</g>
<g class="st0">
	<path class="st1" d="M224.5,184.4v-0.7c36.1,0,65.4-29.4,65.4-65.4h0.7C290.6,154.8,261,184.4,224.5,184.4z"/>
</g>
<g class="st0">
	<path class="st1" d="M224.5,184.4c-22.6,0-41-18.4-41-41h0.7c0,22.2,18.1,40.3,40.3,40.3V184.4z"/>
</g>
<g class="st0">
	<path class="st1" d="M184.2,143.5h-0.7c0-14,11.4-25.5,25.5-25.5v0.7C195.3,118.6,184.2,129.8,184.2,143.5z"/>
</g>
<g class="st0">
	<path class="st1" d="M224.8,133.8h-0.7c0-8.4-6.8-15.2-15.2-15.2V118C217.7,118,224.8,125.1,224.8,133.8z"/>
</g>
<g class="st0">
	<path class="st1" d="M214.9,143.8v-0.7c5.1,0,9.3-4.2,9.3-9.3h0.7C224.8,139.3,220.4,143.8,214.9,143.8z"/>
</g>
<g class="st0">
	<path class="st1" d="M214.9,143.8c-3.4,0-6.2-2.8-6.2-6.2h0.7c0,3,2.5,5.5,5.5,5.5V143.8z"/>
</g>
<g class="st0">
	<path class="st1" d="M209.4,137.6h-0.7c0-2.3,1.8-4.1,4.1-4.1v0.7C210.9,134.1,209.4,135.7,209.4,137.6z"/>
</g>
<g class="st0">
	<path class="st1" d="M215.2,135.9h-0.7c0-1-0.8-1.7-1.7-1.7v-0.7C214.1,133.5,215.2,134.6,215.2,135.9z"/>
</g>
<g class="st0">
	<path class="st1" d="M213,137.9v-0.7c0.8,0,1.5-0.7,1.5-1.5h0.7C215.2,136.9,214.2,137.9,213,137.9z"/>
</g>
</svg>
