<?xml version="1.0" encoding="utf-8"?>
<!-- Generator: Adobe Illustrator 24.0.0, SVG Export Plug-In . SVG Version: 6.00 Build 0)  -->
<svg version="1.1" id="Livello_1" xmlns="http://www.w3.org/2000/svg" xmlns:xlink="http://www.w3.org/1999/xlink" x="0px" y="0px"
	 viewBox="0 0 200 200" style="enable-background:new 0 0 200 200;" xml:space="preserve">
<style type="text/css">
	.st0{fill-rule:evenodd;clip-rule:evenodd;fill:#FFFFFF;}
</style>
<title>github [#142]</title>
<desc>Created with Sketch.</desc>
<g id="Page-1">
	<g id="Dribbble-Light-Preview" transform="translate(-140.000000, -7559.000000)">
		<g id="icons" transform="translate(56.000000, 160.000000)">
			<path id="github-_x5B__x23_142_x5D_" class="st0" d="M184,7420.5c43.4,0,78.5,36,78.5,80.5c0,35.6-22.5,65.7-53.6,76.4
				c-4,0.8-5.4-1.7-5.4-3.9c0-2.7,0.1-11.3,0.1-22.1c0-7.5-2.5-12.4-5.3-14.9c17.5-2,35.9-8.8,35.9-39.7c0-8.8-3-16-8.1-21.6
				c0.8-2,3.5-10.2-0.8-21.3c0,0-6.6-2.2-21.6,8.3c-6.3-1.8-13-2.7-19.7-2.7c-6.7,0-13.4,0.9-19.6,2.7c-15-10.4-21.6-8.3-21.6-8.3
				c-4.3,11.1-1.6,19.3-0.8,21.3c-5,5.6-8.1,12.8-8.1,21.6c0,30.8,18.3,37.7,35.8,39.8c-2.2,2-4.3,5.6-5,10.8
				c-4.5,2.1-15.8,5.6-22.8-6.7c0,0-4.2-7.7-12-8.3c0,0-7.7-0.1-0.5,4.9c0,0,5.1,2.5,8.7,11.8c0,0,4.6,14.4,26.4,9.5
				c0,6.7,0.1,13.1,0.1,15c0,2.1-1.4,4.6-5.4,3.9c-31.2-10.6-53.7-40.8-53.7-76.4C105.5,7456.5,140.7,7420.5,184,7420.5"/>
		</g>
	</g>
</g>
</svg>
