<?xml version="1.0" encoding="utf-8"?>
<!-- Generator: Adobe Illustrator 24.0.0, SVG Export Plug-In . SVG Version: 6.00 Build 0)  -->
<svg version="1.1" id="Livello_1" xmlns="http://www.w3.org/2000/svg" xmlns:xlink="http://www.w3.org/1999/xlink" x="0px" y="0px"
	 viewBox="0 0 200 200" style="enable-background:new 0 0 200 200;" xml:space="preserve">
<style type="text/css">
	.st0{fill:#FFFFFF;}
</style>
<title>ionicons-v5_logos</title>
<path class="st0" d="M151.8,76.3L151.8,76.3c-1.7-0.6-3.4-1.1-5.2-1.6c0.3-1.2,0.6-2.4,0.8-3.5c3.9-19.1,1.4-34.4-7.4-39.5
	c-8.4-4.9-22.1,0.2-36,12.3c-1.4,1.2-2.7,2.4-4,3.7c-0.9-0.8-1.8-1.7-2.7-2.5C82.9,32.2,68.3,26.8,59.6,31.9
	c-8.4,4.9-10.9,19.3-7.3,37.4c0.4,1.8,0.7,3.6,1.2,5.3c-2.1,0.6-4.1,1.2-6,1.9c-17,5.9-27.9,15.3-27.9,24.9c0,10,11.7,20,29.4,26.1
	c1.4,0.5,2.9,0.9,4.4,1.4c-0.5,1.9-0.9,3.8-1.3,5.8c-3.4,17.8-0.7,31.9,7.6,36.7c8.6,5,23.1-0.1,37.2-12.5c1.1-1,2.2-2,3.4-3.1
	c1.4,1.4,2.9,2.7,4.4,4c13.7,11.8,27.2,16.5,35.5,11.7c8.6-5,11.4-20.1,7.8-38.6c-0.3-1.4-0.6-2.8-1-4.3c1-0.3,2-0.6,3-0.9
	c18.4-6.1,30.4-16,30.4-26.1C180.4,91.7,169.2,82.3,151.8,76.3z M108.6,49.1c11.9-10.4,23-14.4,28-11.5l0,0
	c5.4,3.1,7.5,15.7,4.1,32.1c-0.2,1.1-0.5,2.1-0.7,3.2c-7.1-1.6-14.3-2.7-21.5-3.4c-4.1-6-8.7-11.6-13.6-17
	C106.1,51.4,107.3,50.2,108.6,49.1L108.6,49.1z M67.1,109.6c1.5,2.8,3,5.6,4.6,8.3c1.6,2.8,3.3,5.6,5,8.3c-5-0.5-9.9-1.3-14.8-2.4
	C63.3,119.3,65,114.5,67.1,109.6z M67.1,93.4c-2-4.8-3.7-9.4-5.1-13.9c4.6-1,9.5-1.9,14.6-2.5c-1.7,2.7-3.4,5.4-4.9,8.1
	S68.5,90.6,67.1,93.4L67.1,93.4z M70.7,101.5c2.1-4.4,4.4-8.7,6.8-13l0,0c2.4-4.2,5-8.4,7.8-12.4c4.8-0.4,9.7-0.6,14.6-0.6
	s9.9,0.2,14.7,0.6c2.7,4,5.3,8.2,7.7,12.4c2.4,4.2,4.7,8.5,6.9,12.9c-2.2,4.4-4.5,8.8-6.9,13l0,0c-2.4,4.2-5,8.4-7.7,12.5
	c-4.8,0.3-9.7,0.5-14.7,0.5c-5,0-9.9-0.2-14.6-0.5c-2.8-4.1-5.4-8.2-7.9-12.5C75.1,110.3,72.8,105.9,70.7,101.5L70.7,101.5z
	 M128.4,117.9c1.6-2.8,3.2-5.7,4.7-8.5l0,0c2,4.6,3.8,9.4,5.4,14.2c-5,1.1-10,2-15,2.6C125.2,123.4,126.8,120.7,128.4,117.9z
	 M133,93.5c-1.5-2.8-3-5.6-4.6-8.4l0,0c-1.6-2.7-3.2-5.4-4.9-8.1c5.1,0.6,10.1,1.5,14.7,2.6C136.7,84.3,134.9,88.9,133,93.5z
	 M100.1,57.5L100.1,57.5c3.3,3.7,6.5,7.5,9.5,11.5c-6.3-0.3-12.7-0.3-19,0C93.7,64.8,96.9,60.9,100.1,57.5z M63,37.8
	c5.4-3.1,17.3,1.3,29.8,12.5c0.8,0.7,1.6,1.5,2.4,2.2c-4.9,5.4-9.5,11-13.7,17c-7.2,0.7-14.4,1.8-21.5,3.4c-0.4-1.6-0.8-3.3-1.1-5
	l0,0C56,52.4,58,40.7,63,37.8z M55.2,122.2c-1.3-0.4-2.7-0.8-4-1.2c-7.8-2.7-14.3-6.2-18.8-10c-4-3.4-6-6.8-6-9.6
	c0-5.9,8.7-13.4,23.3-18.4c1.8-0.6,3.7-1.2,5.5-1.7c2.2,6.9,4.8,13.7,7.8,20.4C60,108.3,57.4,115.1,55.2,122.2z M92.4,153.6
	c-6.2,5.5-12.5,9.3-18,11.3l0,0c-5,1.8-8.9,1.8-11.3,0.4c-5.1-2.9-7.2-14.3-4.3-29.4c0.3-1.8,0.7-3.6,1.2-5.4
	c7.1,1.5,14.4,2.6,21.7,3.1c4.2,6,8.8,11.7,13.8,17.1C94.5,151.7,93.5,152.7,92.4,153.6z M100.3,145.8c-3.3-3.5-6.5-7.4-9.7-11.6
	c3.1,0.1,6.2,0.2,9.4,0.2c3.3,0,6.5-0.1,9.7-0.2C106.8,138.2,103.6,142.1,100.3,145.8L100.3,145.8z M142,155.4
	c-1,5.2-2.9,8.6-5.3,10c-5.1,2.9-15.9-0.9-27.6-11c-1.3-1.2-2.7-2.4-4-3.7c4.9-5.4,9.4-11.1,13.5-17.2c7.3-0.6,14.6-1.7,21.8-3.4
	c0.3,1.3,0.6,2.6,0.9,3.9l0,0C142.8,142.3,143.1,149.6,142,155.4z M147.8,121L147.8,121c-0.9,0.3-1.8,0.6-2.7,0.8
	c-2.2-7-5-13.8-8.1-20.4c3.1-6.5,5.7-13.2,7.8-20.1c1.6,0.5,3.2,1,4.8,1.5c14.9,5.1,24,12.7,24,18.6
	C173.5,107.6,163.7,115.7,147.8,121z"/>
<path class="st0" d="M100,115.8c8,0,14.4-6.4,14.5-14.4S108,87,100.1,87c-8,0-14.4,6.4-14.5,14.4c0,0,0,0,0,0
	C85.6,109.3,92,115.8,100,115.8C100,115.8,100,115.8,100,115.8z"/>
</svg>
