<?xml version="1.0" encoding="utf-8"?>
<!-- Generator: Adobe Illustrator 24.0.0, SVG Export Plug-In . SVG Version: 6.00 Build 0)  -->
<svg version="1.1" id="Livello_1" xmlns="http://www.w3.org/2000/svg" xmlns:xlink="http://www.w3.org/1999/xlink" x="0px" y="0px"
	 viewBox="0 0 400 100" style="enable-background:new 0 0 400 100;" xml:space="preserve">
<style type="text/css">
	.st0{fill:none;stroke:#FFFFFF;stroke-width:1.1829;}
	.st1{fill:#FFFFFF;}
	.st2{fill:none;stroke:#E33221;stroke-width:0.1183;}
</style>
<path class="st0" d="M31.7,16c-0.2-1.8-2-2.1-3-1.8c-1,0.3-1.7,1.3-1.6,1.7c0.1,0.4,0.5,1.9,0.7,2.8c0,0,0.4,1.2,2.4,1
	C32.2,19.4,31.9,17.7,31.7,16z M31.7,16c-0.2-1.8-2-2.1-3-1.8c-1,0.3-1.7,1.3-1.6,1.7c0.1,0.4,0.5,1.9,0.7,2.8c0,0,0.4,1.2,2.4,1
	C32.2,19.4,31.9,17.7,31.7,16z M31.7,16c-0.2-1.8-2-2.1-3-1.8c-1,0.3-1.7,1.3-1.6,1.7c0.1,0.4,0.5,1.9,0.7,2.8c0,0,0.4,1.2,2.4,1
	C32.2,19.4,31.9,17.7,31.7,16z M31.7,16c-0.2-1.8-2-2.1-3-1.8c-1,0.3-1.7,1.3-1.6,1.7c0.1,0.4,0.5,1.9,0.7,2.8c0,0,0.4,1.2,2.4,1
	C32.2,19.4,31.9,17.7,31.7,16z M31.7,16c-0.2-1.8-2-2.1-3-1.8c-1,0.3-1.7,1.3-1.6,1.7c0.1,0.4,0.5,1.9,0.7,2.8c0,0,0.4,1.2,2.4,1
	C32.2,19.4,31.9,17.7,31.7,16z M31.7,16c-0.2-1.8-2-2.1-3-1.8c-1,0.3-1.7,1.3-1.6,1.7c0.1,0.4,0.5,1.9,0.7,2.8c0,0,0.4,1.2,2.4,1
	C32.2,19.4,31.9,17.7,31.7,16z M31.7,16c-0.2-1.8-2-2.1-3-1.8c-1,0.3-1.7,1.3-1.6,1.7c0.1,0.4,0.5,1.9,0.7,2.8c0,0,0.4,1.2,2.4,1
	C32.2,19.4,31.9,17.7,31.7,16z M205.5,58.5c-3.6,0.8-5.5,1.6-5.5,4.4c0,1.9,2.1,3.8,5.1,3.8c3.7,0,6.6-2.1,6.8-6.4v-3.8
	C209.9,57.5,207.7,58.1,205.5,58.5z M205.5,58.5c-3.6,0.8-5.5,1.6-5.5,4.4c0,1.9,2.1,3.8,5.1,3.8c3.7,0,6.6-2.1,6.8-6.4v-3.8
	C209.9,57.5,207.7,58.1,205.5,58.5z M31.7,16c-0.2-1.8-2-2.1-3-1.8c-1,0.3-1.7,1.3-1.6,1.7c0.1,0.4,0.5,1.9,0.7,2.8
	c0,0,0.4,1.2,2.4,1C32.2,19.4,31.9,17.7,31.7,16z M31.7,16c-0.2-1.8-2-2.1-3-1.8c-1,0.3-1.7,1.3-1.6,1.7c0.1,0.4,0.5,1.9,0.7,2.8
	c0,0,0.4,1.2,2.4,1C32.2,19.4,31.9,17.7,31.7,16z M205.5,58.5c-3.6,0.8-5.5,1.6-5.5,4.4c0,1.9,2.1,3.8,5.1,3.8
	c3.7,0,6.6-2.1,6.8-6.4v-3.8C209.9,57.5,207.7,58.1,205.5,58.5z M205.5,58.5c-3.6,0.8-5.5,1.6-5.5,4.4c0,1.9,2.1,3.8,5.1,3.8
	c3.7,0,6.6-2.1,6.8-6.4v-3.8C209.9,57.5,207.7,58.1,205.5,58.5z M31.7,16c-0.2-1.8-2-2.1-3-1.8c-1,0.3-1.7,1.3-1.6,1.7
	c0.1,0.4,0.5,1.9,0.7,2.8c0,0,0.4,1.2,2.4,1C32.2,19.4,31.9,17.7,31.7,16z M8.1,1.9v96.5h384.4V1.9H8.1z M31.7,44.2
	c-1.3-0.2-1.6-0.2-1.5-1.1c0.1-0.9,0.5-2.5,0.6-3.3c0.1-0.8-0.2-1.3-1-2.1C28.9,37,28,35,28,32.7c0.1-2.2,0.8-5.4,1.3-6.5
	c0.5-1.2,0.9-2.8-2.3-4.9c-3.2-2.1-7.4-5.8-5.4-9.7c0,0,0.7-2.4,5.8-2.4c5.1,0,7.7,2.3,8,4.8c0.3,2.5-0.2,7,1.7,8.1
	c1.9,1.1,4,2.3,5.7,2.8c0,0,2.5,0.7,1.2,2.2c-1.3,1.6-1.3,1.4-1.4,2.5c-0.1,1.1,0.2,5.1-2.4,7.2c-1.4,1.1-3.3,3.9-4.3,4.7
	C34.9,42.5,33,44.4,31.7,44.2z M32.6,48.7c0,1.2-1.6,1.3-3.2,1.1c-1.6-0.2-3.2-1.4-2.9-2.5c0.3-1.1,1.6-0.9,1.6-0.9
	c0.9,0.3,2.7,0.5,3.6,0.9C31.7,47.2,32.6,47.5,32.6,48.7z M52.4,7.1c0.3,0.4,0.4,0.9-0.4,1.6c-0.8,0.7-2.9,2.1-2.6,2.7
	c0.3,0.6,1.7-1,2.2-1.3c0.5-0.4,1.6-1.2,2.1-1c0.5,0.3-0.2,1.8-0.8,2.7c-0.6,0.9-6.4,9.1-7.2,11.1c0,0-2.3-0.4-2.6-0.6
	c-0.3-0.2,2.3-5,3.1-6.5c0.8-1.4,2.1-3.1,1-3.6c-1.1-0.5-2.1,1.8-2.3,2.1c-0.8,1.3-4.7,7.1-4.7,7.1s-3.6-1.1-1.9-8.4
	c0,0,10.7-4.9,11.9-5.4C51.3,7.1,52.1,6.7,52.4,7.1z M133.3,34.1v40.9H117V34.1H133.3z M117,29.7v-11h16.3v11H117z M156.5,58.9
	c-12.4-2.1-17.4-5.8-17.4-12.8c0-10.3,11.6-13,20.1-13c9.2,0,20.3,2.5,20.7,12.9h-14.8c-0.1-1.3-0.8-2.4-1.9-3.1
	c-1-0.8-2.3-1.2-3.6-1.2c-2.3,0-4.9,0.5-4.9,3.2c0,1.2,1,1.7,1.9,2.1c2.7,1.1,8.9,1.4,14.3,3.2c5.4,1.6,10.2,4.7,10.2,11.4
	c0,11.3-11.3,14.4-21.7,14.4c-10,0-21-3.9-21.3-14.4h15.5c0.1,1.4,0.7,2.6,2,3.6c0.8,0.7,2.4,1.2,4.4,1.2c2.1,0,5.5-0.8,5.5-3.1
	C165.4,60.8,164,60.1,156.5,58.9z M206.5,42.3c-5,0-6,2.4-6.1,4.2h-15.1c0.5-11.5,11.8-13.4,21.9-13.4c20.4,0,20.2,8.1,20.2,16v16.8
	c0,3.1,0.2,6.5,2,9.1h-16.6c-0.4-1.1-0.7-2.7-0.6-3.9h-0.2c-3.4,3.8-8.5,4.9-13.7,4.9c-8.2,0-15-3.8-15-12.4
	c0-12.9,15.8-12.4,24-13.9c2.2-0.4,4.4-1,4.4-3.6C211.9,43.3,209.2,42.3,206.5,42.3z M256.5,64.6c3.5,0,6-2.8,6.3-6h15.5
	C276.8,69.7,267.7,76,256.2,76c-12.8,0-23.1-8.5-23.1-21.4c0-12.9,10.3-21.5,23.1-21.5c11.2,0,20.7,5.3,21.7,16.5h-15.4
	c-0.2-1.7-0.7-3-1.8-3.9c-1-0.9-2.4-1.3-4.1-1.3c-6.2,0-7.1,5.2-7.1,10.1C249.3,59.5,250.3,64.6,256.5,64.6z M304.8,64.6
	c3.5,0,6-2.8,6.3-6h15.5C325.1,69.7,316,76,304.5,76c-12.8,0-23.1-8.5-23.1-21.4c0-12.9,10.3-21.5,23.1-21.5
	c11.2,0,20.7,5.3,21.7,16.5h-15.4c-0.2-1.7-0.7-3-1.8-3.9c-1-0.9-2.4-1.3-4.1-1.3c-6.2,0-7.1,5.2-7.1,10.1
	C297.7,59.5,298.6,64.6,304.8,64.6z M352.8,76c-16,0-23.2-10.2-23.2-21.5S336.8,33,352.8,33c16,0,23.2,10.1,23.2,21.4
	S368.8,76,352.8,76z M17.5,97.7c0,0,3.9-10.6,3.9-25.3c0-14.7-1.8-16-2.1-16.6c-0.3-0.6-0.7-1.8-0.2-2.3c0.5-0.5,1.4-0.3,1.8,0
	c0.4,0.3,1.2,0.9,2.6-0.3c1.4-1.2,11.7-6.2,20.9,9c12.9,21.2,16.4,35.5,16.4,35.5H17.5z M352.8,44.4c-6.2,0-7,5.7-7,10.1
	c0,4.3,0.8,10.2,7,10.2s7-5.8,7-10.2C359.8,50.1,359,44.4,352.8,44.4z M200,63c0,1.9,2.1,3.8,5.1,3.8c3.7,0,6.6-2.1,6.8-6.4v-3.8
	c-2,1-4.2,1.5-6.4,2C201.9,59.3,200,60.2,200,63z M28.6,14.1c-1,0.3-1.7,1.3-1.6,1.7c0.1,0.4,0.5,1.9,0.7,2.8c0,0,0.4,1.2,2.4,1
	c2-0.2,1.7-1.9,1.5-3.7C31.5,14.2,29.7,13.8,28.6,14.1z M31.7,16c-0.2-1.8-2-2.1-3-1.8c-1,0.3-1.7,1.3-1.6,1.7
	c0.1,0.4,0.5,1.9,0.7,2.8c0,0,0.4,1.2,2.4,1C32.2,19.4,31.9,17.7,31.7,16z M205.5,58.5c-3.6,0.8-5.5,1.6-5.5,4.4
	c0,1.9,2.1,3.8,5.1,3.8c3.7,0,6.6-2.1,6.8-6.4v-3.8C209.9,57.5,207.7,58.1,205.5,58.5z M205.5,58.5c-3.6,0.8-5.5,1.6-5.5,4.4
	c0,1.9,2.1,3.8,5.1,3.8c3.7,0,6.6-2.1,6.8-6.4v-3.8C209.9,57.5,207.7,58.1,205.5,58.5z M31.7,16c-0.2-1.8-2-2.1-3-1.8
	c-1,0.3-1.7,1.3-1.6,1.7c0.1,0.4,0.5,1.9,0.7,2.8c0,0,0.4,1.2,2.4,1C32.2,19.4,31.9,17.7,31.7,16z M31.7,16c-0.2-1.8-2-2.1-3-1.8
	c-1,0.3-1.7,1.3-1.6,1.7c0.1,0.4,0.5,1.9,0.7,2.8c0,0,0.4,1.2,2.4,1C32.2,19.4,31.9,17.7,31.7,16z M31.7,16c-0.2-1.8-2-2.1-3-1.8
	c-1,0.3-1.7,1.3-1.6,1.7c0.1,0.4,0.5,1.9,0.7,2.8c0,0,0.4,1.2,2.4,1C32.2,19.4,31.9,17.7,31.7,16z M31.7,16c-0.2-1.8-2-2.1-3-1.8
	c-1,0.3-1.7,1.3-1.6,1.7c0.1,0.4,0.5,1.9,0.7,2.8c0,0,0.4,1.2,2.4,1C32.2,19.4,31.9,17.7,31.7,16z M31.7,16c-0.2-1.8-2-2.1-3-1.8
	c-1,0.3-1.7,1.3-1.6,1.7c0.1,0.4,0.5,1.9,0.7,2.8c0,0,0.4,1.2,2.4,1C32.2,19.4,31.9,17.7,31.7,16z M31.7,16c-0.2-1.8-2-2.1-3-1.8
	c-1,0.3-1.7,1.3-1.6,1.7c0.1,0.4,0.5,1.9,0.7,2.8c0,0,0.4,1.2,2.4,1C32.2,19.4,31.9,17.7,31.7,16z M31.7,16c-0.2-1.8-2-2.1-3-1.8
	c-1,0.3-1.7,1.3-1.6,1.7c0.1,0.4,0.5,1.9,0.7,2.8c0,0,0.4,1.2,2.4,1C32.2,19.4,31.9,17.7,31.7,16z"/>
<path class="st1" d="M31.7,16c-0.2-1.8-2-2.1-3-1.8c-1,0.3-1.7,1.3-1.6,1.7c0.1,0.4,0.5,1.9,0.7,2.8c0,0,0.4,1.2,2.4,1
	C32.2,19.4,31.9,17.7,31.7,16z M31.7,16c-0.2-1.8-2-2.1-3-1.8c-1,0.3-1.7,1.3-1.6,1.7c0.1,0.4,0.5,1.9,0.7,2.8c0,0,0.4,1.2,2.4,1
	C32.2,19.4,31.9,17.7,31.7,16z M31.7,16c-0.2-1.8-2-2.1-3-1.8c-1,0.3-1.7,1.3-1.6,1.7c0.1,0.4,0.5,1.9,0.7,2.8c0,0,0.4,1.2,2.4,1
	C32.2,19.4,31.9,17.7,31.7,16z M31.7,16c-0.2-1.8-2-2.1-3-1.8c-1,0.3-1.7,1.3-1.6,1.7c0.1,0.4,0.5,1.9,0.7,2.8c0,0,0.4,1.2,2.4,1
	C32.2,19.4,31.9,17.7,31.7,16z M31.7,16c-0.2-1.8-2-2.1-3-1.8c-1,0.3-1.7,1.3-1.6,1.7c0.1,0.4,0.5,1.9,0.7,2.8c0,0,0.4,1.2,2.4,1
	C32.2,19.4,31.9,17.7,31.7,16z M31.7,16c-0.2-1.8-2-2.1-3-1.8c-1,0.3-1.7,1.3-1.6,1.7c0.1,0.4,0.5,1.9,0.7,2.8c0,0,0.4,1.2,2.4,1
	C32.2,19.4,31.9,17.7,31.7,16z M31.7,16c-0.2-1.8-2-2.1-3-1.8c-1,0.3-1.7,1.3-1.6,1.7c0.1,0.4,0.5,1.9,0.7,2.8c0,0,0.4,1.2,2.4,1
	C32.2,19.4,31.9,17.7,31.7,16z M31.7,16c-0.2-1.8-2-2.1-3-1.8c-1,0.3-1.7,1.3-1.6,1.7c0.1,0.4,0.5,1.9,0.7,2.8c0,0,0.4,1.2,2.4,1
	C32.2,19.4,31.9,17.7,31.7,16z M31.7,16c-0.2-1.8-2-2.1-3-1.8c-1,0.3-1.7,1.3-1.6,1.7c0.1,0.4,0.5,1.9,0.7,2.8c0,0,0.4,1.2,2.4,1
	C32.2,19.4,31.9,17.7,31.7,16z M31.7,16c-0.2-1.8-2-2.1-3-1.8c-1,0.3-1.7,1.3-1.6,1.7c0.1,0.4,0.5,1.9,0.7,2.8c0,0,0.4,1.2,2.4,1
	C32.2,19.4,31.9,17.7,31.7,16z M77.1,94.9c0,0-1.2,0.2-1.2-1c0-1.1,1.5-0.7,1.5-0.7h43.3V81.5h-7.9V45.3l-2.4-0.4H99.1
	c-1.9-6.1-8-7.9-12.3-6.9c-4.4,1-9.6,4.6-7.3,12.6c0,0,2.7,7.6,13.6,6.9c0,0,6,12.4,6,13c0,0.7-0.1,20.5-0.1,20.5s-12.9,0.1-13.7,0
	c-0.8-0.1-3-1.5-8.8-4.6C70.8,83.2,56.9,74.8,50,64c-6.9-10.8-6.2-13-6.1-17c0.1-4,0-5-0.4-5.8c-0.4-0.8-1.1-3.4,0-4.8
	c1.1-1.5,2.6-2.4,3.2-11.1c0,0,0.3-1.5,1.1-2.7c0.8-1.2,11.8-19.8,11.8-19.8l-4.1-0.1l-17,8.6c0,0-10.8-9.5-23.4-2.3
	c0,0-6.6,4.5-6.6,12.6c0,8,1.7,10.6,3,11.9c1.3,1.3,1.5,3.2,0.5,4c-1,0.8-3.5,4.1-3.5,4.1v57h107.4v-1h5.2v-2.5H77.1z M110.2,90.9
	h-5V67.5l4.7-10.9l0.3-0.7V90.9z M89.7,45l-1.7,0.7l4.1,9.2c-0.3,0-0.7,0.1-1.1,0.1c-0.5-1.2-1.5-3.6-1.9-3.3
	c-0.4,0.3-0.2,2.2,0,3.3C88,54.9,87,54.8,86,54.5l1.3-3.6l-1.2-0.7l-1.8,3.5c-1.1-0.7-2.1-1.7-2.9-3.1l3.5-1.5c0,0,1.7-0.3,1.1-1.7
	c0,0-0.4-0.7-1.7-0.1c-1,0.4-2.7,1.1-3.7,1.4c-0.6-2.3,0-4.1,0.9-5.4l3.4,2.9c0,0,0.8,0.8,1.5,0.3c0.7-0.5,0.1-1.1-0.2-1.5
	c-0.3-0.3-2.3-2-3.5-3c1.6-1.4,3.6-2.2,4.1-2.3l1.1,3.6c0,0,0.2,1.1,1,1c0.8-0.1,0.7-0.5,0.5-1.1c-0.1-0.4-0.9-2.5-1.3-3.7
	c1.1-0.1,2.8-0.2,4.5,0.5c-0.5,0.7-0.9,1.4-1.3,2c-0.5,0.8-1.8,2.4-0.8,2.9c1,0.5,1.7-0.9,1.9-1.2c0.1-0.2,1.2-1.9,1.8-2.9
	c1.1,0.8,2.1,2,2.8,3.8c-1,0-3.6,0.1-4.1,0.1c-0.5,0-0.6,0.4-0.6,0.6c0,0.3,0.1,1.2,0.1,1.2h5c0.1,0.8,0.1,1.8-0.2,2.9
	c-0.1,0-0.1-0.1-0.2-0.2c-0.4-0.3-2.6-0.9-3.3-1.1C93,48.2,93,49,93,49s-0.1,0.3,0.3,0.6c0.3,0.2,2.1,1.3,3.2,2
	c-0.5,0.9-1.3,1.7-2.4,2.4L89.7,45z M95.2,56.2c0,0,5.1-3.3,4.3-9.4h10.6v5.1l-0.2,0.4l-2.8,5.3v-9.7h-2.2v13.5h-0.3v-0.8h-1.3v30.2
	h-2.7V70.3c0,0-0.3-3-1.3-5C98.2,63.3,95.2,56.2,95.2,56.2z M38.2,13.1c0,0,10.7-4.9,11.9-5.4c1.2-0.5,2-1,2.3-0.6
	c0.3,0.4,0.4,0.9-0.4,1.6c-0.8,0.7-2.9,2.1-2.6,2.7c0.3,0.6,1.7-1,2.2-1.3c0.5-0.4,1.6-1.2,2.1-1c0.5,0.3-0.2,1.8-0.8,2.7
	c-0.6,0.9-6.4,9.1-7.2,11.1c0,0-2.3-0.4-2.6-0.6c-0.3-0.2,2.3-5,3.1-6.5c0.8-1.4,2.1-3.1,1-3.6c-1.1-0.5-2.1,1.8-2.3,2.1
	c-0.8,1.3-4.7,7.1-4.7,7.1S36.5,20.4,38.2,13.1z M21.6,11.6c0,0,0.7-2.4,5.8-2.4c5.1,0,7.7,2.3,8,4.8c0.3,2.5-0.2,7,1.7,8.1
	c1.9,1.1,4,2.3,5.7,2.8c0,0,2.5,0.7,1.2,2.2c-1.3,1.6-1.3,1.4-1.4,2.5c-0.1,1.1,0.2,5.1-2.4,7.2c-1.4,1.1-3.3,3.9-4.3,4.7
	c-1,0.9-2.9,2.8-4.2,2.6c-1.3-0.2-1.6-0.2-1.5-1.1c0.1-0.9,0.5-2.5,0.6-3.3c0.1-0.8-0.2-1.3-1-2.1C28.9,37,28,35,28,32.7
	c0.1-2.2,0.8-5.4,1.3-6.5c0.5-1.2,0.9-2.8-2.3-4.9C23.8,19.1,19.6,15.5,21.6,11.6z M32.6,48.7c0,1.2-1.6,1.3-3.2,1.1
	c-1.6-0.2-3.2-1.4-2.9-2.5c0.3-1.1,1.6-0.9,1.6-0.9c0.9,0.3,2.7,0.5,3.6,0.9C31.7,47.2,32.6,47.5,32.6,48.7z M17.5,97.7
	c0,0,3.9-10.6,3.9-25.3c0-14.7-1.8-16-2.1-16.6c-0.3-0.6-0.7-1.8-0.2-2.3c0.5-0.5,1.4-0.3,1.8,0c0.4,0.3,1.2,0.9,2.6-0.3
	c1.4-1.2,11.7-6.2,20.9,9c12.9,21.2,16.4,35.5,16.4,35.5H17.5z M27.7,18.6c0,0,0.4,1.2,2.4,1c2-0.2,1.7-1.9,1.5-3.7
	c-0.2-1.8-2-2.1-3-1.8c-1,0.3-1.7,1.3-1.6,1.7C27.1,16.2,27.5,17.7,27.7,18.6z M31.7,16c-0.2-1.8-2-2.1-3-1.8
	c-1,0.3-1.7,1.3-1.6,1.7c0.1,0.4,0.5,1.9,0.7,2.8c0,0,0.4,1.2,2.4,1C32.2,19.4,31.9,17.7,31.7,16z M31.7,16c-0.2-1.8-2-2.1-3-1.8
	c-1,0.3-1.7,1.3-1.6,1.7c0.1,0.4,0.5,1.9,0.7,2.8c0,0,0.4,1.2,2.4,1C32.2,19.4,31.9,17.7,31.7,16z M31.7,16c-0.2-1.8-2-2.1-3-1.8
	c-1,0.3-1.7,1.3-1.6,1.7c0.1,0.4,0.5,1.9,0.7,2.8c0,0,0.4,1.2,2.4,1C32.2,19.4,31.9,17.7,31.7,16z M31.7,16c-0.2-1.8-2-2.1-3-1.8
	c-1,0.3-1.7,1.3-1.6,1.7c0.1,0.4,0.5,1.9,0.7,2.8c0,0,0.4,1.2,2.4,1C32.2,19.4,31.9,17.7,31.7,16z M31.7,16c-0.2-1.8-2-2.1-3-1.8
	c-1,0.3-1.7,1.3-1.6,1.7c0.1,0.4,0.5,1.9,0.7,2.8c0,0,0.4,1.2,2.4,1C32.2,19.4,31.9,17.7,31.7,16z M31.7,16c-0.2-1.8-2-2.1-3-1.8
	c-1,0.3-1.7,1.3-1.6,1.7c0.1,0.4,0.5,1.9,0.7,2.8c0,0,0.4,1.2,2.4,1C32.2,19.4,31.9,17.7,31.7,16z M31.7,16c-0.2-1.8-2-2.1-3-1.8
	c-1,0.3-1.7,1.3-1.6,1.7c0.1,0.4,0.5,1.9,0.7,2.8c0,0,0.4,1.2,2.4,1C32.2,19.4,31.9,17.7,31.7,16z M31.7,16c-0.2-1.8-2-2.1-3-1.8
	c-1,0.3-1.7,1.3-1.6,1.7c0.1,0.4,0.5,1.9,0.7,2.8c0,0,0.4,1.2,2.4,1C32.2,19.4,31.9,17.7,31.7,16z"/>
<path class="st1" d="M30.2,19.6c-2,0.2-2.4-1-2.4-1c-0.2-0.9-0.6-2.4-0.7-2.8c-0.1-0.4,0.6-1.4,1.6-1.7c1-0.3,2.8,0.1,3,1.8
	C31.9,17.7,32.2,19.4,30.2,19.6z"/>
<path class="st1" d="M30.2,19.6c-2,0.2-2.4-1-2.4-1c-0.2-0.9-0.6-2.4-0.7-2.8c-0.1-0.4,0.6-1.4,1.6-1.7c1-0.3,2.8,0.1,3,1.8
	C31.9,17.7,32.2,19.4,30.2,19.6z"/>
<path class="st2" d="M86.3,39.9"/>
<path class="st1" d="M205.5,58.5c-3.6,0.8-5.5,1.6-5.5,4.4c0,1.9,2.1,3.8,5.1,3.8c3.7,0,6.6-2.1,6.8-6.4v-3.8
	C209.9,57.5,207.7,58.1,205.5,58.5z M205.5,58.5c-3.6,0.8-5.5,1.6-5.5,4.4c0,1.9,2.1,3.8,5.1,3.8c3.7,0,6.6-2.1,6.8-6.4v-3.8
	C209.9,57.5,207.7,58.1,205.5,58.5z M205.5,58.5c-3.6,0.8-5.5,1.6-5.5,4.4c0,1.9,2.1,3.8,5.1,3.8c3.7,0,6.6-2.1,6.8-6.4v-3.8
	C209.9,57.5,207.7,58.1,205.5,58.5z M205.5,58.5c-3.6,0.8-5.5,1.6-5.5,4.4c0,1.9,2.1,3.8,5.1,3.8c3.7,0,6.6-2.1,6.8-6.4v-3.8
	C209.9,57.5,207.7,58.1,205.5,58.5z M109.9,9.5v81.1h272.7V9.5H109.9z M133.3,74.9H117V34.1h16.3V74.9z M133.3,29.7H117v-11h16.3
	V29.7z M159.3,76c-10,0-21-3.9-21.3-14.4h15.5c0.1,1.4,0.7,2.6,2,3.6c0.8,0.7,2.4,1.2,4.4,1.2c2.1,0,5.5-0.8,5.5-3.1
	c0-2.4-1.4-3.1-9-4.3c-12.4-2.1-17.4-5.8-17.4-12.8c0-10.3,11.6-13,20.1-13c9.2,0,20.3,2.5,20.7,12.9h-14.8
	c-0.1-1.3-0.8-2.4-1.9-3.1c-1-0.8-2.3-1.2-3.6-1.2c-2.3,0-4.9,0.5-4.9,3.2c0,1.2,1,1.7,1.9,2.1c2.7,1.1,8.9,1.4,14.3,3.2
	c5.4,1.6,10.2,4.7,10.2,11.4C181,72.9,169.7,76,159.3,76z M212.9,74.9c-0.4-1.1-0.7-2.7-0.6-3.9h-0.2c-3.4,3.8-8.5,4.9-13.7,4.9
	c-8.2,0-15-3.8-15-12.4c0-12.9,15.8-12.4,24-13.9c2.2-0.4,4.4-1,4.4-3.6c0-2.8-2.7-3.8-5.3-3.8c-5,0-6,2.4-6.1,4.2h-15.1
	c0.5-11.5,11.8-13.4,21.9-13.4c20.4,0,20.2,8.1,20.2,16v16.8c0,3.1,0.2,6.5,2,9.1H212.9z M256.2,76c-12.8,0-23.1-8.5-23.1-21.4
	c0-12.9,10.3-21.5,23.1-21.5c11.2,0,20.7,5.3,21.7,16.5h-15.4c-0.2-1.7-0.7-3-1.8-3.9c-1-0.9-2.4-1.3-4.1-1.3
	c-6.2,0-7.1,5.2-7.1,10.1c0,5,0.9,10.1,7.1,10.1c3.5,0,6-2.8,6.3-6h15.5C276.8,69.7,267.7,76,256.2,76z M304.5,76
	c-12.8,0-23.1-8.5-23.1-21.4c0-12.9,10.3-21.5,23.1-21.5c11.2,0,20.7,5.3,21.7,16.5h-15.4c-0.2-1.7-0.7-3-1.8-3.9
	c-1-0.9-2.4-1.3-4.1-1.3c-6.2,0-7.1,5.2-7.1,10.1c0,5,0.9,10.1,7.1,10.1c3.5,0,6-2.8,6.3-6h15.5C325.1,69.7,316,76,304.5,76z
	 M352.8,76c-16,0-23.2-10.2-23.2-21.5S336.8,33,352.8,33c16,0,23.2,10.1,23.2,21.4S368.8,76,352.8,76z M352.8,44.4
	c-6.2,0-7,5.7-7,10.1c0,4.3,0.8,10.2,7,10.2s7-5.8,7-10.2C359.8,50.1,359,44.4,352.8,44.4z M200,63c0,1.9,2.1,3.8,5.1,3.8
	c3.7,0,6.6-2.1,6.8-6.4v-3.8c-2,1-4.2,1.5-6.4,2C201.9,59.3,200,60.2,200,63z M205.5,58.5c-3.6,0.8-5.5,1.6-5.5,4.4
	c0,1.9,2.1,3.8,5.1,3.8c3.7,0,6.6-2.1,6.8-6.4v-3.8C209.9,57.5,207.7,58.1,205.5,58.5z M205.5,58.5c-3.6,0.8-5.5,1.6-5.5,4.4
	c0,1.9,2.1,3.8,5.1,3.8c3.7,0,6.6-2.1,6.8-6.4v-3.8C209.9,57.5,207.7,58.1,205.5,58.5z"/>
</svg>
