<?xml version="1.0" encoding="utf-8"?>
<!-- Generator: Adobe Illustrator 24.0.0, SVG Export Plug-In . SVG Version: 6.00 Build 0)  -->
<svg version="1.1" id="Livello_1" xmlns="http://www.w3.org/2000/svg" xmlns:xlink="http://www.w3.org/1999/xlink" x="0px" y="0px"
	 viewBox="0 0 200 200" style="enable-background:new 0 0 200 200;" xml:space="preserve">
<style type="text/css">
	.st0{fill:#FFFFFF;}
	.st1{fill:#BE1622;}
</style>
<circle class="st0" cx="100.5" cy="99.7" r="81.1"/>
<g>
	<g>
		<path class="st1" d="M49.6,85c0.3,0,0.5,0.1,0.6,0.2c0.1,0.2,0.2,0.4,0.2,0.7c-1.1,1.1-1.9,2.5-2.4,4.2c-0.5,1.7-0.8,3.6-0.8,5.8
			c0,0.1-0.1,0.2-0.2,0.2s-0.2,0.2-0.4,0.2s-0.2,0.1-0.4,0c-0.1,0-0.2-0.1-0.2-0.2s0-0.2,0-0.3c0-0.2,0-0.3,0-0.5
			c0-0.5-0.2-1.1-0.5-1.8c-0.4-0.7-0.8-1.3-1.4-2c-0.6-0.6-1.3-1.1-2.1-1.6c-0.8-0.5-1.7-0.6-2.7-0.6c-1.3,0-2.4,0.3-3.4,0.8
			c-1,0.6-1.8,1.4-2.5,2.3c-0.7,1-1.2,2.1-1.5,3.4c-0.4,1.3-0.5,2.6-0.5,4c0,1.6,0.2,3,0.6,4.4c0.5,1.4,1,2.6,1.8,3.7
			c0.8,1.1,1.7,1.9,2.7,2.5c1.1,0.6,2.3,0.9,3.6,0.9c0.8,0,1.7-0.2,2.4-0.5c0.7-0.3,1.3-0.7,1.8-1.2c0.5-0.5,0.8-1.1,1.1-1.8
			c0.2-0.7,0.4-1.4,0.4-2.3c0-0.7-0.1-1.3-0.3-2c-0.2-0.7-0.5-1.3-0.8-1.8c-0.4-0.5-0.8-1-1.2-1.3c-0.5-0.3-1-0.5-1.5-0.5
			c-0.3,0-0.7,0.1-1,0.2c-0.3,0.1-0.6,0.2-0.9,0.4c-0.2,0.2-0.5,0.4-0.6,0.6c-0.2,0.2-0.2,0.5-0.2,0.9c0,0.2,0.1,0.5,0.2,0.8
			s0.2,0.5,0.3,0.6c0.2,0.2,0.2,0.3,0.4,0.4s0.2,0.2,0.3,0.2c0.1,0,0.2,0,0.2,0.2c0.1,0.2,0.1,0.2,0,0.2c-0.1,0.2-0.5,0.3-1.1,0.5
			c-0.6,0.2-1.4,0.3-2.3,0.3c-0.8,0-1.4-0.2-1.8-0.8c-0.5-0.5-0.7-1.1-0.7-1.8c0-0.4,0.2-0.8,0.6-1.3c0.4-0.5,1-0.8,1.7-1.1
			c0.7-0.3,1.6-0.6,2.5-0.8c1-0.2,2-0.3,3.1-0.3c1.2,0,2.2,0.2,3.1,0.4c0.9,0.2,1.7,0.6,2.4,1.1c0.6,0.5,1.1,1,1.4,1.6
			c0.3,0.6,0.5,1.3,0.5,1.9c0,1.1-0.3,2.1-0.9,3.1c-0.6,1.1-1.4,2-2.4,2.8c-1,0.8-2.1,1.5-3.4,2c-1.3,0.5-2.7,0.8-4,0.8
			c-2.1,0-4-0.3-5.6-0.8c-1.6-0.5-3-1.4-4-2.4c-1.1-1.1-1.9-2.2-2.4-3.7c-0.5-1.4-0.8-3-0.8-4.6c0-1.8,0.4-3.5,1.1-5.1
			c0.8-1.6,1.8-3,3-4.2c1.3-1.2,2.8-2.1,4.6-2.8c1.8-0.7,3.7-1.1,5.7-1.1c1.6,0,2.9,0.2,3.9,0.5c1.1,0.3,1.8,0.5,2.5,0.8
			c0.1-0.2,0.2-0.5,0.4-0.9c0.2-0.4,0.4-0.8,0.5-1.2c0.2-0.4,0.5-0.8,0.7-1.1C49.1,85.4,49.3,85.1,49.6,85z"/>
		<path d="M55.9,112c-0.4,0-0.8,0-1.3,0c-0.5,0-0.9,0-1.4,0c-0.5,0-0.9,0-1.3,0.1c-0.4,0-0.7,0.1-0.9,0.1l-0.5,0.1
			c-0.1,0-0.2-0.1-0.3-0.2c-0.1-0.2-0.2-0.2-0.2-0.4c0-0.1,0.1-0.2,0.2-0.3c0.1-0.1,0.2-0.2,0.4-0.2c0.9,0,1.7-0.1,2.2-0.2
			c0.5-0.1,0.8-0.2,1-0.5c0.2-0.2,0.3-0.8,0.4-1.8c0.2-0.9,0.3-2,0.4-3.2s0.2-2.5,0.2-3.8c0.1-1.4,0.1-2.6,0.1-3.7
			c0-1.2,0-2.3,0-3.1c0-0.8,0-1.5,0-2.1c0-0.5,0-1,0-1.3c0-0.3,0-0.5,0-0.6c0-0.7-0.2-1.1-0.3-1.4c-0.2-0.2-0.5-0.4-0.9-0.4
			c-0.3-0.1-0.7-0.1-1.1,0c-0.5,0-0.8,0-0.9,0s-0.3-0.1-0.4-0.1s-0.2-0.2-0.2-0.4s0.1-0.4,0.2-0.5c0.1-0.1,0.2-0.2,0.4-0.2
			s0.8,0.1,1.7,0.2c0.9,0.1,2.3,0.2,4.1,0.2c1.1,0,2.1,0,3-0.1c0.8-0.1,1.4-0.1,1.7-0.2c0.2,0,0.3,0,0.5,0.1c0.2,0,0.2,0.2,0.2,0.3
			c0,0.4-0.2,0.6-0.8,0.6c-0.2,0-0.4,0-0.6,0s-0.5,0.1-0.6,0.1c-0.2,0-0.4,0.1-0.6,0.1c-0.2,0.1-0.3,0.1-0.4,0.1
			c-0.1,0.1-0.2,0.5-0.3,1.2c-0.1,0.8-0.2,1.7-0.2,2.8c-0.1,1.1-0.2,2.3-0.2,3.6c-0.1,1.3-0.1,2.5-0.2,3.6c0,0.8-0.1,1.8-0.1,2.9
			c0,1.1,0,2.1,0,3.2c0,1,0.1,1.9,0.2,2.7c0.1,0.8,0.2,1.1,0.3,1.3c0.1,0.1,0.2,0.2,0.5,0.2c0.2,0.1,0.5,0.1,0.8,0.2s0.7,0.1,1,0.2
			c0.3,0,0.7,0,0.9,0c0.2,0,0.4,0,0.5,0.1s0.1,0.2,0.1,0.3c0,0.2-0.1,0.3-0.2,0.5c-0.2,0.1-0.3,0.2-0.5,0.2c-0.2,0-0.3,0-0.6,0
			c-0.2,0-0.6-0.1-1.1-0.1c-0.5,0-1.1-0.1-1.8-0.1c-0.7,0-1.6,0-2.6,0L55.9,112L55.9,112z"/>
		<path d="M63.5,103.8c-0.1,0-0.1,0-0.2,0c-0.1,0-0.1-0.1-0.1-0.2c0,0,0-0.1,0.1-0.2s0.2-0.3,0.3-0.5c0.2-0.2,0.3-0.3,0.5-0.4
			c0.2-0.2,0.5-0.2,0.7-0.2c0.4,0,0.6,0.1,0.8,0.3c0.2,0.2,0.4,0.5,0.5,0.8c0.2,0.3,0.2,0.7,0.2,1.1c0.1,0.5,0.1,0.9,0.1,1.4
			c0.1,0.5,0.3,1.1,0.8,1.6c0.5,0.5,0.9,1.1,1.6,1.4c0.6,0.5,1.3,0.8,2.1,1.1s1.4,0.5,2.1,0.5c1.7,0.1,2.9-0.3,3.7-1.1
			s1.1-1.8,1.1-2.9c0-1-0.2-1.8-0.5-2.4c-0.4-0.6-0.8-1.1-1.5-1.4c-0.6-0.4-1.3-0.7-2.1-0.9c-0.8-0.2-1.6-0.5-2.4-0.6
			c-0.8-0.2-1.6-0.4-2.4-0.7c-0.8-0.2-1.5-0.5-2.1-1c-0.6-0.4-1.1-1-1.5-1.6c-0.4-0.7-0.5-1.5-0.5-2.6c0-1,0.2-2,0.7-2.9
			c0.5-0.9,1.1-1.7,1.9-2.4s1.8-1.2,3-1.7c1.2-0.4,2.5-0.6,4-0.6c1.4,0,2.7,0.2,3.7,0.5c1.1,0.3,1.8,0.5,2.4,0.7
			c0.1-0.2,0.2-0.4,0.4-0.6c0.2-0.2,0.3-0.5,0.5-0.6c0.2-0.2,0.4-0.4,0.5-0.5c0.2-0.2,0.5-0.2,0.7-0.2c0.2,0,0.4,0.1,0.5,0.2
			c0.2,0.2,0.2,0.2,0.2,0.4c-0.1,0.1-0.2,0.2-0.2,0.2c-0.2,0.1-0.2,0.2-0.4,0.2c-0.7,0.4-1.2,1.1-1.7,2.4c-0.5,1.3-0.7,2.8-0.8,4.7
			c0,0.1-0.1,0.1-0.2,0.1s-0.2,0-0.3,0c-0.2,0-0.3,0-0.4,0c-0.1-0.7-0.2-1.3-0.6-2c-0.3-0.7-0.8-1.3-1.4-1.8c-0.6-0.5-1.3-1-2.1-1.4
			c-0.8-0.4-1.8-0.5-2.9-0.5c-0.7,0-1.2,0.1-1.8,0.3c-0.5,0.2-1,0.5-1.3,0.8c-0.4,0.3-0.6,0.7-0.8,1.1c-0.2,0.4-0.3,0.8-0.3,1.2
			c0,0.9,0.4,1.8,1.1,2.5c0.8,0.8,1.9,1.3,3.4,1.7c0.9,0.2,1.9,0.5,3,0.8c1,0.3,1.9,0.7,2.7,1.2c0.8,0.5,1.5,1.1,2.1,1.9
			c0.5,0.8,0.8,1.8,0.8,2.9c0,1.1-0.3,2.3-0.8,3.4c-0.5,1.1-1.2,2-2.1,2.8c-0.8,0.8-1.9,1.4-3,1.9c-1.1,0.5-2.3,0.7-3.4,0.7
			c-0.9,0-1.8-0.1-2.6-0.2c-0.8-0.2-1.7-0.2-2.4-0.5c-0.7-0.2-1.4-0.3-1.9-0.5c-0.5-0.2-1-0.4-1.2-0.5c0.2-0.4,0.4-0.7,0.6-1.1
			c0.2-0.4,0.4-0.8,0.6-1.2c0.2-0.5,0.3-0.9,0.5-1.4c0.2-0.5,0.2-1,0.2-1.5c0-0.8-0.2-1.4-0.4-1.8c-0.2-0.4-0.5-0.6-0.8-0.6
			c-0.2,0-0.4,0.1-0.5,0.2s-0.2,0.2-0.3,0.4L63.5,103.8z"/>
		<path d="M95.1,112.4c-1.7,0-3.3-0.2-4.8-0.8c-1.4-0.5-2.7-1.2-3.9-2.2c-1.1-1-2-2.1-2.6-3.6c-0.6-1.4-0.9-3-0.9-4.8
			c0-2,0.4-3.7,1.1-5.3s1.8-3,3-4.1c1.2-1.1,2.6-2.1,4.2-2.7c1.6-0.6,3.2-0.9,4.9-0.9c1.6,0,3.1,0.2,4.6,0.7
			c1.4,0.5,2.7,1.1,3.9,2.1s2,2.1,2.7,3.4c0.7,1.4,1,2.9,1,4.6c0,1.7-0.3,3.3-1,4.9c-0.7,1.6-1.6,3-2.7,4.3s-2.5,2.4-4.1,3.1
			C98.8,112,97,112.4,95.1,112.4z M96,111.2c1.2,0,2.3-0.3,3.2-0.9s1.7-1.4,2.3-2.4c0.6-1,1.1-2.1,1.4-3.4c0.3-1.3,0.5-2.7,0.5-4.1
			c0-1.8-0.2-3.3-0.6-4.6c-0.4-1.4-1-2.6-1.7-3.5c-0.7-1-1.5-1.7-2.5-2.2s-2-0.8-3-0.8c-1.2,0-2.3,0.3-3.2,0.8
			c-1,0.5-1.8,1.3-2.4,2.2c-0.7,0.9-1.1,2.1-1.5,3.4c-0.4,1.3-0.5,2.7-0.5,4.3c0,2,0.2,3.7,0.7,5.1s1.1,2.6,1.8,3.6
			c0.8,0.9,1.6,1.6,2.6,2.1C94,111,95,111.2,96,111.2z"/>
		<path d="M110,111.3c0.2,0,0.5,0,0.8,0c0.2,0,0.5-0.1,0.6-0.1c0.2-0.1,0.3-0.2,0.4-0.2c0.1-0.2,0.2-0.3,0.3-0.7
			c0.1-0.3,0.2-0.8,0.2-1.4c0.1-0.6,0.2-1.4,0.2-2.3c0-1,0.1-2.1,0.1-3.6s0-3.1,0-5.2c0-1.7,0-3-0.1-4.1c-0.1-1.1-0.1-2-0.2-2.7
			c-0.1-0.7-0.2-1.1-0.4-1.4c-0.2-0.3-0.3-0.5-0.5-0.5c-0.1,0-0.2,0-0.5,0c-0.2,0-0.4,0-0.6,0s-0.4,0-0.5,0s-0.3,0-0.3,0
			c-0.1,0-0.1-0.1-0.1-0.2s0-0.2,0-0.2s0-0.2,0-0.3c0-0.2,0.1-0.2,0.2-0.2h2.9c0.9,0,1.8,0,2.4-0.1s1.2-0.2,1.8-0.2
			c0.3-0.1,0.5,0.1,0.5,0.3c0,0.2-0.1,0.4-0.1,0.7c0,0.3-0.1,0.6-0.1,1c0,0.4-0.1,0.7-0.1,1c0,0.3,0,0.5,0,0.7
			c0.2-0.3,0.7-0.7,1.3-1.1c0.6-0.5,1.3-0.8,2.1-1.2c0.8-0.4,1.7-0.8,2.7-1c1-0.3,1.9-0.5,2.9-0.5c1.3,0,2.5,0.2,3.7,0.5
			c1.1,0.3,2.1,0.8,2.9,1.5c0.8,0.7,1.4,1.5,1.9,2.5c0.5,1,0.7,2.2,0.7,3.6c0,0.9-0.1,1.8-0.2,2.7c-0.2,1-0.4,1.9-0.7,2.8
			c-0.2,0.9-0.5,1.8-0.8,2.7c-0.3,0.9-0.6,1.7-0.8,2.4c-0.2,0.8-0.5,1.4-0.7,2.1c-0.2,0.6-0.2,1.1-0.2,1.4c0,0.2,0.2,0.5,0.4,0.6
			s0.6,0.2,1.2,0.2c0.3,0,0.5,0,0.8,0c0.2,0,0.4-0.1,0.5-0.2c0.1-0.1,0.2,0,0.2,0.2c0.1,0.1,0.1,0.2,0.1,0.2c0,0.1-0.1,0.2-0.2,0.5
			c-0.2,0.2-0.2,0.3-0.4,0.3s-0.5,0-1.1,0s-1.2,0-1.9,0s-1.4,0-2.1,0s-1.1,0-1.5,0c-0.3,0-0.5-0.1-0.5-0.3c0-0.2,0-0.2,0-0.2
			s0.1-0.1,0.2-0.1c0.1,0,0.2,0,0.2-0.1c0.1,0,0.2-0.2,0.3-0.2c0.2-0.4,0.5-1,0.8-1.8c0.2-0.8,0.5-1.9,0.7-3
			c0.2-1.1,0.4-2.4,0.5-3.8c0.2-1.4,0.2-2.7,0.2-4c0-1.4-0.2-2.7-0.5-3.7c-0.3-1.1-0.8-2-1.4-2.7c-0.5-0.7-1.2-1.3-2-1.6
			c-0.8-0.4-1.5-0.5-2.4-0.5c-0.7,0-1.4,0.2-2.2,0.4c-0.8,0.3-1.4,0.6-2.1,1.1c-0.6,0.5-1.2,1-1.7,1.7c-0.5,0.6-0.8,1.3-0.9,2
			c-0.1,0.3-0.2,0.8-0.2,1.6c-0.1,0.8-0.1,1.7-0.1,2.7s-0.1,2.1-0.1,3.2s0,2.2,0,3.2c0,0.6,0,1.2,0,1.8c0,0.6,0.1,1.1,0.1,1.6
			c0.1,0.5,0.1,0.8,0.2,1.2c0.1,0.3,0.1,0.5,0.2,0.6c0.1,0.2,0.2,0.3,0.3,0.4c0.1,0.1,0.4,0.2,0.9,0.2c0.2,0,0.4,0,0.5,0
			s0.3,0,0.5,0s0.2,0.1,0.3,0.2c0.1,0.2,0.1,0.2,0.1,0.3s-0.1,0.1-0.2,0.2c-0.1,0.1-0.2,0.2-0.3,0.2s-0.4,0-0.7,0
			c-0.3,0-0.7,0-1.1,0c-0.4,0-0.8,0-1.1,0s-0.7,0-0.9,0c-0.5,0-1.1,0-1.8,0s-1.1,0-1.7,0c-0.5,0-1,0-1.4,0.1c-0.4,0-0.7,0.1-0.8,0.1
			s-0.2-0.1-0.2-0.2c0-0.1,0.1-0.2,0.2-0.4s0.2-0.2,0.3-0.2h0.2V111.3z"/>
		<path d="M136.6,111.3c0.2,0,0.5,0,0.8,0c0.2,0,0.5-0.1,0.6-0.1c0.2-0.1,0.3-0.2,0.4-0.2c0.1-0.2,0.2-0.3,0.3-0.7
			c0.1-0.3,0.2-0.8,0.2-1.4s0.2-1.4,0.2-2.3c0-1,0.1-2.1,0.1-3.6s0-3.1,0-5.2c0-1.7,0-3-0.1-4.1s-0.1-2-0.2-2.7
			c-0.1-0.7-0.2-1.1-0.4-1.4c-0.2-0.3-0.3-0.5-0.5-0.5c-0.1,0-0.2,0-0.5,0c-0.2,0-0.4,0-0.6,0c-0.2,0-0.4,0-0.5,0s-0.3,0-0.3,0
			c-0.1,0-0.1-0.1-0.1-0.2s0-0.2,0-0.2s0-0.2,0-0.3c0-0.2,0.1-0.2,0.2-0.2h2.9c0.9,0,1.8,0,2.4-0.1s1.2-0.2,1.8-0.2
			c0.3-0.1,0.5,0.1,0.5,0.3c0,0.2-0.1,0.4-0.1,0.7c0,0.3-0.1,0.6-0.1,1c0,0.4-0.1,0.7-0.1,1c0,0.3,0,0.5,0,0.7
			c0.2-0.3,0.7-0.7,1.3-1.1c0.6-0.5,1.3-0.8,2.1-1.2c0.8-0.4,1.7-0.8,2.7-1c1-0.3,1.9-0.5,2.9-0.5c1.3,0,2.5,0.2,3.7,0.5
			c1.1,0.3,2.1,0.8,2.9,1.5c0.8,0.7,1.4,1.5,1.9,2.5c0.5,1,0.7,2.2,0.7,3.6c0,0.9-0.1,1.8-0.2,2.7c-0.2,1-0.4,1.9-0.7,2.8
			c-0.2,0.9-0.5,1.8-0.8,2.7c-0.3,0.9-0.6,1.7-0.8,2.4s-0.5,1.4-0.7,2.1c-0.2,0.6-0.2,1.1-0.2,1.4c0,0.2,0.2,0.5,0.4,0.6
			s0.6,0.2,1.2,0.2c0.3,0,0.5,0,0.8,0s0.4-0.1,0.5-0.2c0.1-0.1,0.2,0,0.2,0.2c0.1,0.1,0.1,0.2,0.1,0.2c0,0.1-0.1,0.2-0.2,0.5
			c-0.2,0.2-0.2,0.3-0.4,0.3s-0.5,0-1.1,0c-0.6,0-1.2,0-1.9,0c-0.7,0-1.4,0-2.1,0c-0.7,0-1.1,0-1.5,0c-0.3,0-0.5-0.1-0.5-0.3
			c0-0.2,0-0.2,0-0.2s0.1-0.1,0.2-0.1c0.1,0,0.2,0,0.2-0.1c0.1,0,0.2-0.2,0.3-0.2c0.2-0.4,0.5-1,0.8-1.8c0.2-0.8,0.5-1.9,0.7-3
			c0.2-1.1,0.4-2.4,0.5-3.8c0.2-1.4,0.2-2.7,0.2-4c0-1.4-0.2-2.7-0.5-3.7c-0.3-1.1-0.8-2-1.4-2.7c-0.5-0.7-1.2-1.3-2-1.6
			c-0.8-0.4-1.5-0.5-2.4-0.5c-0.7,0-1.4,0.2-2.2,0.4c-0.8,0.3-1.4,0.6-2.1,1.1c-0.6,0.5-1.2,1-1.7,1.7c-0.5,0.6-0.8,1.3-0.9,2
			c-0.1,0.3-0.2,0.8-0.2,1.6c-0.1,0.8-0.1,1.7-0.1,2.7s-0.1,2.1-0.1,3.2s0,2.2,0,3.2c0,0.6,0,1.2,0,1.8c0,0.6,0.1,1.1,0.1,1.6
			c0.1,0.5,0.1,0.8,0.2,1.2c0.1,0.3,0.1,0.5,0.2,0.6c0.1,0.2,0.2,0.3,0.3,0.4c0.1,0.1,0.4,0.2,0.9,0.2c0.2,0,0.4,0,0.5,0
			c0.2,0,0.3,0,0.5,0c0.2,0,0.2,0.1,0.3,0.2c0.1,0.2,0.1,0.2,0.1,0.3s-0.1,0.1-0.2,0.2c-0.1,0.1-0.2,0.2-0.3,0.2s-0.4,0-0.7,0
			s-0.7,0-1.1,0s-0.8,0-1.1,0c-0.4,0-0.7,0-0.9,0c-0.5,0-1.1,0-1.8,0c-0.6,0-1.1,0-1.7,0c-0.5,0-1,0-1.4,0.1c-0.4,0-0.7,0.1-0.8,0.1
			c-0.2,0-0.2-0.1-0.2-0.2c0-0.1,0.1-0.2,0.2-0.4c0.1-0.2,0.2-0.2,0.3-0.2h0.2V111.3z"/>
		<path d="M168.1,112c-0.4,0-0.8,0-1.3,0s-0.9,0-1.4,0c-0.5,0-0.9,0-1.3,0.1c-0.4,0-0.7,0.1-0.9,0.1l-0.5,0.1
			c-0.1,0-0.2-0.1-0.3-0.2c-0.1-0.2-0.2-0.2-0.2-0.4c0-0.1,0.1-0.2,0.2-0.3c0.1-0.1,0.2-0.2,0.4-0.2c0.9,0,1.7-0.1,2.2-0.2
			c0.5-0.1,0.8-0.2,1-0.5c0.2-0.2,0.3-0.8,0.4-1.8c0.2-0.9,0.3-2,0.4-3.2s0.2-2.5,0.2-3.8c0.1-1.4,0.1-2.6,0.1-3.7
			c0-1.2,0-2.3,0-3.1c0-0.8,0-1.5,0-2.1c0-0.5,0-1,0-1.3c0-0.3,0-0.5,0-0.6c0-0.7-0.2-1.1-0.3-1.4c-0.2-0.2-0.5-0.4-0.9-0.4
			c-0.3-0.1-0.7-0.1-1.1,0c-0.5,0-0.8,0-0.9,0s-0.3-0.1-0.4-0.1c-0.1,0-0.2-0.2-0.2-0.4s0.1-0.4,0.2-0.5c0.1-0.1,0.2-0.2,0.4-0.2
			s0.8,0.1,1.7,0.2c0.9,0.1,2.3,0.2,4.1,0.2c1.1,0,2.1,0,3-0.1c0.8-0.1,1.4-0.1,1.7-0.2c0.2,0,0.3,0,0.5,0.1c0.2,0,0.2,0.2,0.2,0.3
			c0,0.4-0.2,0.6-0.8,0.6c-0.2,0-0.4,0-0.6,0c-0.2,0-0.5,0.1-0.6,0.1c-0.2,0-0.4,0.1-0.6,0.1c-0.2,0.1-0.3,0.1-0.4,0.1
			c-0.1,0.1-0.2,0.5-0.3,1.2c-0.1,0.8-0.2,1.7-0.2,2.8c-0.1,1.1-0.2,2.3-0.2,3.6c-0.1,1.3-0.1,2.5-0.2,3.6c0,0.8-0.1,1.8-0.1,2.9
			c0,1.1,0,2.1,0,3.2c0,1,0.1,1.9,0.2,2.7c0.1,0.8,0.2,1.1,0.3,1.3c0.1,0.1,0.2,0.2,0.5,0.2c0.2,0.1,0.5,0.1,0.8,0.2
			c0.3,0.1,0.7,0.1,1,0.2c0.3,0,0.7,0,0.9,0s0.4,0,0.5,0.1c0.1,0.1,0.1,0.2,0.1,0.3c0,0.2-0.1,0.3-0.2,0.5c-0.2,0.1-0.3,0.2-0.5,0.2
			c-0.2,0-0.3,0-0.6,0c-0.2,0-0.6-0.1-1.1-0.1c-0.5,0-1.1-0.1-1.8-0.1s-1.6,0-2.6,0L168.1,112L168.1,112z"/>
	</g>
	<rect x="66.2" y="77.6" width="69.2" height="0.3"/>
	<g>
		<rect x="67.8" y="125" width="65.7" height="9.5"/>
		<polygon points="66,131.5 56.3,131.5 59.2,126.7 56.3,122 66,122 		"/>
		<polygon points="135.4,131.5 145.1,131.5 142.3,126.7 145.1,122 135.4,122 		"/>
	</g>
	<g>
		<path class="st0" d="M73.5,128c0.3,0.3,0.5,0.6,0.5,1h-0.5c-0.1-0.3-0.2-0.5-0.4-0.6c-0.2-0.2-0.5-0.2-0.8-0.2
			c-0.4,0-0.8,0.2-1,0.5s-0.4,0.8-0.4,1.4c0,0.5,0.1,0.9,0.3,1.2c0.2,0.3,0.5,0.5,1,0.5c0.4,0,0.8-0.2,0.9-0.5
			c0.2-0.2,0.2-0.4,0.2-0.7h0.5c-0.1,0.5-0.2,0.8-0.5,1.1c-0.3,0.4-0.8,0.5-1.4,0.5c-0.5,0-0.9-0.2-1.2-0.5c-0.5-0.4-0.7-1-0.7-1.8
			c0-0.6,0.2-1.1,0.5-1.5c0.4-0.5,0.8-0.7,1.4-0.7C72.8,127.5,73.2,127.7,73.5,128z"/>
		<path class="st0" d="M77.1,127.7h0.6l1.5,4.2h-0.6l-0.5-1.3h-1.7l-0.5,1.3h-0.6L77.1,127.7z M78.1,130.1l-0.7-1.9l-0.7,1.9H78.1z"
			/>
		<path class="st0" d="M81.1,127.7H83c0.3,0,0.6,0.1,0.8,0.2c0.4,0.2,0.6,0.5,0.6,1c0,0.2-0.1,0.5-0.2,0.6s-0.2,0.3-0.5,0.4
			c0.2,0.1,0.3,0.2,0.4,0.2c0.1,0.1,0.2,0.3,0.2,0.5v0.5c0,0.2,0,0.3,0.1,0.4c0,0.2,0.1,0.2,0.2,0.2v0.1h-0.7c0,0,0-0.1-0.1-0.2
			c0-0.1,0-0.2,0-0.3v-0.7c0-0.3-0.1-0.5-0.3-0.5c-0.1-0.1-0.3-0.1-0.5-0.1h-1.3v1.8H81L81.1,127.7L81.1,127.7z M83,129.6
			c0.2,0,0.5-0.1,0.6-0.2c0.2-0.1,0.2-0.3,0.2-0.6c0-0.3-0.1-0.5-0.3-0.6c-0.1-0.1-0.2-0.1-0.5-0.1h-1.4v1.4L83,129.6L83,129.6z"/>
		<path class="st0" d="M86.5,127.7h0.7l2.1,3.4v-3.4h0.5v4.2h-0.6l-2.1-3.4v3.4h-0.5L86.5,127.7L86.5,127.7z"/>
		<path class="st0" d="M92.1,127.7h0.6v4.2h-0.6V127.7z"/>
		<path class="st0" d="M97.6,127.7h1.7c0.6,0,1,0.2,1.4,0.6c0.3,0.4,0.5,0.8,0.5,1.4c0,0.5-0.1,0.8-0.2,1.2c-0.3,0.6-0.8,1-1.5,1
			h-1.7L97.6,127.7L97.6,127.7z M99.2,131.4c0.2,0,0.4,0,0.5-0.1c0.2-0.1,0.4-0.2,0.5-0.5c0.1-0.2,0.2-0.4,0.2-0.7
			c0-0.2,0.1-0.3,0.1-0.5c0-0.5-0.1-0.9-0.3-1.2s-0.5-0.5-1-0.5h-1v3.3L99.2,131.4L99.2,131.4z"/>
		<path class="st0" d="M104.2,127.7h0.6l1.5,4.2h-0.6l-0.5-1.3h-1.7l-0.5,1.3h-0.6L104.2,127.7z M105.2,130.1l-0.7-1.9l-0.7,1.9
			H105.2z"/>
		<path class="st0" d="M108.1,127.7h0.6v3.7h2.1v0.5h-2.7L108.1,127.7L108.1,127.7z"/>
		<path class="st0" d="M115.2,129v-0.4c0.4,0,0.6-0.1,0.8-0.2c0.2-0.1,0.2-0.3,0.3-0.6h0.4v4.1h-0.5V129L115.2,129L115.2,129z"/>
		<path class="st0" d="M119.9,130.9c0,0.3,0.2,0.5,0.3,0.6c0.1,0.1,0.2,0.1,0.4,0.1c0.2,0,0.5-0.1,0.6-0.3c0.2-0.2,0.3-0.6,0.4-1.2
			c-0.2,0.2-0.2,0.3-0.5,0.4c-0.2,0.1-0.4,0.1-0.5,0.1c-0.4,0-0.7-0.2-0.9-0.4c-0.2-0.2-0.4-0.5-0.4-1c0-0.4,0.1-0.7,0.3-1
			c0.2-0.3,0.5-0.5,1-0.5c0.6,0,1,0.3,1.2,0.8c0.2,0.3,0.2,0.7,0.2,1.1c0,0.5-0.1,0.9-0.2,1.4c-0.2,0.7-0.7,1-1.3,1
			c-0.4,0-0.7-0.1-0.9-0.3c-0.2-0.2-0.3-0.5-0.3-0.8L119.9,130.9L119.9,130.9z M121.2,129.8c0.2-0.2,0.2-0.4,0.2-0.7
			s-0.1-0.5-0.2-0.7c-0.2-0.2-0.4-0.2-0.6-0.2s-0.5,0.1-0.6,0.2c-0.2,0.2-0.2,0.4-0.2,0.7s0.1,0.5,0.2,0.6c0.2,0.2,0.3,0.2,0.6,0.2
			C120.9,130,121.1,129.9,121.2,129.8z"/>
		<path class="st0" d="M124.4,130.9c0,0.3,0.2,0.5,0.3,0.6c0.1,0.1,0.2,0.1,0.4,0.1c0.2,0,0.5-0.1,0.6-0.3c0.2-0.2,0.3-0.6,0.4-1.2
			c-0.2,0.2-0.2,0.3-0.5,0.4c-0.2,0.1-0.4,0.1-0.5,0.1c-0.4,0-0.7-0.2-0.9-0.4c-0.2-0.2-0.4-0.5-0.4-1c0-0.4,0.1-0.7,0.3-1
			c0.2-0.3,0.5-0.5,1-0.5c0.6,0,1,0.3,1.2,0.8c0.2,0.3,0.2,0.7,0.2,1.1c0,0.5-0.1,0.9-0.2,1.4c-0.2,0.7-0.7,1-1.3,1
			c-0.4,0-0.7-0.1-0.9-0.3c-0.2-0.2-0.3-0.5-0.3-0.8L124.4,130.9L124.4,130.9z M125.7,129.8c0.2-0.2,0.2-0.4,0.2-0.7
			s-0.1-0.5-0.2-0.7s-0.4-0.2-0.6-0.2s-0.5,0.1-0.6,0.2s-0.2,0.4-0.2,0.7s0.1,0.5,0.2,0.6s0.3,0.2,0.6,0.2
			C125.4,130,125.5,129.9,125.7,129.8z"/>
		<path class="st0" d="M131.1,127.8v0.5c-0.2,0.2-0.3,0.4-0.5,0.7c-0.2,0.3-0.4,0.7-0.6,1.1c-0.2,0.4-0.3,0.7-0.4,1
			c-0.1,0.2-0.2,0.5-0.2,0.9h-0.6c0.2-0.8,0.4-1.6,0.8-2.4c0.2-0.5,0.5-0.8,0.8-1.2h-2.3v-0.5L131.1,127.8L131.1,127.8z"/>
	</g>
	<g>
		<path d="M68,68h1.1l1.7,5l1.7-5h1.1v5.9h-0.8v-3.4c0-0.2,0-0.3,0-0.6c0-0.3,0-0.5,0-0.9l-1.7,5h-0.8l-1.7-5v0.2c0,0.2,0,0.4,0,0.7
			s0,0.5,0,0.6v3.4H68C68,73.8,68,68,68,68z"/>
		<path d="M78.1,68H79l2.1,5.9h-0.8l-0.6-1.8h-2.3l-0.6,1.8H76L78.1,68z M79.4,71.5l-0.9-2.6l-0.9,2.6H79.4z"/>
		<path d="M87.6,68.5c0.4,0.4,0.6,0.8,0.7,1.3h-0.8c-0.1-0.4-0.2-0.7-0.5-0.9c-0.2-0.2-0.6-0.3-1.1-0.3c-0.5,0-1,0.2-1.4,0.6
			c-0.4,0.4-0.5,1-0.5,1.8c0,0.7,0.2,1.2,0.5,1.7c0.3,0.5,0.8,0.6,1.4,0.6s1-0.2,1.3-0.7c0.2-0.2,0.3-0.5,0.4-0.9h0.8
			c-0.1,0.6-0.3,1.1-0.7,1.5c-0.5,0.5-1.1,0.8-1.8,0.8c-0.7,0-1.2-0.2-1.7-0.6c-0.6-0.5-0.9-1.4-0.9-2.5c0-0.8,0.2-1.6,0.7-2.1
			c0.5-0.6,1.1-0.9,2-0.9C86.6,67.9,87.2,68.1,87.6,68.5z"/>
		<path d="M91,68h4.3v0.7h-3.4v1.8H95v0.7h-3.2v2h3.5v0.7h-4.3L91,68L91,68z"/>
		<path d="M98,68h0.8v5.1h2.9v0.7h-3.7L98,68L98,68z"/>
		<path d="M104.2,68h0.8v5.1h2.9v0.7h-3.7L104.2,68L104.2,68z"/>
		<path d="M110.3,68h4.3v0.7h-3.4v1.8h3.2v0.7h-3.2v2h3.5v0.7h-4.3L110.3,68L110.3,68z"/>
		<path d="M117.4,68h2.7c0.5,0,0.8,0.1,1.1,0.2c0.5,0.2,0.8,0.7,0.8,1.4c0,0.4-0.1,0.6-0.2,0.8s-0.4,0.4-0.6,0.5
			c0.2,0.1,0.4,0.2,0.5,0.4c0.2,0.2,0.2,0.4,0.2,0.8v0.8c0,0.2,0,0.4,0.1,0.5c0.1,0.2,0.2,0.3,0.2,0.4v0.2h-1c0-0.1-0.1-0.2-0.1-0.2
			s0-0.2-0.1-0.5l-0.1-1c0-0.4-0.2-0.6-0.4-0.8c-0.2-0.1-0.4-0.1-0.7-0.1h-1.8v2.5h-0.8V68z M120,70.7c0.4,0,0.6-0.1,0.8-0.2
			c0.2-0.2,0.3-0.4,0.3-0.8c0-0.4-0.2-0.7-0.5-0.8c-0.2-0.1-0.4-0.2-0.6-0.2h-1.9v2L120,70.7L120,70.7z"/>
		<path d="M125.1,68h0.8v5.9h-0.8V68z"/>
		<path d="M130.5,68h0.9l2.1,5.9h-0.8l-0.6-1.8h-2.3l-0.6,1.8h-0.8L130.5,68z M131.8,71.5l-0.9-2.6l-0.9,2.6H131.8z"/>
	</g>
	<g>
		<polygon points="86.2,54.1 87.6,55.2 89.3,54.6 88.8,56.4 89.9,57.7 88.1,57.8 87,59.2 86.5,57.6 84.8,57 86.2,56 		"/>
		<polygon points="93.4,51.3 94.5,52.7 96.3,52.5 95.3,54.1 96.1,55.7 94.4,55.3 93,56.5 92.8,54.7 91.3,53.8 93,53.1 		"/>
		<polygon points="100.7,50.4 101.5,52 103.3,52.2 102,53.5 102.3,55.3 100.7,54.4 99.1,55.3 99.4,53.5 98.1,52.2 99.9,52 		"/>
		<polygon points="108.1,51.3 108.4,53.1 110.1,53.8 108.5,54.7 108.4,56.5 107.1,55.3 105.3,55.7 106,54.1 105.1,52.5 106.9,52.7 
					"/>
		<polygon points="115.3,54.2 115.2,56 116.7,57.1 114.9,57.6 114.3,59.2 113.3,57.8 111.6,57.7 112.6,56.4 112.1,54.6 113.8,55.2 
					"/>
	</g>
	<g>
		<path class="st1" d="M136.3,51.8C125.9,44.1,113.6,40,100.8,40s-25.2,4-35.5,11.7c-9.8,7.2-16.9,17-20.9,28.3h1.1
			c3.9-11,10.9-20.6,20.4-27.6C76,45,88.1,41,100.8,41c12.7,0,24.8,4,34.9,11.5c9.4,7,16.5,16.5,20.4,27.6h1.1
			C153.2,68.8,145.9,59,136.3,51.8z"/>
		<path class="st1" d="M65.2,147.7c10.4,7.7,22.6,11.7,35.5,11.7s25.2-4,35.5-11.7c9.8-7.2,16.9-17,20.9-28.3H156
			c-3.9,11-10.9,20.6-20.4,27.6c-10.1,7.5-22.2,11.5-34.9,11.5c-12.7,0-24.8-4-34.9-11.5c-9.4-7-16.5-16.5-20.4-27.6h-1.1
			C48.3,130.7,55.5,140.5,65.2,147.7z"/>
		<path class="st1" d="M63.9,50c10.7-7.9,23.5-12.1,36.8-12.1s26.1,4.2,36.8,12.1c10.3,7.6,17.8,18.1,21.9,30.1h2.1
			c-4.1-12.7-12-23.7-22.8-31.7c-11-8.2-24.1-12.5-38-12.5s-26.9,4.3-38,12.5c-10.7,8-18.5,19-22.6,31.7H42
			C46.1,68.1,53.6,57.6,63.9,50z"/>
		<path class="st1" d="M137.5,149.4c-10.7,7.9-23.5,12.1-36.8,12.1c-13.4,0-26.1-4.2-36.8-12.1c-10.3-7.6-17.8-18.1-21.9-30.1H40
			c4.1,12.7,12,23.7,22.8,31.7c11,8.2,24.1,12.5,38,12.5s26.9-4.3,38-12.5c10.8-8,18.7-19,22.8-31.7h-2.1
			C155.4,131.5,147.8,141.8,137.5,149.4z"/>
	</g>
</g>
</svg>
